<svg width="84" height="84" viewBox="0 0 84 84" fill="none" xmlns="http://www.w3.org/2000/svg">
<path d="M15.0108 31.2002H11.58C11.2617 31.2002 10.9565 31.3266 10.7315 31.5517C10.5064 31.7767 10.38 32.0819 10.38 32.4002C10.38 32.7185 10.5064 33.0237 10.7315 33.2487C10.9565 33.4738 11.2617 33.6002 11.58 33.6002H15.0096C15.3279 33.6002 15.6331 33.4738 15.8581 33.2487C16.0832 33.0237 16.2096 32.7185 16.2096 32.4002C16.2096 32.0819 16.0832 31.7767 15.8581 31.5517C15.6331 31.3266 15.3279 31.2002 15.0096 31.2002H15.0108ZM23.2392 32.4002C23.2392 32.7185 23.3656 33.0237 23.5907 33.2487C23.8157 33.4738 24.1209 33.6002 24.4392 33.6002H27.8688C28.1871 33.6002 28.4923 33.4738 28.7173 33.2487C28.9424 33.0237 29.0688 32.7185 29.0688 32.4002C29.0688 32.0819 28.9424 31.7767 28.7173 31.5517C28.4923 31.3266 28.1871 31.2002 27.8688 31.2002H24.4392C24.1209 31.2002 23.8157 31.3266 23.5907 31.5517C23.3656 31.7767 23.2392 32.0819 23.2392 32.4002Z" fill="#DADADA"/>
<path d="M78 3.6001H27.6C26.2764 3.6001 25.2 4.6765 25.2 6.0001V25.2001H6.00001C4.67641 25.2001 3.60001 26.2765 3.60001 27.6001V78.0001C3.60001 79.3237 4.67641 80.4001 6.00001 80.4001H56.4C57.7236 80.4001 58.8 79.3237 58.8 78.0001V58.8001H78C79.3236 58.8001 80.4 57.7237 80.4 56.4001V6.0001C80.4 4.6765 79.3236 3.6001 78 3.6001ZM56.4 78.0001H6.00001V39.6001H56.4V78.0001ZM56.4 37.2001H6.00001V27.6001H26.4048L56.4 27.5965V37.2001ZM78 56.4001H58.8V27.6001C58.8 26.2765 57.7236 25.2001 56.4 25.2001H27.6V18.0001H78V56.4001ZM78 15.6001H27.6V6.0001H78V15.6001Z" fill="#DADADA"/>
<path d="M33.1812 12.0001H36.6108C36.9291 12.0001 37.2343 11.8737 37.4593 11.6486C37.6844 11.4236 37.8108 11.1184 37.8108 10.8001C37.8108 10.4818 37.6844 10.1766 37.4593 9.95157C37.2343 9.72653 36.9291 9.6001 36.6108 9.6001H33.18C32.8617 9.6001 32.5565 9.72653 32.3315 9.95157C32.1064 10.1766 31.98 10.4818 31.98 10.8001C31.98 11.1184 32.1064 11.4236 32.3315 11.6486C32.5565 11.8737 32.8617 12.0001 33.18 12.0001H33.1812ZM46.0392 12.0001H49.4688C49.7871 12.0001 50.0923 11.8737 50.3173 11.6486C50.5424 11.4236 50.6688 11.1184 50.6688 10.8001C50.6688 10.4818 50.5424 10.1766 50.3173 9.95157C50.0923 9.72653 49.7871 9.6001 49.4688 9.6001H46.0392C45.7209 9.6001 45.4157 9.72653 45.1907 9.95157C44.9656 10.1766 44.8392 10.4818 44.8392 10.8001C44.8392 11.1184 44.9656 11.4236 45.1907 11.6486C45.4157 11.8737 45.7209 12.0001 46.0392 12.0001ZM20.7516 66.8485C20.8628 66.9603 20.995 67.0491 21.1406 67.1096C21.2862 67.1702 21.4423 67.2013 21.6 67.2013C21.7577 67.2013 21.9138 67.1702 22.0594 67.1096C22.205 67.0491 22.3372 66.9603 22.4484 66.8485C22.6734 66.6235 22.7997 66.3183 22.7997 66.0001C22.7997 65.6819 22.6734 65.3767 22.4484 65.1517L17.2968 60.0001L22.4484 54.8485C22.563 54.7378 22.6544 54.6054 22.7173 54.459C22.7802 54.3126 22.8133 54.1551 22.8147 53.9958C22.8161 53.8364 22.7857 53.6784 22.7254 53.531C22.665 53.3835 22.5759 53.2495 22.4633 53.1368C22.3506 53.0242 22.2166 52.9351 22.0691 52.8747C21.9217 52.8144 21.7637 52.784 21.6043 52.7854C21.445 52.7868 21.2875 52.8199 21.1411 52.8828C20.9947 52.9457 20.8623 53.0371 20.7516 53.1517L14.7516 59.1517C14.5266 59.3767 14.4003 59.6819 14.4003 60.0001C14.4003 60.3183 14.5266 60.6235 14.7516 60.8485L20.7516 66.8485ZM39.9516 66.8485C40.0628 66.9603 40.195 67.0491 40.3406 67.1096C40.4862 67.1702 40.6423 67.2013 40.8 67.2013C40.9577 67.2013 41.1138 67.1702 41.2594 67.1096C41.405 67.0491 41.5372 66.9603 41.6484 66.8485L47.6484 60.8485C47.8734 60.6235 47.9997 60.3183 47.9997 60.0001C47.9997 59.6819 47.8734 59.3767 47.6484 59.1517L41.6484 53.1517C41.5377 53.0371 41.4053 52.9457 41.2589 52.8828C41.1125 52.8199 40.955 52.7868 40.7957 52.7854C40.6363 52.784 40.4783 52.8144 40.3309 52.8747C40.1834 52.9351 40.0494 53.0242 39.9367 53.1368C39.8241 53.2495 39.735 53.3835 39.6746 53.531C39.6143 53.6784 39.5839 53.8364 39.5853 53.9958C39.5867 54.1551 39.6198 54.3126 39.6827 54.459C39.7456 54.6054 39.837 54.7378 39.9516 54.8485L45.1032 60.0001L39.9516 65.1517C39.7266 65.3767 39.6003 65.6819 39.6003 66.0001C39.6003 66.3183 39.7266 66.6235 39.9516 66.8485ZM25.3092 73.1941C25.4529 73.2586 25.6079 73.2942 25.7654 73.2988C25.9229 73.3034 26.0797 73.2769 26.2269 73.2208C26.3741 73.1648 26.5088 73.0803 26.6234 72.9721C26.7379 72.8639 26.83 72.7343 26.8944 72.5905L37.6944 48.4909C37.7589 48.3472 37.7944 48.1922 37.7989 48.0347C37.8035 47.8773 37.777 47.7205 37.7209 47.5733C37.6649 47.4261 37.5804 47.2914 37.4722 47.1768C37.3641 47.0623 37.2345 46.9702 37.0908 46.9057C36.9471 46.8412 36.7921 46.8057 36.6346 46.8012C36.4772 46.7966 36.3204 46.8231 36.1732 46.8792C36.026 46.9352 35.8913 47.0197 35.7767 47.1278C35.6622 47.236 35.57 47.3656 35.5056 47.5093L24.7056 71.6089C24.6411 71.7526 24.6055 71.9076 24.6009 72.0651C24.5963 72.2226 24.6228 72.3794 24.6789 72.5266C24.7349 72.6738 24.8194 72.8086 24.9276 72.9231C25.0358 73.0376 25.1654 73.1297 25.3092 73.1941Z" fill="#DADADA"/>
</svg>
