<svg width="87" height="84" viewBox="0 0 87 84" fill="none" xmlns="http://www.w3.org/2000/svg">
<path d="M3.9375 84H59.0625C61.2334 84 63 82.2334 63 80.0625V60.375C63 60.3488 62.9869 60.3278 62.9842 60.3015C63.1286 60.2096 63.2782 60.123 63.42 60.0259L84.3832 80.9891C84.5042 81.1146 84.6488 81.2148 84.8089 81.2838C84.9689 81.3528 85.1411 81.3893 85.3153 81.391C85.4896 81.3928 85.6625 81.3598 85.8239 81.2941C85.9852 81.2283 86.1319 81.131 86.2553 81.008C86.3787 80.8849 86.4764 80.7385 86.5426 80.5773C86.6088 80.4161 86.6423 80.2434 86.641 80.0691C86.6398 79.8948 86.6038 79.7225 86.5352 79.5623C86.4667 79.4021 86.3669 79.2571 86.2418 79.1359L65.4701 58.3642C67.1746 56.7739 68.5339 54.8502 69.4637 52.7124C70.3935 50.5747 70.8738 48.2687 70.875 45.9375C70.8725 43.0731 70.1482 40.2556 68.769 37.745C67.3899 35.2345 65.4004 33.112 62.9842 31.5735C62.9869 31.5472 63 31.5263 63 31.5V24.9375C63 24.8929 62.979 24.8561 62.9764 24.8141C62.9711 24.7537 62.9554 24.7012 62.9423 24.6435C62.901 24.4611 62.8204 24.29 62.706 24.1421C62.6876 24.1185 62.6903 24.0896 62.6719 24.066L41.6719 0.441C41.664 0.433125 41.6535 0.433125 41.6456 0.42525C41.4858 0.257395 41.2835 0.135861 41.0602 0.0735C41.0104 0.05775 40.9658 0.0525 40.9132 0.044625C40.8371 0.0315 40.7663 0 40.6875 0H3.9375C1.76662 0 0 1.76662 0 3.9375V80.0625C0 82.2334 1.76662 84 3.9375 84ZM68.25 45.9375C68.25 53.8991 61.7715 60.375 53.8125 60.375C45.8535 60.375 39.375 53.8991 39.375 45.9375C39.375 37.9759 45.8535 31.5 53.8125 31.5C61.7715 31.5 68.25 37.9759 68.25 45.9375ZM42 4.76438L58.7659 23.625H43.3125C42.735 23.625 42 22.5225 42 21.6562V4.76438ZM2.625 3.9375C2.625 3.5894 2.76328 3.25556 3.00942 3.00942C3.25556 2.76328 3.5894 2.625 3.9375 2.625H39.375V21.6562C39.375 23.7799 41.0944 26.25 43.3125 26.25H60.375V30.1901C57.2043 28.8638 53.7061 28.5299 50.3418 29.2324C46.9775 29.9348 43.9051 31.6407 41.5301 34.125H14.4375C14.0894 34.125 13.7556 34.2633 13.5094 34.5094C13.2633 34.7556 13.125 35.0894 13.125 35.4375C13.125 35.7856 13.2633 36.1194 13.5094 36.3656C13.7556 36.6117 14.0894 36.75 14.4375 36.75H39.459C37.9377 39.1146 37.0301 41.8213 36.8182 44.625H14.4375C14.0894 44.625 13.7556 44.7633 13.5094 45.0094C13.2633 45.2556 13.125 45.5894 13.125 45.9375C13.125 46.2856 13.2633 46.6194 13.5094 46.8656C13.7556 47.1117 14.0894 47.25 14.4375 47.25H36.8156C37.0288 50.0535 37.9363 52.7598 39.4564 55.125H14.4375C14.0894 55.125 13.7556 55.2633 13.5094 55.5094C13.2633 55.7556 13.125 56.0894 13.125 56.4375C13.125 56.7856 13.2633 57.1194 13.5094 57.3656C13.7556 57.6117 14.0894 57.75 14.4375 57.75H41.3438C41.3989 57.75 41.4461 57.7264 41.5013 57.7185C43.8754 60.2132 46.9513 61.928 50.3216 62.6358C53.692 63.3436 57.1978 63.0111 60.375 61.6822V80.0625C60.375 80.4106 60.2367 80.7444 59.9906 80.9906C59.7444 81.2367 59.4106 81.375 59.0625 81.375H3.9375C3.2025 81.375 2.625 80.7975 2.625 80.0625V3.9375Z" fill="#DADADA"/>
<path d="M14.4375 26.25H30.1875C30.5356 26.25 30.8694 26.1117 31.1156 25.8656C31.3617 25.6194 31.5 25.2856 31.5 24.9375C31.5 24.5894 31.3617 24.2556 31.1156 24.0094C30.8694 23.7633 30.5356 23.625 30.1875 23.625H14.4375C14.0894 23.625 13.7556 23.7633 13.5094 24.0094C13.2633 24.2556 13.125 24.5894 13.125 24.9375C13.125 25.2856 13.2633 25.6194 13.5094 25.8656C13.7556 26.1117 14.0894 26.25 14.4375 26.25ZM14.4375 68.25H48.5625C48.9106 68.25 49.2444 68.1117 49.4906 67.8656C49.7367 67.6194 49.875 67.2856 49.875 66.9375C49.875 66.5894 49.7367 66.2556 49.4906 66.0094C49.2444 65.7633 48.9106 65.625 48.5625 65.625H14.4375C14.0894 65.625 13.7556 65.7633 13.5094 66.0094C13.2633 66.2556 13.125 66.5894 13.125 66.9375C13.125 67.2856 13.2633 67.6194 13.5094 67.8656C13.7556 68.1117 14.0894 68.25 14.4375 68.25Z" fill="#DADADA"/>
</svg>
