<svg width="84" height="84" viewBox="0 0 84 84" fill="none" xmlns="http://www.w3.org/2000/svg">
<path d="M18.9435 64.6037C18.774 64.6037 18.6085 64.5381 18.4841 64.416C18.3166 64.2519 18.2495 64.0108 18.3079 63.7837C18.6397 62.4956 20.37 55.9953 21.861 54.5045C22.7284 53.6369 23.8733 53.1592 25.0847 53.1592C25.4539 53.1592 25.799 53.202 26.1109 53.2863L26.116 53.2875C26.208 53.3083 26.3124 53.3319 26.4267 53.3702L26.4558 53.3787C26.4661 53.3818 26.4763 53.3848 26.4863 53.3879C26.6036 53.4154 26.7155 53.4535 26.8202 53.5019C26.8981 53.5293 26.9672 53.56 27.0325 53.5967C27.1332 53.6435 27.2287 53.6943 27.3163 53.7421C27.3524 53.7567 27.387 53.7743 27.4192 53.7949C27.5561 53.8824 27.7109 53.9815 27.8726 54.1078C28.0477 54.2331 28.1999 54.366 28.3374 54.5137C28.9615 55.1411 29.3999 55.9597 29.5725 56.8206C29.5772 56.8445 29.5807 56.8683 29.5828 56.8924C29.8693 58.3757 29.4027 59.8969 28.3286 60.9718C27.617 61.6931 25.6632 62.5673 22.524 63.5678C21.8832 63.7645 19.6846 64.4217 19.1196 64.5794C19.0616 64.596 19.0023 64.6037 18.9435 64.6037ZM25.0845 54.4718C24.2237 54.4718 23.4085 54.8131 22.789 55.4328C22.0835 56.1381 20.9228 59.1713 19.8764 62.9916C20.7164 62.7427 21.7442 62.4345 22.1322 62.3153C26.1172 61.0452 27.1421 60.3059 27.3973 60.0472C28.1747 59.2692 28.5059 58.1692 28.2862 57.1021C28.2815 57.0786 28.2779 57.055 28.2757 57.0312C28.1461 56.4347 27.8367 55.8688 27.4004 55.4329C27.3942 55.4267 27.3883 55.4205 27.3824 55.4141C27.3017 55.3268 27.2093 55.2465 27.0999 55.1691C27.0907 55.1625 27.0817 55.1558 27.0728 55.1488C26.9767 55.073 26.8741 55.0049 26.7729 54.9399C26.7619 54.9348 26.7513 54.9294 26.7408 54.9235C26.6463 54.8718 26.5486 54.8182 26.4605 54.7785C26.4364 54.7676 26.4128 54.7552 26.39 54.7414C26.3875 54.7406 26.3798 54.7383 26.3715 54.7357C26.3398 54.7255 26.3089 54.7128 26.2791 54.6981C26.2517 54.6845 26.2143 54.6718 26.177 54.6638C26.1562 54.6592 26.1357 54.6536 26.1155 54.6471L26.0863 54.6384C26.0597 54.6305 26.033 54.6225 26.0107 54.6151C25.9585 54.5977 25.8975 54.5839 25.8266 54.5678L25.8066 54.5634C25.7966 54.5611 25.7866 54.5586 25.7767 54.5558C25.5751 54.5001 25.3421 54.4718 25.0845 54.4718Z" fill="#DADADA"/>
<path d="M28.9483 57.7148C28.8358 57.7148 28.7234 57.6859 28.6223 57.6282C28.445 57.5268 28.3267 57.3496 28.2985 57.1506C28.2881 57.1134 28.2806 57.0738 28.2763 57.0349C28.1472 56.4373 27.8373 55.8699 27.4004 55.4332C27.3941 55.427 27.3882 55.4207 27.3823 55.4143C27.3016 55.3271 27.2091 55.2468 27.0998 55.1694C27.0906 55.1628 27.0816 55.1561 27.0727 55.1491C26.9664 55.0652 26.8729 54.9986 26.7888 54.9469C26.7591 54.934 26.7307 54.919 26.7038 54.9021C26.6365 54.8593 26.5638 54.8255 26.4606 54.7789C26.4365 54.7681 26.4129 54.7556 26.3901 54.7418C26.3876 54.741 26.3799 54.7387 26.3715 54.7361C26.3492 54.7289 26.3272 54.7205 26.3059 54.711C26.2467 54.6848 26.2095 54.6711 26.1773 54.6641C26.1565 54.6597 26.136 54.6541 26.1158 54.6475L26.0866 54.6388C26.0598 54.6309 26.0332 54.6229 26.0109 54.6155C25.9821 54.6058 25.954 54.5942 25.9268 54.5807C25.9223 54.5793 25.9189 54.5781 25.9184 54.578C25.7271 54.5164 25.5745 54.3707 25.5045 54.1824C25.4343 53.9942 25.4543 53.7841 25.5586 53.6124C27.0112 51.2225 29.3375 48.1419 32.109 44.9388C32.3214 44.6935 32.6814 44.64 32.9555 44.8131C34.0416 45.4987 35.0252 46.2787 35.8786 47.1313C36.792 48.0455 37.5933 49.0613 38.2608 50.1511C38.4287 50.4252 38.3734 50.7807 38.1297 50.9907C34.762 53.8946 31.6194 56.2506 29.2807 57.6244C29.1782 57.6848 29.0633 57.7148 28.9483 57.7148ZM28.3375 54.514C28.7713 54.9502 29.1155 55.4788 29.3429 56.0498C31.4183 54.7433 34.0351 52.761 36.8414 50.3666C36.2922 49.5416 35.658 48.7674 34.9507 48.0594C34.2912 47.4005 33.545 46.7876 32.7273 46.2323C30.4175 48.9322 28.4514 51.5152 27.0974 53.6264C27.1709 53.6607 27.2519 53.7009 27.3369 53.7507C27.3554 53.7589 27.3735 53.7678 27.3907 53.7778C27.5411 53.8635 27.699 53.9719 27.873 54.1084C28.0478 54.2336 28.2 54.3666 28.3375 54.514Z" fill="#DADADA"/>
<path d="M37.7011 51.15C37.6697 51.15 37.6382 51.1477 37.6069 51.1433C37.4139 51.1152 37.2433 51.0028 37.1414 50.8365C36.5277 49.8347 35.7907 48.9002 34.9505 48.0594C34.166 47.2758 33.2589 46.5569 32.2547 45.9231C32.0914 45.8199 31.9818 45.6503 31.9551 45.459C31.9283 45.2679 31.9871 45.0744 32.1159 44.9305C38.4001 37.9056 44.1653 32.6418 49.7408 28.8385C53.7767 26.1058 55.6139 25.698 56.3499 25.698C56.6915 25.698 56.943 25.7833 57.119 25.9585C57.9078 26.7472 56.8321 29.5013 54.2425 33.3264C52.6662 35.6408 49.9966 38.9144 46.7248 42.5451C46.3847 42.9177 44.4293 45.0088 43.4893 46.0137L43.0109 46.5254C43.0062 46.5303 43.0014 46.5354 42.9967 46.5402C41.81 47.7337 40.696 48.7171 39.5167 49.7579C39.0669 50.155 38.6101 50.5581 38.1402 50.9813C38.019 51.0908 37.8622 51.15 37.7011 51.15ZM33.6019 45.2408C34.4342 45.8175 35.1978 46.4512 35.8786 47.1313C36.6056 47.8589 37.2615 48.6508 37.8354 49.4931C38.1096 49.2493 38.3801 49.0106 38.6482 48.7739C39.8086 47.7496 40.9047 46.782 42.0587 45.6219L42.5306 45.1171C43.4687 44.1142 45.4205 42.027 45.7526 41.6632C48.9831 38.0781 51.6137 34.8545 53.1567 32.5889C55.354 29.3433 55.8964 27.7099 56.0275 27.0481C55.3719 27.1744 53.7477 27.7104 50.4786 29.9239C45.1434 33.5633 39.6173 38.578 33.6019 45.2408ZM73.5108 21.392H72.2392L56.4111 21.1958L11.8678 20.6335H10.6045C10.2421 20.6335 9.94824 20.3397 9.94824 19.9773V3.76283C9.94824 2.80339 10.7823 2.02295 11.8076 2.02295H72.299C73.329 2.02295 74.1672 2.80356 74.1672 3.76283V20.7358C74.1671 21.0982 73.8732 21.392 73.5108 21.392ZM11.2607 19.321H11.876L56.4276 19.8833L72.2474 20.0795H72.8546V3.76283C72.8546 3.52707 72.6052 3.33545 72.2989 3.33545H11.8077C11.5113 3.33545 11.2609 3.53118 11.2609 3.76283V19.321H11.2607Z" fill="#DADADA"/>
<path d="M18.9433 64.6037H10.6045C10.2421 64.6037 9.94824 64.3099 9.94824 63.9474V19.9771C9.94824 19.6146 10.2421 19.3208 10.6045 19.3208H11.876L56.4276 19.883C56.7899 19.8876 57.08 20.1849 57.0755 20.5472L57.0061 26.362C57.0019 26.7213 56.7092 27.0104 56.3499 27.0104C56.0879 27.0104 54.5741 27.1508 50.4784 29.924C44.9936 33.6653 39.3067 38.8606 33.0942 45.8056C30.4974 48.8069 28.2999 51.6949 26.8746 53.978C26.8769 54.0783 26.8562 54.1805 26.8101 54.2765C26.6669 54.5747 26.3241 54.7199 26.0103 54.6149C25.9588 54.5978 25.8976 54.5841 25.8269 54.568L25.8069 54.5636C25.7968 54.5613 25.7868 54.5588 25.777 54.556C25.5749 54.5002 25.3419 54.4718 25.0843 54.4718C24.2235 54.4718 23.4083 54.8131 22.7888 55.4328C22.0157 56.2057 20.6956 59.7743 19.5787 64.1112C19.5042 64.4011 19.2427 64.6037 18.9433 64.6037ZM11.2607 63.2912H18.437C18.9627 61.3187 20.5101 55.8554 21.861 54.5045C22.7284 53.6369 23.8732 53.1592 25.0846 53.1592C25.3358 53.1592 25.5759 53.179 25.8019 53.2181C27.2642 50.8884 29.4874 47.9684 32.109 44.9383C38.4005 37.9051 44.1656 32.6414 49.7409 28.8381C52.8973 26.701 54.7089 25.9857 55.7007 25.7755L55.7553 21.1868L11.8679 20.633H11.2609V63.2912H11.2607Z" fill="#DADADA"/>
<path d="M72.299 81.8927H11.8077C10.7823 81.8927 9.94836 81.1121 9.94836 80.1526V63.9477C9.94836 63.5853 10.2422 63.2914 10.6046 63.2914H18.8525C19.5116 63.1038 21.5476 62.4951 22.1323 62.3156C26.1172 61.0454 27.1421 60.3062 27.3974 60.0474C28.1747 59.2695 28.506 58.1694 28.2863 57.1024C28.2162 56.7619 28.4236 56.4259 28.7594 56.336C28.8116 56.3221 28.8641 56.3149 28.916 56.3137C31.1554 54.9567 34.1064 52.7271 37.2726 49.9968C37.7353 49.5799 38.1953 49.1739 38.6483 48.774C39.8087 47.7498 40.905 46.7822 42.059 45.6219L42.5299 45.1186C43.4681 44.1152 45.4207 42.0271 45.7529 41.6634C48.9834 38.0783 51.614 34.8547 53.157 32.5891C55.4898 29.1433 55.9574 27.5145 56.0476 26.9367C55.9876 26.9053 55.932 26.8648 55.8834 26.8156C55.7602 26.6907 55.6919 26.5219 55.6941 26.3465L55.7635 20.5317C55.7656 20.3576 55.8366 20.1916 55.9613 20.07C56.086 19.9484 56.253 19.8836 56.4279 19.8833L72.2478 20.0795H73.5113C73.8737 20.0795 74.1675 20.3734 74.1675 20.7358V80.1526C74.167 81.1121 73.329 81.8927 72.299 81.8927ZM11.2607 64.6038V80.1525C11.2607 80.3804 11.5163 80.58 11.8075 80.58H72.299C72.595 80.58 72.8547 80.3802 72.8547 80.1525V21.3919H72.2393L57.0678 21.2038L57.012 25.8694C57.0504 25.8959 57.0862 25.9257 57.1191 25.9585C57.9078 26.7472 56.832 29.5013 54.2425 33.3264C52.6661 35.6408 49.9965 38.9144 46.7248 42.5451C46.3845 42.9177 44.4282 45.0095 43.488 46.0147L43.0109 46.5252C43.0061 46.5302 43.0014 46.5353 42.9966 46.54C41.81 47.7336 40.696 48.717 39.5167 49.7578C39.0668 50.1548 38.6101 50.5579 38.1402 50.9812C34.9374 53.7432 31.9467 56.0038 29.6518 57.4021C29.7545 58.7179 29.2799 60.0199 28.3288 60.9719C27.6172 61.693 25.6634 62.5674 22.5242 63.5679C21.8834 63.7646 19.6848 64.4218 19.1198 64.5795C19.0624 64.5956 19.003 64.6036 18.9434 64.6036H11.2607V64.6038Z" fill="#DADADA"/>
<path d="M10.6045 65.7582C10.2421 65.7582 9.94824 65.4644 9.94824 65.102V51.9233C9.94824 51.5609 10.2421 51.2671 10.6045 51.2671C10.9669 51.2671 11.2607 51.5609 11.2607 51.9233V65.102C11.2607 65.4644 10.9669 65.7582 10.6045 65.7582Z" fill="#DADADA"/>
<path d="M72.299 81.8928H64.4624C64.1 81.8928 63.8061 81.599 63.8061 81.2366C63.8061 80.8742 64.1 80.5803 64.4624 80.5803H72.299C72.595 80.5803 72.8547 80.3805 72.8547 80.1528V3.76283C72.8547 3.52707 72.6053 3.33545 72.299 3.33545H11.8077C11.5112 3.33545 11.2609 3.53118 11.2609 3.76283V51.9234C11.2609 52.2858 10.967 52.5796 10.6046 52.5796C10.2422 52.5796 9.94836 52.2858 9.94836 51.9234V3.76283C9.94836 2.80339 10.7825 2.02295 11.8077 2.02295H72.299C73.329 2.02295 74.1672 2.80356 74.1672 3.76283V80.1528C74.167 81.1122 73.329 81.8928 72.299 81.8928Z" fill="#DADADA"/>
<path d="M64.4624 81.8927H11.8077C10.7823 81.8927 9.94836 81.1121 9.94836 80.1527V65.1019C9.94836 64.7395 10.2422 64.4457 10.6046 64.4457C10.967 64.4457 11.2609 64.7395 11.2609 65.1019V80.1527C11.2609 80.3806 11.5165 80.5802 11.8077 80.5802H64.4624C64.8248 80.5802 65.1186 80.8741 65.1186 81.2365C65.1186 81.5989 64.8248 81.8927 64.4624 81.8927ZM72.2393 21.3919C72.2365 21.3919 72.2339 21.3919 72.2309 21.3919L56.411 21.1957L11.8677 20.6334C11.5053 20.6288 11.2153 20.3312 11.2198 19.9688C11.2244 19.6066 11.525 19.3172 11.8843 19.3209L56.4276 19.8832L72.2473 20.0794C72.6097 20.0838 72.9 20.3814 72.8954 20.7438C72.8909 21.1033 72.5979 21.3919 72.2393 21.3919ZM52.2491 12.807C51.8927 12.807 51.6004 12.5215 51.5933 12.1635C51.5861 11.8011 51.8742 11.5017 52.2366 11.4947L59.7582 11.3473C59.7625 11.3472 59.7669 11.3472 59.7714 11.3472C60.1277 11.3472 60.4201 11.6325 60.4271 11.9905C60.4343 12.3529 60.1462 12.6524 59.7838 12.6595L52.2622 12.8068C52.2578 12.8068 52.2535 12.807 52.2491 12.807ZM47.4201 12.807H23.1623C22.7999 12.807 22.506 12.5132 22.506 12.1507C22.506 11.7883 22.7999 11.4945 23.1623 11.4945H47.4201C47.7825 11.4945 48.0763 11.7883 48.0763 12.1507C48.0763 12.5132 47.7825 12.807 47.4201 12.807ZM37.7013 51.1499C37.5219 51.1499 37.343 51.0767 37.2134 50.9328C36.9708 50.6634 36.9926 50.2485 37.2618 50.006C37.735 49.5798 38.195 49.1739 38.648 48.7739C39.8109 47.7476 40.9091 46.7781 42.0657 45.6147C42.3213 45.3578 42.7369 45.3568 42.9938 45.6119C43.2508 45.8676 43.2521 46.2831 42.9966 46.5401C41.81 47.7336 40.696 48.717 39.5167 49.7578C39.067 50.1548 38.6101 50.5579 38.1402 50.9812C38.0147 51.0944 37.8577 51.1499 37.7013 51.1499Z" fill="#DADADA"/>
<path d="M42.5311 46.7338C42.3706 46.7338 42.2098 46.6754 42.0834 46.5572C41.8184 46.3097 41.8043 45.8946 42.0517 45.6296L42.5312 45.1168C43.4692 44.114 45.4205 42.027 45.7526 41.6634C45.9967 41.3958 46.4121 41.377 46.6796 41.6213C46.9473 41.8655 46.966 42.2808 46.7219 42.5484C46.3846 42.9177 44.4294 45.0083 43.4897 46.0132L43.011 46.5254C42.8817 46.6637 42.7066 46.7338 42.5311 46.7338Z" fill="#DADADA"/>
<path d="M32.605 46.0241C32.4493 46.0241 32.293 45.969 32.1676 45.8569C31.8976 45.6153 31.8744 45.2004 32.1161 44.9303C38.4004 37.9053 44.1655 32.6415 49.741 28.8382C53.7769 26.1056 55.6141 25.6978 56.3501 25.6978C56.6917 25.6978 56.9432 25.7831 57.1192 25.9583C57.908 26.7469 56.8323 29.5011 54.2427 33.3262C52.6664 35.6406 49.9968 38.9141 46.725 42.5448C46.4822 42.8141 46.0675 42.8356 45.7981 42.5931C45.5289 42.3504 45.5075 41.9353 45.75 41.6663C48.9835 38.0781 51.6139 34.8542 53.157 32.5889C55.3542 29.3432 55.8966 27.7098 56.0277 27.048C55.3721 27.1743 53.7479 27.7103 50.4788 29.9238C44.994 33.6651 39.3071 38.8605 33.0946 45.8054C32.9648 45.9503 32.7852 46.0241 32.605 46.0241ZM26.5723 54.7673C26.4737 54.7673 26.3738 54.745 26.2794 54.6979C26.252 54.6843 26.2146 54.6717 26.1774 54.6636C25.8232 54.5865 25.5986 54.2369 25.6755 53.8829C25.7526 53.5288 26.1026 53.3046 26.4561 53.3808C26.6018 53.4125 26.7396 53.4606 26.8659 53.5237C27.1901 53.6857 27.3217 54.0799 27.1598 54.4039C27.0449 54.6343 26.8131 54.7673 26.5723 54.7673Z" fill="#DADADA"/>
<path d="M27.0554 55.0042C26.9489 55.0042 26.8408 54.9783 26.7409 54.9235C26.6464 54.8718 26.5487 54.8182 26.4606 54.7785C26.1302 54.6295 25.9834 54.2408 26.1325 53.9104C26.2817 53.58 26.6702 53.433 27.0007 53.5823C27.1348 53.6427 27.2604 53.7114 27.3712 53.7721C27.6891 53.9462 27.8056 54.345 27.6317 54.663C27.5123 54.8809 27.2874 55.0042 27.0554 55.0042Z" fill="#DADADA"/>
<path d="M27.4789 55.2903C27.3365 55.2903 27.1931 55.2442 27.0727 55.1492C26.9572 55.0579 26.8325 54.9782 26.7118 54.9009C26.4065 54.7057 26.3172 54.2998 26.5126 53.9947C26.7079 53.6895 27.1139 53.5999 27.4191 53.7955C27.5598 53.8854 27.7193 53.9874 27.8858 54.119C28.1703 54.3435 28.2189 54.7562 27.9944 55.0407C27.865 55.2046 27.6729 55.2903 27.4789 55.2903Z" fill="#DADADA"/>
<path d="M28.9484 57.7147C28.8358 57.7147 28.7235 57.6858 28.6224 57.628C28.445 57.5265 28.3268 57.3495 28.2985 57.1505C28.207 56.8159 28.3911 56.4612 28.724 56.351C28.7855 56.3306 28.848 56.3196 28.9095 56.3175C31.0479 55.0226 33.836 52.9308 36.8413 50.3668C36.2922 49.5417 35.6579 48.7675 34.9506 48.0596C34.2911 47.4007 33.5449 46.7878 32.7272 46.2324C30.2876 49.0842 28.2313 51.8056 26.8746 53.9783C26.8776 54.1048 26.844 54.2336 26.7703 54.3479C26.5875 54.6323 26.2222 54.7282 25.9264 54.5806C25.9221 54.5793 25.9188 54.5781 25.9182 54.5779C25.7269 54.5164 25.5743 54.3706 25.5042 54.1824C25.434 53.9942 25.454 53.7841 25.5584 53.6124C27.011 51.2225 29.3372 48.1419 32.1087 44.9388C32.3212 44.6935 32.6811 44.64 32.9553 44.8131C34.0414 45.4987 35.0249 46.2787 35.8784 47.1313C36.7917 48.0455 37.593 49.0613 38.2606 50.1511C38.4284 50.4252 38.3731 50.7807 38.1295 50.9907C34.7618 53.8946 31.6192 56.2506 29.2805 57.6244C29.1782 57.6846 29.0634 57.7147 28.9484 57.7147Z" fill="#DADADA"/>
<path d="M18.9435 64.6037C18.774 64.6037 18.6085 64.5381 18.4841 64.416C18.3166 64.2519 18.2495 64.0108 18.3079 63.7837C18.6397 62.4956 20.37 55.9953 21.861 54.5045C22.7284 53.6369 23.8733 53.1592 25.0847 53.1592C25.4539 53.1592 25.799 53.202 26.1109 53.2863L26.116 53.2875C26.208 53.3083 26.3124 53.3319 26.4267 53.3702L26.4558 53.3789C26.4663 53.382 26.4768 53.3849 26.4868 53.388C26.6139 53.4182 26.7199 53.4594 26.8092 53.4981C26.8907 53.5262 26.9626 53.5578 27.0305 53.5957C27.1204 53.6364 27.2252 53.6853 27.337 53.7506C27.3555 53.7588 27.3734 53.7677 27.3908 53.7777C27.5412 53.8633 27.699 53.9718 27.8731 54.1083C28.048 54.2335 28.2003 54.3663 28.3376 54.5138C28.9617 55.1412 29.4 55.9599 29.5726 56.8207C29.5774 56.8447 29.5808 56.8685 29.583 56.8926C29.8694 58.3759 29.4028 59.8971 28.3287 60.972C27.6172 61.6932 25.6634 62.5675 22.5242 63.568C21.8834 63.7647 19.6848 64.4219 19.1197 64.5796C19.0616 64.596 19.0023 64.6037 18.9435 64.6037ZM25.0845 54.4718C24.2237 54.4718 23.4085 54.8131 22.789 55.4328C22.0835 56.1381 20.9228 59.1712 19.8764 62.9916C20.7164 62.7427 21.7442 62.4345 22.1322 62.3153C26.1172 61.0452 27.1421 60.3059 27.3973 60.0472C28.1747 59.2692 28.5059 58.1692 28.2862 57.1021C28.2815 57.0786 28.2779 57.055 28.2757 57.0312C28.1461 56.4347 27.8367 55.8688 27.4004 55.4329C27.3942 55.4267 27.3883 55.4205 27.3824 55.4141C27.3017 55.3268 27.2092 55.2465 27.0999 55.1691C27.0907 55.1625 27.0817 55.1558 27.0728 55.1488C26.9665 55.0649 26.873 54.9983 26.7888 54.9466C26.7591 54.9337 26.7307 54.9187 26.7038 54.9018C26.6366 54.859 26.5639 54.8252 26.4607 54.7786C26.4366 54.7678 26.413 54.7553 26.3902 54.7416C26.3877 54.7407 26.38 54.7384 26.3716 54.7358C26.3493 54.7286 26.3273 54.7202 26.3058 54.7107C26.2466 54.6845 26.2094 54.6709 26.1772 54.664C26.1564 54.6594 26.1359 54.6538 26.1157 54.6472L26.0866 54.6385C26.0599 54.6307 26.0333 54.6226 26.011 54.6152C25.9588 54.5978 25.8978 54.5841 25.8269 54.568L25.8069 54.5636C25.7969 54.5613 25.7869 54.5588 25.7771 54.556C25.5751 54.5001 25.3421 54.4718 25.0845 54.4718ZM61.8503 60.4147C61.4879 60.4147 61.194 60.1208 61.194 59.7584V56.5261C61.194 56.1637 61.4879 55.8698 61.8503 55.8698C62.2127 55.8698 62.5065 56.1637 62.5065 56.5261V59.7584C62.5065 60.1208 62.2127 60.4147 61.8503 60.4147ZM56.1826 75.22C54.5047 75.22 52.9335 74.675 51.7583 73.6854C50.5287 72.6697 49.8488 71.3033 49.8488 69.8424V66.737C49.8488 66.2596 49.3144 65.8561 48.682 65.8561C48.3593 65.8561 48.0438 65.9675 47.8169 66.1616C47.6704 66.2832 47.5048 66.4756 47.5048 66.737C47.5048 68.2032 46.8322 69.5664 45.6107 70.5754C44.4142 71.5621 42.8412 72.1051 41.1809 72.1051C39.5196 72.1051 37.9464 71.5619 36.7512 70.5756C35.5288 69.5564 34.8571 68.1939 34.8571 66.737C34.8571 66.5217 34.7578 66.3303 34.5621 66.168C34.3245 65.9644 34.0141 65.8561 33.6798 65.8561C33.3569 65.8561 33.0421 65.9674 32.8162 66.161C32.6055 66.3354 32.5033 66.5267 32.5033 66.737C32.5033 68.1981 31.8351 69.5607 30.6215 70.5734C29.4109 71.5627 27.8387 72.1053 26.189 72.1053C24.4882 72.1053 22.9055 71.2804 21.4852 69.6532C20.7041 68.761 20.1707 67.8374 20.0897 67.6554C19.9418 67.3245 20.0903 66.9363 20.4212 66.7887C20.7492 66.6423 21.1331 66.7865 21.2839 67.1112C21.3488 67.2407 21.7971 68.017 22.4733 68.7892C23.6341 70.119 24.8839 70.7929 26.189 70.7929C27.5368 70.7929 28.814 70.3557 29.7858 69.5615C30.6899 68.8068 31.1908 67.8022 31.1908 66.7372C31.1908 66.1344 31.4677 65.5733 31.9707 65.1574C32.4288 64.7643 33.039 64.5438 33.6798 64.5438C34.3275 64.5438 34.9414 64.7645 35.4083 65.1649C35.8964 65.5695 36.1698 66.1305 36.1698 66.7372C36.1698 67.7978 36.6739 68.8024 37.5894 69.5656C38.5475 70.3562 39.8241 70.7928 41.1812 70.7928C42.5375 70.7928 43.8141 70.3562 44.7757 69.5633C45.6892 68.8084 46.1927 67.8045 46.1927 66.737C46.1927 66.1355 46.4693 65.5746 46.9718 65.1579C47.4322 64.7641 48.0421 64.5436 48.6825 64.5436C50.0496 64.5436 51.1618 65.5275 51.1618 66.737V69.8424C51.1618 70.9048 51.6723 71.9115 52.5996 72.6774C53.5432 73.4721 54.8141 73.9075 56.1831 73.9075C58.9464 73.9075 61.1945 72.084 61.1945 69.8424V61.8481C61.1945 61.4857 61.4884 61.1918 61.8508 61.1918C62.2132 61.1918 62.507 61.4857 62.507 61.8481V69.8424C62.5065 72.8076 59.6696 75.22 56.1826 75.22Z" fill="#DADADA"/>
</svg>
