<svg width="84" height="84" viewBox="0 0 84 84" fill="none" xmlns="http://www.w3.org/2000/svg">
<g clip-path="url(#clip0_571_307)">
<path d="M18.375 65.625C16.45 65.625 14.875 64.05 14.875 62.125C14.875 60.2 16.45 58.625 18.375 58.625C20.3 58.625 21.875 60.2 21.875 62.125C21.875 64.05 20.3 65.625 18.375 65.625ZM18.375 60.375C17.325 60.375 16.625 61.075 16.625 62.125C16.625 63.175 17.325 63.875 18.375 63.875C19.425 63.875 20.125 63.175 20.125 62.125C20.125 61.075 19.425 60.375 18.375 60.375ZM38.5 65.625H24.5C24.15 65.625 23.8 65.45 23.625 65.1C23.45 64.75 23.625 64.4 23.8 64.225L27.125 60.9V59.5C27.125 58.1 28.35 56.875 29.75 56.875H38.5C39.9 56.875 41.125 58.1 41.125 59.5V63C41.125 64.4 39.9 65.625 38.5 65.625ZM26.6 63.875H38.5C39.025 63.875 39.375 63.525 39.375 63V59.5C39.375 58.975 39.025 58.625 38.5 58.625H29.75C29.225 58.625 28.875 58.975 28.875 59.5V61.25C28.875 61.425 28.7 61.775 28.7 61.95L26.6 63.875ZM63.875 55.125C61.95 55.125 60.375 53.55 60.375 51.625C60.375 49.7 61.95 48.125 63.875 48.125C65.8 48.125 67.375 49.7 67.375 51.625C67.375 53.55 65.8 55.125 63.875 55.125ZM63.875 49.875C62.825 49.875 62.125 50.575 62.125 51.625C62.125 52.675 62.825 53.375 63.875 53.375C64.925 53.375 65.625 52.675 65.625 51.625C65.625 50.575 64.925 49.875 63.875 49.875ZM57.75 55.125H35C33.6 55.125 32.375 53.9 32.375 52.5V45.5C32.375 44.1 33.6 42.875 35 42.875H52.5C53.9 42.875 55.125 44.1 55.125 45.5V50.4L58.45 53.725C58.625 53.9 58.8 54.425 58.625 54.6C58.45 54.95 58.1 55.125 57.75 55.125ZM35 44.625C34.475 44.625 34.125 44.975 34.125 45.5V52.5C34.125 53.025 34.475 53.375 35 53.375H55.65L53.725 51.45C53.55 51.275 53.55 51.1 53.55 50.75V45.5C53.55 44.975 53.2 44.625 52.675 44.625H35Z" fill="#DADADA"/>
<path d="M50.75 48.125H36.75C36.225 48.125 35.875 47.775 35.875 47.25C35.875 46.725 36.225 46.375 36.75 46.375H50.75C51.275 46.375 51.625 46.725 51.625 47.25C51.625 47.775 51.275 48.125 50.75 48.125ZM45.5 51.625H36.75C36.225 51.625 35.875 51.275 35.875 50.75C35.875 50.225 36.225 49.875 36.75 49.875H45.5C46.025 49.875 46.375 50.225 46.375 50.75C46.375 51.275 46.025 51.625 45.5 51.625ZM33.25 62.125H31.5C30.975 62.125 30.625 61.775 30.625 61.25C30.625 60.725 30.975 60.375 31.5 60.375H33.25C33.775 60.375 34.125 60.725 34.125 61.25C34.125 61.775 33.775 62.125 33.25 62.125ZM36.75 62.125H36.4C36.225 62.125 36.225 61.95 36.05 61.95C35.875 61.95 35.875 61.775 35.875 61.6V61.25V60.9C35.875 60.725 36.05 60.725 36.05 60.55C36.225 60.375 36.75 60.2 36.925 60.375C37.1 60.375 37.1 60.55 37.275 60.55C37.45 60.55 37.45 60.725 37.45 60.9V61.25C37.45 61.425 37.275 61.775 37.1 61.775C37.275 62.125 36.925 62.125 36.75 62.125ZM63.875 27.125C61.95 27.125 60.375 25.55 60.375 23.625C60.375 21.7 61.95 20.125 63.875 20.125C65.8 20.125 67.375 21.7 67.375 23.625C67.375 25.55 65.8 27.125 63.875 27.125ZM63.875 21.875C62.825 21.875 62.125 22.575 62.125 23.625C62.125 24.675 62.825 25.375 63.875 25.375C64.925 25.375 65.625 24.675 65.625 23.625C65.625 22.575 64.925 21.875 63.875 21.875ZM57.75 27.125H43.75C42.35 27.125 41.125 25.9 41.125 24.5V21C41.125 19.6 42.35 18.375 43.75 18.375H52.5C53.9 18.375 55.125 19.6 55.125 21V22.4L58.45 25.725C58.625 25.9 58.8 26.425 58.625 26.6C58.45 26.95 58.1 27.125 57.75 27.125ZM43.75 20.125C43.225 20.125 42.875 20.475 42.875 21V24.5C42.875 25.025 43.225 25.375 43.75 25.375H55.65L53.725 23.45C53.55 23.275 53.55 23.1 53.55 22.75V21C53.55 20.475 53.2 20.125 52.675 20.125H43.75Z" fill="#DADADA"/>
<path d="M50.75 23.625H45.5C44.975 23.625 44.625 23.275 44.625 22.75C44.625 22.225 44.975 21.875 45.5 21.875H50.75C51.275 21.875 51.625 22.225 51.625 22.75C51.625 23.275 51.275 23.625 50.75 23.625ZM18.375 41.125C16.45 41.125 14.875 39.55 14.875 37.625C14.875 35.7 16.45 34.125 18.375 34.125C20.3 34.125 21.875 35.7 21.875 37.625C21.875 39.55 20.3 41.125 18.375 41.125ZM18.375 35.875C17.325 35.875 16.625 36.575 16.625 37.625C16.625 38.675 17.325 39.375 18.375 39.375C19.425 39.375 20.125 38.675 20.125 37.625C20.125 36.575 19.425 35.875 18.375 35.875ZM49 41.125H24.5C24.15 41.125 23.8 40.95 23.625 40.6C23.45 40.25 23.625 39.9 23.8 39.725L27.125 36.4V31.5C27.125 30.1 28.35 28.875 29.75 28.875H49C50.4 28.875 51.625 30.1 51.625 31.5V38.5C51.625 39.9 50.4 41.125 49 41.125ZM26.6 39.375H49C49.525 39.375 49.875 39.025 49.875 38.5V31.5C49.875 30.975 49.525 30.625 49 30.625H29.75C29.225 30.625 28.875 30.975 28.875 31.5V36.75C28.875 36.925 28.7 37.275 28.7 37.45L26.6 39.375Z" fill="#DADADA"/>
<path d="M47.25 34.125H31.5C30.975 34.125 30.625 33.775 30.625 33.25C30.625 32.725 30.975 32.375 31.5 32.375H47.25C47.775 32.375 48.125 32.725 48.125 33.25C48.125 33.775 47.775 34.125 47.25 34.125ZM47.25 37.625H31.5C30.975 37.625 30.625 37.275 30.625 36.75C30.625 36.225 30.975 35.875 31.5 35.875H47.25C47.775 35.875 48.125 36.225 48.125 36.75C48.125 37.275 47.775 37.625 47.25 37.625Z" fill="#DADADA"/>
<path d="M42 84C18.9 84 0 65.1 0 42C0 18.9 18.9 0 42 0C65.1 0 84 18.9 84 42C84 65.1 65.1 84 42 84ZM42 1.75C19.775 1.75 1.75 19.775 1.75 42C1.75 64.225 19.775 82.25 42 82.25C64.225 82.25 82.25 64.225 82.25 42C82.25 19.775 64.225 1.75 42 1.75Z" fill="#DADADA"/>
</g>
<defs>
<clipPath id="clip0_571_307">
<rect width="84" height="84" fill="white"/>
</clipPath>
</defs>
</svg>
