<svg width="84" height="84" viewBox="0 0 84 84" fill="none" xmlns="http://www.w3.org/2000/svg">
<path d="M76.4531 6.72663V21.3774C76.8632 21.1395 77.2734 20.9016 77.6835 20.6719C75.7558 19.2692 73.0652 19.1708 71.039 20.4341C69.1851 21.5907 68.0449 23.7399 68.2089 25.9383C68.3156 27.3657 68.9062 28.67 69.8824 29.7118V28.5551C69.1359 29.3016 68.3976 30.0481 67.6511 30.7946C65.8628 32.5829 64.0746 34.3794 62.2863 36.1676C60.1371 38.3251 57.9796 40.4825 55.8304 42.6399C53.9601 44.5184 52.0898 46.3887 50.2195 48.2673L48.3738 50.113C48.0867 50.4001 47.7503 50.679 47.4879 50.9989C47.4796 51.0153 47.4632 51.0235 47.4468 51.0399H48.6035C47.3566 49.7602 45.5601 49.0465 43.7718 49.227C42.9023 49.309 42.0656 49.5551 41.3109 49.9899C40.9336 50.2032 40.5808 50.4657 40.2609 50.7528C40.1132 50.8841 39.9656 51.0317 39.8343 51.1794C39.7687 51.2532 39.7031 51.3352 39.6375 51.409C39.6128 51.4419 39.3257 51.77 39.4898 51.6059C39.8179 51.5649 40.1543 51.5239 40.4824 51.4747C39.0714 50.3837 37.6523 49.2926 36.2414 48.2016C34.0019 46.4708 31.7625 44.7481 29.523 43.0173C29.0062 42.6235 28.4894 42.2215 27.9726 41.8278C28.0711 42.2051 28.1695 42.5743 28.2679 42.9516C28.7929 42.0739 29.1867 41.229 29.3179 40.1954C29.4246 39.3423 29.3425 38.4481 29.0636 37.6278C28.5304 36.061 27.3656 34.7239 25.848 34.0512C22.5914 32.5993 18.7195 34.3219 17.6449 37.7344C16.9886 39.8344 17.5957 42.1395 19.105 43.7145V42.5579C17.2511 44.543 15.4054 46.52 13.5515 48.5051C13.2808 48.7923 13.0183 49.0794 12.7476 49.3665H13.9043C11.8125 47.4469 8.61324 47.168 6.29176 48.8497C6.70191 49.0876 7.11207 49.3255 7.52222 49.5551V8.47389C7.52222 7.92428 7.56324 7.35827 7.52222 6.80866V6.73483L6.70191 7.55514H74.3777C75.2882 7.55514 76.207 7.57155 77.1175 7.55514H77.2406C78.2988 7.55514 78.2988 5.91452 77.2406 5.91452H9.5648C8.65426 5.91452 7.73551 5.89811 6.82496 5.91452H6.70191C6.25894 5.91452 5.8816 6.29186 5.8816 6.73483V44.2887C5.8816 46.0114 5.82418 47.7505 5.8816 49.4731V49.5469C5.8816 50.1212 6.59527 50.6297 7.11207 50.2524C8.82652 49.0055 11.1562 49.0548 12.7394 50.5067C13.0593 50.802 13.5843 50.843 13.8961 50.5067C15.75 48.5215 17.5957 46.5446 19.4496 44.5594C19.7203 44.2723 19.9828 43.9852 20.2535 43.6981C20.557 43.37 20.5734 42.8696 20.2535 42.5415C18.3257 40.5399 18.7277 37.1848 21.1312 35.7493C23.3543 34.4286 26.2992 35.3801 27.3492 37.7426C27.6281 38.3825 27.7429 39.0798 27.7019 39.7688C27.6527 40.663 27.2836 41.3602 26.8406 42.1067C26.5945 42.5251 26.7832 42.9598 27.1359 43.2305C28.5468 44.3215 29.966 45.4126 31.3769 46.5036C33.6164 48.2344 35.8558 49.9571 38.0953 51.688C38.6121 52.0817 39.1289 52.4837 39.6457 52.8774C39.9328 53.0989 40.4086 52.9841 40.6382 52.7462C40.8515 52.5329 41.0156 52.2704 41.2289 52.0571C41.4503 51.8356 41.6964 51.6469 41.9671 51.4747C42.5085 51.1383 43.1238 50.9087 43.7636 50.843C45.1418 50.6872 46.4789 51.1958 47.4386 52.1801C47.7503 52.5001 48.2918 52.4919 48.5953 52.1801C49.3418 51.4337 50.08 50.6872 50.8265 49.9407C52.6148 48.1524 54.4031 46.3559 56.1914 44.5676C58.3406 42.4102 60.498 40.2528 62.6472 38.0954C64.5175 36.2169 66.3878 34.3465 68.2582 32.468C69.1687 31.5575 70.1121 30.6798 70.9816 29.7364C70.9898 29.72 71.0062 29.7118 71.0226 29.6954C71.3425 29.3755 71.3261 28.8587 71.0226 28.5387C69.4968 26.9227 69.3984 24.3141 70.8996 22.6407C72.45 20.9262 74.9765 20.7294 76.8304 22.0829C77.3472 22.4602 78.0609 21.9516 78.0609 21.3774V6.72663C78.0937 5.67663 76.4531 5.66842 76.4531 6.72663Z" fill="#DADADA"/>
<path d="M76.4531 29.6787V75.3291C76.4531 75.9443 76.4121 76.576 76.4531 77.1912V77.2732L77.2734 76.4529H9.59763C8.68709 76.4529 7.76833 76.4119 6.85779 76.4529H6.73474L7.55505 77.2732V57.8564C7.1449 58.0943 6.73474 58.3322 6.32458 58.5619C8.26873 59.9646 10.984 60.0631 13.0101 58.767C14.8969 57.5611 16.0289 55.3381 15.7746 53.0986C15.6105 51.6631 14.9789 50.3506 13.9371 49.3498V50.5064C15.791 48.5295 17.6367 46.5443 19.4906 44.5674C19.7613 44.2803 20.0238 43.9932 20.2945 43.7061H19.1379C20.4176 44.9775 22.2304 45.6584 24.0351 45.4451C25.6511 45.2564 27.4312 44.3787 28.3008 42.935C27.9234 43.0334 27.5543 43.1318 27.1769 43.2303C28.5879 44.3213 30.007 45.4123 31.4179 46.5033C33.6574 48.2342 35.8969 49.9568 38.1445 51.6877C38.6613 52.0814 39.1781 52.4834 39.6949 52.8771C39.6375 52.4506 39.5883 52.0158 39.5308 51.5893C39.2191 51.901 39.0058 52.385 38.8336 52.7869C38.6285 53.2627 38.4808 53.7549 38.407 54.2717C38.2758 55.1822 38.3332 56.1174 38.6121 56.9951C39.1289 58.5865 40.3101 59.9482 41.8441 60.6291C43.4683 61.3428 45.2812 61.3264 46.8972 60.5881C48.3984 59.8908 49.5551 58.5209 50.0472 56.9459C50.6953 54.8705 50.1129 52.6064 48.6445 51.0314V52.1881C49.391 51.4416 50.1293 50.6951 50.8758 49.9486C52.664 48.1521 54.4523 46.3639 56.2406 44.5674C58.3898 42.41 60.5472 40.2525 62.6965 38.0951C64.5668 36.2166 66.4371 34.3463 68.3074 32.4678L70.1531 30.6221C70.4402 30.335 70.7765 30.0561 71.039 29.7361C71.0472 29.7197 71.0637 29.7115 71.0801 29.6951H69.9234C71.9824 31.7787 75.3293 32.115 77.7246 30.3842C78.0855 30.1217 78.2578 29.6705 78.0199 29.2604C77.8148 28.9076 77.257 28.7025 76.8961 28.965C75.0914 30.2775 72.6633 30.1381 71.0883 28.5385C70.7765 28.2268 70.2433 28.2268 69.9316 28.5385C69.1851 29.285 68.4468 30.0314 67.7004 30.7779C65.9121 32.5744 64.1238 34.3627 62.3355 36.1592C60.1863 38.3166 58.0289 40.474 55.8797 42.6314C54.0094 44.51 52.139 46.3803 50.2687 48.2588C49.3582 49.1693 48.4148 50.0471 47.5453 50.9904C47.5371 51.0068 47.5207 51.015 47.5043 51.0314C47.1843 51.3514 47.2008 51.8682 47.5043 52.1881C49.3582 54.1814 48.948 57.4627 46.6101 58.89C44.4035 60.2354 41.516 59.333 40.3922 57.0279C40.0969 56.4127 39.9656 55.7236 39.9902 55.0428C39.9984 54.5916 40.0886 54.1568 40.2363 53.7385C40.3019 53.558 40.3758 53.3857 40.466 53.2135C40.507 53.1396 40.548 53.0576 40.589 52.9838C40.6136 52.9346 40.8515 52.6229 40.7121 52.7623C41.1222 52.3521 40.9582 51.7861 40.548 51.4744C39.1371 50.3834 37.7179 49.2924 36.307 48.2014C34.0676 46.4705 31.8281 44.7479 29.5804 43.017C29.0636 42.6232 28.5469 42.2213 28.0301 41.8275C27.6773 41.5568 27.1113 41.7783 26.9062 42.1229C26.332 43.0826 25.0113 43.7143 23.9367 43.8373C22.5914 43.985 21.2789 43.5092 20.3273 42.5658C20.0238 42.2623 19.4742 42.2377 19.1707 42.5658C17.3168 44.5428 15.4711 46.5279 13.6172 48.5049C13.3465 48.792 13.084 49.0791 12.8133 49.3662C12.5179 49.6861 12.4851 50.2111 12.8133 50.5229C14.4457 52.0896 14.7082 54.7639 13.1824 56.5111C11.6402 58.2912 9.08084 58.5291 7.18591 57.1592C6.66912 56.7818 5.95544 57.2904 5.95544 57.8646V77.2814C5.95544 77.7244 6.33279 78.1018 6.77576 78.1018H74.4515C75.3621 78.1018 76.2808 78.1182 77.1914 78.1018H77.3144C77.7574 78.1018 78.1347 77.7244 78.1347 77.2814V35.5521C78.1347 33.6326 78.1922 31.6967 78.1347 29.7689V29.6869C78.0937 28.6287 76.4531 28.6205 76.4531 29.6787Z" fill="#DADADA"/>
<path d="M14.1586 53.6975C14.1422 55.3299 13.248 56.8065 11.7961 57.5693C10.1965 58.4061 8.1539 58.119 6.8414 56.8803C5.50429 55.617 5.06132 53.599 5.83242 51.9092C6.62812 50.1701 8.49843 49.1201 10.3934 49.3744C12.5508 49.6615 14.134 51.5565 14.1586 53.6975C14.175 54.7557 15.8156 54.7557 15.7992 53.6975C15.7664 51.1135 14.1176 48.8166 11.6566 47.9963C9.13008 47.1596 6.34101 48.185 4.83984 50.3424C3.39609 52.426 3.51093 55.3299 5.04492 57.3232C6.5707 59.3084 9.27773 60.1943 11.673 59.3822C14.1176 58.5537 15.7664 56.265 15.791 53.6893C15.8156 52.6393 14.175 52.6393 14.1586 53.6975ZM78.5367 25.5279C78.5121 27.4311 77.2734 29.1537 75.4359 29.6951C73.6805 30.2119 71.6625 29.5639 70.6207 28.0217C69.6199 26.5369 69.5789 24.6174 70.5633 23.108C71.4656 21.7217 73.1555 20.9834 74.7879 21.2049C76.9371 21.5084 78.5121 23.3869 78.5367 25.5279C78.5531 26.5861 80.1937 26.5861 80.1773 25.5279C80.1445 22.9358 78.4711 20.6143 75.9937 19.8104C73.7789 19.0967 71.2195 19.8022 69.6937 21.5658C68.9145 22.4651 68.4167 23.5735 68.2621 24.7534C68.1075 25.9332 68.303 27.1325 68.8242 28.2022C69.9562 30.5236 72.5566 31.8115 75.0832 31.4424C78.0035 31.024 80.1363 28.4401 80.1773 25.5279C80.1937 24.4697 78.5531 24.4697 78.5367 25.5279Z" fill="#DADADA"/>
</svg>
