<svg width="44" height="44" viewBox="0 0 44 44" fill="none" xmlns="http://www.w3.org/2000/svg">
<g clip-path="url(#clip0_1167_546)">
<path opacity="0.7" d="M17.4575 27.8648C17.1064 27.2503 16.6373 26.7113 16.0771 26.2788C15.5169 25.8463 14.8767 25.5289 14.1933 25.3447C13.51 25.1606 12.797 25.1134 12.0953 25.2058C11.3937 25.2983 10.7172 25.5285 10.1049 25.8834C8.86963 26.6059 7.96984 27.7872 7.60141 29.17C7.23299 30.5529 7.42577 32.0253 8.13777 33.2666C8.48888 33.8811 8.95803 34.4201 9.51823 34.8526C10.0784 35.2851 10.7186 35.6025 11.402 35.7867C12.0853 35.9708 12.7983 36.018 13.5 35.9256C14.2016 35.8331 14.8781 35.6029 15.4904 35.248C16.7259 34.5256 17.6258 33.3443 17.9943 31.9614C18.3627 30.5785 18.1698 29.1061 17.4575 27.8648ZM14.8434 34.133C14.3779 34.4027 13.8637 34.5776 13.3303 34.6477C12.797 34.7178 12.255 34.6817 11.7356 34.5415C11.2163 34.4013 10.7298 34.1597 10.3042 33.8307C9.87855 33.5018 9.52221 33.0918 9.25565 32.6246C8.71271 31.679 8.56531 30.5572 8.84555 29.5034C9.12579 28.4496 9.81097 27.5492 10.7519 26.9982C11.2174 26.7286 11.7316 26.5537 12.265 26.4836C12.7984 26.4135 13.3404 26.4496 13.8597 26.5898C14.3791 26.73 14.8656 26.9716 15.2912 27.3006C15.7168 27.6296 16.0732 28.0395 16.3397 28.5068C16.8826 29.4524 17.03 30.5742 16.7498 31.628C16.4695 32.6817 15.7843 33.582 14.8434 34.133ZM23.2283 32.0392C23.3651 31.0627 23.3653 30.072 23.2289 29.0955C23.2248 29.0595 23.2302 29.0232 23.2445 28.99C23.2587 28.9567 23.2814 28.9278 23.3103 28.9061L25.0174 27.5661C25.3004 27.3419 25.4938 27.0239 25.5627 26.6696C25.6315 26.3152 25.5714 25.9479 25.393 25.6341L23.3503 22.078C23.1683 21.7635 22.879 21.5252 22.5354 21.4069C22.1919 21.2885 21.8172 21.2981 21.4801 21.4338L19.4835 22.2453C19.45 22.2596 19.4133 22.2649 19.3771 22.2606C19.3409 22.2563 19.3065 22.2425 19.2773 22.2207C18.5063 21.6161 17.6546 21.1223 16.7469 20.7535C16.7135 20.7391 16.6845 20.7162 16.6627 20.6871C16.6409 20.658 16.6271 20.6237 16.6226 20.5876L16.321 18.4283C16.2695 18.0696 16.0908 17.7414 15.8174 17.5035C15.5441 17.2656 15.1943 17.1339 14.832 17.1325L10.7572 17.1313C10.3946 17.1325 10.0444 17.2642 9.77086 17.5023C9.49728 17.7403 9.31852 18.0689 9.26725 18.428L8.96707 20.585C8.96264 20.6211 8.94884 20.6554 8.92704 20.6845C8.90524 20.7137 8.8762 20.7366 8.84281 20.751C8.39012 20.9357 7.95076 21.1514 7.52788 21.3968C7.10565 21.6419 6.70084 21.9159 6.31633 22.2168C6.28706 22.2388 6.25251 22.2527 6.21616 22.2571C6.1798 22.2616 6.14292 22.2564 6.10922 22.242L4.11074 21.4289C3.77356 21.2929 3.39863 21.2832 3.05488 21.4016C2.71113 21.52 2.42167 21.7585 2.23971 22.0733L0.199556 25.6273C0.0214076 25.9411 -0.0386378 26.3083 0.0302655 26.6625C0.0991688 27.0167 0.292478 27.3347 0.575274 27.5588L2.28595 28.902C2.31483 28.9239 2.3375 28.953 2.35171 28.9864C2.36592 29.0197 2.37119 29.0562 2.36699 29.0922C2.2302 30.0687 2.23 31.0594 2.36638 32.0359C2.37047 32.0718 2.36511 32.1082 2.35084 32.1414C2.33656 32.1746 2.31387 32.2035 2.285 32.2252L0.577852 33.5652C0.294955 33.7895 0.101602 34.1075 0.0327412 34.4618C-0.0361195 34.8162 0.0240563 35.1835 0.202391 35.4973L2.24495 39.0534C2.42695 39.3679 2.71631 39.6062 3.05989 39.7246C3.40347 39.8429 3.77822 39.8333 4.1153 39.6976L6.11188 38.8862C6.14539 38.8718 6.18209 38.8665 6.21829 38.8708C6.2545 38.8751 6.28893 38.8888 6.31813 38.9106C7.08906 39.5152 7.94072 40.0091 8.84839 40.3779C8.88179 40.3923 8.91084 40.4152 8.93265 40.4443C8.95447 40.4734 8.96829 40.5077 8.97274 40.5438L9.27438 42.7031C9.32586 43.0618 9.50458 43.39 9.77794 43.6279C10.0513 43.8658 10.4011 43.9975 10.7634 43.9989L14.8381 44.0001C15.2008 43.9989 15.5509 43.8672 15.8245 43.6291C16.0981 43.391 16.2768 43.0624 16.328 42.7034L16.6282 40.5464C16.6327 40.5103 16.6465 40.4759 16.6683 40.4468C16.6901 40.4177 16.7192 40.3948 16.7526 40.3803C17.6585 40.0109 18.5088 39.5177 19.2791 38.9146C19.3084 38.8926 19.3429 38.8787 19.3793 38.8742C19.4156 38.8698 19.4525 38.875 19.4862 38.8893L21.4844 39.7025C21.8216 39.8385 22.1965 39.8482 22.5403 39.7298C22.8841 39.6114 23.1736 39.3729 23.3555 39.0581L25.3956 35.5041C25.5254 35.2777 25.5935 35.0211 25.5931 34.7601C25.5936 34.5317 25.5424 34.3061 25.4431 34.1004C25.3438 33.8947 25.1992 33.7142 25.02 33.5725L23.3094 32.2294C23.2804 32.2076 23.2577 32.1785 23.2434 32.1451C23.2292 32.1117 23.224 32.0752 23.2283 32.0392ZM22.5133 33.2433L24.224 34.5864C24.2644 34.6185 24.292 34.6639 24.3019 34.7145C24.3117 34.7651 24.3031 34.8175 24.2777 34.8624L22.2377 38.4164C22.2117 38.4614 22.1703 38.4954 22.1212 38.5124C22.0721 38.5293 22.0185 38.5279 21.9704 38.5085L19.9719 37.6953C19.7278 37.5957 19.4619 37.5621 19.2007 37.598C18.9396 37.6339 18.6925 37.7379 18.4843 37.8996C17.808 38.4291 17.0615 38.8622 16.2661 39.1866C16.0237 39.2866 15.8117 39.4484 15.6512 39.6558C15.4908 39.8632 15.3875 40.109 15.3515 40.3687L15.0514 42.5258C15.0441 42.5771 15.0185 42.624 14.9794 42.6581C14.9403 42.6921 14.8903 42.7109 14.8385 42.7111L10.7638 42.7099C10.712 42.7097 10.662 42.6909 10.623 42.6569C10.5839 42.6229 10.5583 42.576 10.551 42.5247L10.2493 40.3654C10.2133 40.1056 10.1097 39.8598 9.9491 39.6525C9.78846 39.4452 9.5763 39.2836 9.33377 39.1838C8.53736 38.8602 7.79009 38.4269 7.11366 37.8964C6.90562 37.7346 6.65861 37.6305 6.39752 37.5946C6.13644 37.5587 5.8705 37.5923 5.62651 37.6919L3.63001 38.5034C3.58184 38.5228 3.52829 38.5242 3.4792 38.5072C3.4301 38.4903 3.38875 38.4563 3.36274 38.4113L1.32027 34.8553C1.30173 34.8229 1.29201 34.7862 1.29208 34.7489C1.29197 34.7163 1.29928 34.6841 1.31346 34.6547C1.32763 34.6253 1.34829 34.5995 1.37389 34.5792L3.08104 33.2393C3.28712 33.078 3.44742 32.8656 3.54602 32.6232C3.64462 32.3808 3.67807 32.1168 3.64307 31.8575C3.52322 30.9994 3.52343 30.1288 3.64367 29.2708C3.67873 29.0113 3.64535 28.7472 3.54683 28.5047C3.44832 28.2621 3.2881 28.0496 3.08207 27.888L1.3714 26.5449C1.33102 26.5129 1.30341 26.4675 1.29356 26.4169C1.28371 26.3663 1.29227 26.3139 1.31769 26.2691L3.35784 22.7149C3.38386 22.67 3.4252 22.636 3.4743 22.6191C3.5234 22.6021 3.57694 22.6035 3.62511 22.6229L5.6235 23.4361C5.86755 23.5357 6.13353 23.5692 6.39468 23.5334C6.65582 23.4975 6.90291 23.3935 7.11108 23.2318C7.78742 22.7022 8.53397 22.2691 9.32938 21.9448C9.57178 21.8448 9.78376 21.683 9.94421 21.4756C10.1047 21.2683 10.208 21.0224 10.2439 20.7627L10.5441 18.6056C10.5514 18.5543 10.577 18.5074 10.616 18.4734C10.6551 18.4394 10.7051 18.4206 10.7569 18.4204L14.8316 18.4215C14.8834 18.4217 14.9334 18.4405 14.9724 18.4745C15.0115 18.5085 15.037 18.5554 15.0444 18.6066L15.346 20.766C15.3821 21.0258 15.4856 21.2716 15.6463 21.4789C15.8069 21.6863 16.0191 21.8479 16.2616 21.9477C17.0581 22.2713 17.8054 22.7046 18.4818 23.235C18.6899 23.3968 18.9368 23.5009 19.1979 23.5368C19.459 23.5727 19.7249 23.5391 19.9689 23.4396L21.9655 22.6281C22.0136 22.6087 22.0672 22.6073 22.1163 22.6242C22.1653 22.6411 22.2067 22.6751 22.2327 22.72L24.2752 26.2761C24.3007 26.321 24.3092 26.3734 24.2994 26.424C24.2896 26.4747 24.262 26.5201 24.2216 26.5521L22.5145 27.8921C22.3084 28.0533 22.1481 28.2657 22.0495 28.5081C21.9509 28.7505 21.9174 29.0145 21.9524 29.2739C22.0722 30.132 22.072 31.0026 21.9518 31.8606C21.9167 32.12 21.9501 32.3841 22.0487 32.6267C22.1472 32.8693 22.3073 33.0818 22.5133 33.2433ZM33.743 22.826C33.4509 23.162 33.2445 23.5638 33.1414 23.997C33.0384 24.4301 33.0417 24.8818 33.1512 25.3133C33.2606 25.7449 33.4729 26.1436 33.77 26.4753C34.067 26.807 34.4399 27.0618 34.8569 27.218C35.2738 27.3743 35.7224 27.4272 36.1642 27.3724C36.6061 27.3176 37.0281 27.1566 37.3942 26.9032C37.7603 26.6498 38.0596 26.3116 38.2666 25.9174C38.4736 25.5231 38.582 25.0847 38.5827 24.6394C38.5827 24.5742 38.5804 24.5087 38.5758 24.4429C38.5378 23.8987 38.3392 23.3781 38.0052 22.9468C37.6713 22.5155 37.2169 22.1929 36.6996 22.0198C36.1823 21.8467 35.6253 21.8309 35.0991 21.9744C34.5728 22.1179 34.1009 22.4143 33.743 22.826ZM36.7882 23.5267C36.9705 23.6852 37.1109 23.8862 37.197 24.1119C37.2831 24.3376 37.3121 24.5811 37.2816 24.8207C37.2511 25.0603 37.162 25.2887 37.0222 25.4857C36.8823 25.6827 36.6961 25.8421 36.4799 25.9499C36.2637 26.0577 36.0243 26.1105 35.7828 26.1036C35.5414 26.0968 35.3053 26.0305 35.0956 25.9106C34.8859 25.7908 34.7089 25.621 34.5805 25.4165C34.452 25.2119 34.376 24.9788 34.3591 24.7378C34.3566 24.7028 34.3554 24.6679 34.3554 24.6332C34.355 24.2795 34.4831 23.9378 34.7158 23.6716C34.9717 23.378 35.3336 23.1978 35.7221 23.1706C36.1106 23.1435 36.494 23.2715 36.7882 23.5267ZM19.5101 11.247C19.7495 11.666 20.0695 12.0335 20.4515 12.3283C20.8335 12.6232 21.2701 12.8396 21.7361 12.9652C22.202 13.0907 22.6882 13.1228 23.1667 13.0597C23.6451 12.9967 24.1064 12.8396 24.5239 12.5976C25.366 12.1054 25.9795 11.3003 26.2306 10.3578C26.4818 9.41532 26.3504 8.41174 25.865 7.56572C25.6255 7.14673 25.3055 6.77924 24.9235 6.48436C24.5415 6.18949 24.1049 5.97306 23.639 5.84754C23.173 5.72201 22.6868 5.68985 22.2083 5.75292C21.7299 5.81599 21.2686 5.97304 20.8511 6.21503C20.0092 6.70744 19.3959 7.51251 19.1447 8.45496C18.8935 9.39741 19.0249 10.4009 19.5101 11.247ZM23.2978 7.09074C23.6014 7.17149 23.8859 7.31184 24.1347 7.50362C24.3836 7.69539 24.5918 7.93475 24.7472 8.20775C25.0633 8.75809 25.1492 9.41102 24.9861 10.0244C24.8231 10.6377 24.4244 11.1619 23.8768 11.4827C23.6061 11.6394 23.3071 11.7411 22.9969 11.7818C22.6868 11.8225 22.3716 11.8015 22.0696 11.7199C21.7677 11.6383 21.4848 11.4978 21.2374 11.3064C20.9899 11.1151 20.7828 10.8767 20.6278 10.6049C20.3118 10.0546 20.2259 9.40164 20.3889 8.78828C20.5519 8.17493 20.9506 7.6508 21.4982 7.32999C21.7673 7.17274 22.065 7.07061 22.3739 7.02953C22.6829 6.98846 22.997 7.00926 23.2978 7.09074ZM20.0356 1.29718L19.8836 2.38927C19.8782 2.42627 19.8634 2.46124 19.8404 2.49076C19.8175 2.52028 19.7873 2.54335 19.7527 2.55771C19.4863 2.6732 19.2269 2.80413 18.9757 2.94984C18.7252 3.09524 18.4834 3.25507 18.2515 3.42851C18.2217 3.45148 18.1865 3.46629 18.1493 3.47149C18.1121 3.47669 18.0741 3.4721 18.0392 3.45816L17.0324 3.0485C16.6952 2.91247 16.3202 2.90276 15.9765 3.02115C15.6327 3.13953 15.3432 3.37806 15.1613 3.69286L13.9981 5.71926C13.8199 6.03306 13.7598 6.40025 13.8287 6.75448C13.8975 7.10872 14.0908 7.42664 14.3737 7.65079L15.2408 8.33168C15.269 8.35335 15.2912 8.38183 15.3054 8.41445C15.3196 8.44706 15.3253 8.48275 15.3219 8.51816C15.2519 9.10409 15.2513 9.69623 15.3202 10.2823C15.3248 10.319 15.3199 10.3564 15.3059 10.3907C15.2919 10.425 15.2693 10.4551 15.2403 10.4781L14.3755 11.1568C14.0926 11.381 13.8992 11.699 13.8303 12.0533C13.7614 12.4077 13.8216 12.775 14 13.0888L15.165 15.1167C15.347 15.4312 15.6363 15.6695 15.9799 15.7879C16.3235 15.9062 16.6982 15.8966 17.0353 15.7609L18.041 15.3522C18.0758 15.3382 18.1135 15.3336 18.1506 15.3387C18.1877 15.3438 18.2228 15.3585 18.2524 15.3813C18.718 15.73 19.2229 16.0228 19.7569 16.2535C19.7913 16.2678 19.8215 16.2909 19.8444 16.3204C19.8673 16.3499 19.8822 16.3848 19.8876 16.4217L20.0404 17.5157C20.0919 17.8744 20.2706 18.2026 20.544 18.4404C20.8173 18.6783 21.1671 18.8099 21.5294 18.8114L23.8496 18.8121C24.2123 18.8109 24.5624 18.6792 24.8359 18.4411C25.1095 18.203 25.2883 17.8745 25.3395 17.5155L25.4915 16.4234C25.4969 16.3864 25.5117 16.3514 25.5347 16.3219C25.5576 16.2924 25.5878 16.2693 25.6223 16.2549C26.1549 16.0241 26.6588 15.7319 27.1236 15.3841C27.1534 15.3612 27.1886 15.3463 27.2258 15.3411C27.2631 15.3359 27.301 15.3405 27.336 15.3545L28.3427 15.7641C28.6799 15.9001 29.0549 15.9098 29.3986 15.7914C29.7424 15.673 30.0319 15.4345 30.2138 15.1197L31.377 13.0933C31.5068 12.8669 31.5749 12.6103 31.5746 12.3493C31.5751 12.1209 31.5238 11.8953 31.4246 11.6896C31.3253 11.4839 31.1806 11.3034 31.0014 11.1617L30.1343 10.4809C30.106 10.4593 30.0837 10.4308 30.0695 10.3982C30.0553 10.3656 30.0498 10.3298 30.0533 10.2944C30.1234 9.70848 30.1239 9.11633 30.0549 8.53028C30.0503 8.49354 30.0552 8.45622 30.0692 8.42193C30.0832 8.38764 30.1058 8.35754 30.1348 8.33451L30.9996 7.65578C31.2824 7.43158 31.4758 7.11359 31.5447 6.75926C31.6136 6.40494 31.5534 6.03766 31.3751 5.72382L30.2102 3.69569C30.0282 3.38117 29.7388 3.14287 29.3953 3.02455C29.0517 2.90623 28.6769 2.91583 28.3399 3.05159L27.3341 3.46039C27.2994 3.47434 27.2617 3.47899 27.2246 3.47388C27.1875 3.46877 27.1524 3.45409 27.1227 3.43127C26.6572 3.08248 26.1523 2.78971 25.6183 2.559C25.5839 2.54466 25.5537 2.52163 25.5308 2.49215C25.5079 2.46267 25.493 2.42776 25.4876 2.39082L25.3348 1.29684C25.2833 0.938162 25.1046 0.609956 24.8312 0.372089C24.5579 0.134221 24.2081 0.00254163 23.8458 0.00106832L21.5255 0.000381102C21.1629 0.00161043 20.8128 0.133304 20.5392 0.371395C20.2657 0.609486 20.0868 0.938157 20.0356 1.29718ZM23.8453 1.2903C23.8971 1.29053 23.947 1.30934 23.9861 1.3433C24.0251 1.37726 24.0506 1.42411 24.058 1.47533L24.2108 2.56914C24.2478 2.82491 24.3495 3.06698 24.5063 3.27235C24.6632 3.47773 24.87 3.63958 25.107 3.74253C25.548 3.93309 25.9651 4.17489 26.3497 4.46294C26.5576 4.61821 26.8021 4.71739 27.0594 4.75097C27.3168 4.78454 27.5785 4.75138 27.8194 4.65467L28.8252 4.24587C28.8733 4.22649 28.9268 4.22513 28.9759 4.24204C29.025 4.25895 29.0663 4.29298 29.0923 4.3379L30.2571 6.36586C30.2826 6.4107 30.2912 6.46317 30.2814 6.51379C30.2715 6.5644 30.2439 6.60984 30.2035 6.64189L29.3387 7.32062C29.1366 7.48065 28.9787 7.68963 28.88 7.92776C28.7813 8.16589 28.745 8.42528 28.7746 8.68136C28.8317 9.16644 28.8312 9.65656 28.7732 10.1415C28.7441 10.3966 28.7807 10.6548 28.8796 10.8917C28.9786 11.1286 29.1364 11.3362 29.3382 11.4949L30.2053 12.1757C30.2457 12.2078 30.2733 12.2532 30.2832 12.3038C30.293 12.3544 30.2844 12.4069 30.2589 12.4517L29.0958 14.4781C29.0698 14.5231 29.0284 14.5571 28.9793 14.574C28.9302 14.591 28.8767 14.5896 28.8285 14.5702L27.8218 14.1606C27.5808 14.0638 27.319 14.0305 27.0614 14.0641C26.8039 14.0976 26.5593 14.1968 26.3512 14.3521C25.9669 14.6397 25.5503 14.8813 25.1098 15.0722C24.873 15.1753 24.6664 15.3373 24.5097 15.5427C24.3531 15.7481 24.2515 15.9901 24.2147 16.2458L24.0628 17.3379C24.0554 17.3892 24.0299 17.4362 23.9908 17.4702C23.9517 17.5042 23.9017 17.523 23.8499 17.5231L21.5296 17.5224C21.4778 17.5222 21.4279 17.5034 21.3889 17.4694C21.3499 17.4354 21.3244 17.3885 21.317 17.3373L21.1642 16.2436C21.1273 15.9878 21.0255 15.7457 20.8687 15.5404C20.7118 15.335 20.5051 15.1731 20.268 15.0702C19.827 14.8797 19.41 14.6379 19.0255 14.3499C18.8175 14.1946 18.573 14.0954 18.3156 14.0618C18.0583 14.0282 17.7965 14.0613 17.5557 14.1581L16.5499 14.5667C16.5017 14.5861 16.4482 14.5875 16.3991 14.5706C16.35 14.5537 16.3086 14.5197 16.2826 14.4747L15.1178 12.4467C15.0992 12.4144 15.0894 12.3777 15.0894 12.3404C15.0894 12.3078 15.0967 12.2755 15.1109 12.2461C15.1251 12.2168 15.1458 12.191 15.1714 12.1708L16.0362 11.4919C16.2383 11.3319 16.3962 11.1229 16.4949 10.8848C16.5936 10.6467 16.6299 10.3873 16.6003 10.1312C16.5433 9.64616 16.5437 9.15607 16.6018 8.67113C16.6308 8.41606 16.5941 8.1578 16.4952 7.9209C16.3963 7.68399 16.2385 7.47632 16.0367 7.31762L15.1696 6.63691C15.1292 6.60488 15.1016 6.55946 15.0918 6.50885C15.0819 6.45824 15.0905 6.40578 15.116 6.36096L16.2791 4.33446C16.3051 4.28951 16.3465 4.25545 16.3956 4.23854C16.4447 4.22163 16.4982 4.22301 16.5464 4.24243L17.5533 4.65209C17.7942 4.74887 18.056 4.78207 18.3136 4.74851C18.5711 4.71495 18.8156 4.61576 19.0237 4.46045C19.408 4.17289 19.8246 3.93123 20.265 3.74038C20.5019 3.63727 20.7085 3.47534 20.8651 3.26994C21.0218 3.06455 21.1234 2.82251 21.1602 2.56682L21.3122 1.47472C21.3195 1.42342 21.345 1.37646 21.3841 1.34244C21.4232 1.30842 21.4732 1.28961 21.525 1.28944L23.8453 1.2903ZM32.0349 17.4063C31.7847 17.4936 31.5742 17.6678 31.4417 17.8973C31.3092 18.1269 31.2637 18.3963 31.3133 18.6566L31.5464 19.8535C31.1465 20.2117 30.793 20.6184 30.4939 21.0642L29.2762 21C29.0115 20.987 28.751 21.0697 28.5422 21.2328C28.3334 21.3959 28.1901 21.6287 28.1386 21.8886L27.6694 24.3028C27.6199 24.5631 27.6656 24.8325 27.7981 25.0619C27.9306 25.2914 28.1411 25.4656 28.3913 25.5528L29.5445 25.9495C29.654 26.4752 29.8293 26.9851 30.0661 27.4671L29.4021 28.4886C29.2586 28.7113 29.1999 28.9782 29.2368 29.2406C29.2736 29.503 29.4035 29.7434 29.6028 29.9181L31.4591 31.5316C31.6597 31.7047 31.9159 31.7999 32.1808 31.7999C32.4458 31.7999 32.702 31.7046 32.9026 31.5314L33.8218 30.7318C34.3321 30.8992 34.8614 31.0018 35.3973 31.0371L35.9505 32.1239C36.0716 32.3596 36.2734 32.5439 36.5191 32.6432C36.7647 32.7425 37.0379 32.7502 37.2888 32.6649L39.6143 31.8641C39.8645 31.7769 40.075 31.6026 40.2075 31.3731C40.3399 31.1436 40.3855 30.8742 40.3359 30.6139L40.1027 29.417C40.5026 29.0588 40.8561 28.6521 41.1552 28.2063L42.373 28.2706C42.6376 28.2835 42.8981 28.2008 43.1069 28.0377C43.3158 27.8746 43.459 27.6419 43.5106 27.382L43.9798 24.9677C43.9931 24.8993 43.9998 24.8297 43.9998 24.7599C43.9994 24.5307 43.9278 24.3073 43.7948 24.1206C43.6619 23.9339 43.4743 23.7931 43.2579 23.7177L42.1047 23.3211C41.9951 22.7953 41.8198 22.2854 41.583 21.8034L42.247 20.7819C42.3906 20.5592 42.4493 20.2922 42.4125 20.0298C42.3756 19.7674 42.2457 19.527 42.0463 19.3524L40.1901 17.7389C39.9894 17.5658 39.7333 17.4706 39.4683 17.4706C39.2033 17.4707 38.9472 17.5659 38.7466 17.7391L37.8274 18.5387C37.3171 18.3713 36.7878 18.2687 36.2519 18.2334L35.6986 17.1466C35.5775 16.911 35.3757 16.7267 35.1301 16.6274C34.8844 16.5281 34.6113 16.5204 34.3604 16.6057L32.0349 17.4063ZM35.1527 18.9158C35.2409 19.0882 35.3728 19.2342 35.5354 19.3393C35.6979 19.4444 35.8852 19.5049 36.0785 19.5146C36.5662 19.5383 37.048 19.6317 37.5092 19.7919C37.692 19.8551 37.8882 19.8691 38.0781 19.8324C38.2679 19.7958 38.4448 19.7097 38.5909 19.583L39.4685 18.8196L41.0765 20.2173L40.4426 21.1927C40.3375 21.355 40.277 21.5422 40.2671 21.7353C40.2572 21.9284 40.2984 22.1207 40.3864 22.2929C40.6092 22.7273 40.7687 23.1913 40.8601 23.6709C40.8966 23.8611 40.9825 24.0382 41.1092 24.1846C41.2359 24.3309 41.399 24.4413 41.582 24.5045L42.683 24.8832L42.2765 26.9746L41.114 26.9133C40.9209 26.9034 40.7287 26.9446 40.5566 27.0325C40.3845 27.1205 40.2385 27.2522 40.1334 27.4144C39.8681 27.8247 39.5459 28.1954 39.1764 28.5152C39.0304 28.6419 38.9202 28.8048 38.8571 28.9875C38.7939 29.1703 38.78 29.3664 38.8166 29.5563L39.0392 30.6988L37.0246 31.3925L36.4964 30.3548C36.4083 30.1824 36.2763 30.0363 36.1138 29.9312C35.9513 29.8261 35.7639 29.7657 35.5706 29.756C35.0829 29.7323 34.6011 29.6389 34.1399 29.4787C33.9571 29.4154 33.761 29.4015 33.5711 29.4381C33.3812 29.4748 33.2044 29.5608 33.0583 29.6875L32.1807 30.451L30.5726 29.0531L31.2065 28.0778C31.3117 27.9155 31.3722 27.7284 31.3821 27.5352C31.3919 27.3421 31.3508 27.1498 31.2627 26.9776C31.0399 26.5431 30.8804 26.079 30.789 25.5994C30.7525 25.4093 30.6666 25.2322 30.5398 25.0859C30.4131 24.9396 30.2501 24.8293 30.0671 24.766L28.9661 24.3873L29.3726 22.2959L30.5351 22.3573C30.7282 22.3671 30.9205 22.326 31.0926 22.238C31.2647 22.15 31.4107 22.0183 31.5158 21.8561C31.6483 21.6512 31.7951 21.4559 31.9552 21.2717C32.1153 21.0876 32.2883 20.915 32.4728 20.7552C32.6188 20.6285 32.7289 20.4656 32.792 20.2829C32.8552 20.1002 32.8691 19.9041 32.8325 19.7143L32.61 18.5717L34.6245 17.878L35.1527 18.9158Z" fill="#FD6807"/>
</g>
<defs>
<clipPath id="clip0_1167_546">
<rect width="44" height="44" fill="white" transform="translate(0 44.0001) rotate(-90)"/>
</clipPath>
</defs>
</svg>
