<svg width="58" height="58" viewBox="0 0 58 58" fill="none" xmlns="http://www.w3.org/2000/svg">
<path d="M58 29C58 25.1917 57.2499 21.4206 55.7925 17.9022C54.3351 14.3837 52.199 11.1868 49.5061 8.4939C46.8132 5.80101 43.6163 3.66488 40.0978 2.20749C36.5794 0.750107 32.8083 0 29 0C25.1917 0 21.4206 0.750107 17.9022 2.20749C14.3837 3.66488 11.1868 5.80101 8.4939 8.4939C5.801 11.1868 3.66488 14.3837 2.20749 17.9022C0.750107 21.4206 -5.67486e-08 25.1917 0 29C1.14609e-07 36.6913 3.05535 44.0675 8.4939 49.5061C13.9325 54.9447 21.3087 58 29 58C36.6913 58 44.0675 54.9447 49.5061 49.5061C54.9447 44.0675 58 36.6913 58 29ZM4.83333 29C4.83333 22.5906 7.37946 16.4437 11.9116 11.9116C16.4437 7.37946 22.5906 4.83333 29 4.83333C35.4094 4.83333 41.5563 7.37946 46.0884 11.9116C50.6205 16.4437 53.1667 22.5906 53.1667 29C53.1667 35.4094 50.6205 41.5563 46.0884 46.0884C41.5563 50.6205 35.4094 53.1667 29 53.1667C22.5906 53.1667 16.4437 50.6205 11.9116 46.0884C7.37946 41.5563 4.83333 35.4094 4.83333 29ZM24.1667 22.9583C24.1667 23.4344 24.0729 23.9058 23.8907 24.3456C23.7086 24.7854 23.4415 25.185 23.1049 25.5216C22.7683 25.8582 22.3687 26.1252 21.9289 26.3074C21.4891 26.4896 21.0177 26.5833 20.5417 26.5833C20.0656 26.5833 19.5942 26.4896 19.1544 26.3074C18.7146 26.1252 18.315 25.8582 17.9784 25.5216C17.6418 25.185 17.3748 24.7854 17.1926 24.3456C17.0104 23.9058 16.9167 23.4344 16.9167 22.9583C16.9167 21.9969 17.2986 21.0749 17.9784 20.3951C18.6582 19.7153 19.5803 19.3333 20.5417 19.3333C21.5031 19.3333 22.4251 19.7153 23.1049 20.3951C23.7847 21.0749 24.1667 21.9969 24.1667 22.9583ZM41.0833 22.9583C41.0833 23.9197 40.7014 24.8418 40.0216 25.5216C39.3418 26.2014 38.4197 26.5833 37.4583 26.5833C36.4969 26.5833 35.5749 26.2014 34.8951 25.5216C34.2153 24.8418 33.8333 23.9197 33.8333 22.9583C33.8333 21.9969 34.2153 21.0749 34.8951 20.3951C35.5749 19.7153 36.4969 19.3333 37.4583 19.3333C38.4197 19.3333 39.3418 19.7153 40.0216 20.3951C40.7014 21.0749 41.0833 21.9969 41.0833 22.9583ZM19.9713 42.6397C24.4422 37.3423 33.553 37.3423 38.0287 42.6397C38.2284 42.8966 38.4779 43.1105 38.7623 43.2687C39.0468 43.4268 39.3602 43.5259 39.6838 43.5599C40.0074 43.594 40.3346 43.5623 40.6457 43.4668C40.9568 43.3713 41.2454 43.214 41.4942 43.0043C41.743 42.7946 41.9469 42.5367 42.0937 42.2463C42.2404 41.9558 42.327 41.6387 42.3482 41.314C42.3694 40.9893 42.3248 40.6636 42.2171 40.3565C42.1094 40.0495 41.9408 39.7673 41.7213 39.527C35.3172 31.9387 22.678 31.9387 16.2787 39.527C16.0592 39.7673 15.8906 40.0495 15.7829 40.3565C15.6752 40.6636 15.6306 40.9893 15.6518 41.314C15.673 41.6387 15.7596 41.9558 15.9063 42.2463C16.0531 42.5367 16.257 42.7946 16.5058 43.0043C16.7546 43.214 17.0432 43.3713 17.3543 43.4668C17.6654 43.5623 17.9926 43.594 18.3162 43.5599C18.6398 43.5259 18.9532 43.4268 19.2377 43.2687C19.5221 43.1105 19.7716 42.8966 19.9713 42.6397Z" fill="#F21E1E" fill-opacity="0.93"/>
</svg>
