<svg width="44" height="45" viewBox="0 0 44 45" fill="none" xmlns="http://www.w3.org/2000/svg">
<path opacity="0.7" d="M17.4575 28.2305C17.1064 27.616 16.6373 27.077 16.0771 26.6445C15.5169 26.212 14.8767 25.8946 14.1933 25.7105C13.51 25.5263 12.797 25.4791 12.0953 25.5715C11.3937 25.664 10.7172 25.8943 10.1049 26.2491C8.86963 26.9717 7.96984 28.1529 7.60141 29.5358C7.23299 30.9186 7.42577 32.391 8.13777 33.6323C8.48888 34.2468 8.95803 34.7858 9.51823 35.2183C10.0784 35.6508 10.7186 35.9683 11.402 36.1524C12.0853 36.3365 12.7983 36.3838 13.5 36.2913C14.2016 36.1989 14.8781 35.9686 15.4904 35.6137C16.7259 34.8913 17.6258 33.71 17.9943 32.3271C18.3627 30.9442 18.1698 29.4718 17.4575 28.2305ZM14.8434 34.4988C14.3779 34.7684 13.8637 34.9433 13.3303 35.0134C12.797 35.0835 12.255 35.0474 11.7356 34.9072C11.2163 34.767 10.7298 34.5255 10.3042 34.1965C9.87855 33.8675 9.52221 33.4576 9.25565 32.9903C8.71271 32.0447 8.56531 30.9229 8.84555 29.8691C9.12579 28.8153 9.81097 27.915 10.7519 27.364C11.2174 27.0943 11.7316 26.9194 12.265 26.8493C12.7984 26.7792 13.3404 26.8153 13.8597 26.9556C14.3791 27.0958 14.8656 27.3373 15.2912 27.6663C15.7168 27.9953 16.0732 28.4052 16.3397 28.8725C16.8826 29.8181 17.03 30.9399 16.7498 31.9937C16.4695 33.0475 15.7843 33.9478 14.8434 34.4988ZM23.2283 32.4049C23.3651 31.4284 23.3653 30.4377 23.2289 29.4612C23.2248 29.4253 23.2302 29.3889 23.2445 29.3557C23.2587 29.3225 23.2814 29.2936 23.3103 29.2718L25.0174 27.9318C25.3004 27.7077 25.4938 27.3897 25.5627 27.0353C25.6315 26.6809 25.5714 26.3136 25.393 25.9998L23.3503 22.4437C23.1683 22.1292 22.879 21.8909 22.5354 21.7726C22.1919 21.6542 21.8172 21.6638 21.4801 21.7995L19.4835 22.611C19.45 22.6254 19.4133 22.6306 19.3771 22.6263C19.3409 22.622 19.3065 22.6083 19.2773 22.5864C18.5063 21.9818 17.6546 21.488 16.7469 21.1192C16.7135 21.1048 16.6845 21.0819 16.6627 21.0528C16.6409 21.0237 16.6271 20.9894 16.6226 20.9533L16.321 18.794C16.2695 18.4353 16.0908 18.1071 15.8174 17.8692C15.5441 17.6313 15.1943 17.4996 14.832 17.4982L10.7572 17.4971C10.3946 17.4982 10.0444 17.6299 9.77086 17.868C9.49728 18.1061 9.31852 18.4347 9.26725 18.7937L8.96707 20.9507C8.96264 20.9868 8.94884 21.0211 8.92704 21.0503C8.90524 21.0794 8.8762 21.1023 8.84281 21.1167C8.39012 21.3014 7.95076 21.5171 7.52788 21.7625C7.10565 22.0076 6.70084 22.2816 6.31633 22.5825C6.28706 22.6045 6.25251 22.6184 6.21616 22.6229C6.1798 22.6273 6.14292 22.6221 6.10922 22.6078L4.11074 21.7946C3.77356 21.6587 3.39863 21.649 3.05488 21.7674C2.71113 21.8857 2.42167 22.1242 2.23971 22.439L0.199556 25.993C0.0214076 26.3068 -0.0386378 26.674 0.0302655 27.0282C0.0991688 27.3825 0.292478 27.7004 0.575274 27.9245L2.28595 29.2677C2.31483 29.2897 2.3375 29.3187 2.35171 29.3521C2.36592 29.3854 2.37119 29.4219 2.36699 29.4579C2.2302 30.4344 2.23 31.4251 2.36638 32.4016C2.37047 32.4375 2.36511 32.4739 2.35084 32.5071C2.33656 32.5403 2.31387 32.5692 2.285 32.5909L0.577852 33.931C0.294955 34.1552 0.101602 34.4732 0.0327412 34.8275C-0.0361195 35.1819 0.0240563 35.5492 0.202391 35.863L2.24495 39.4191C2.42695 39.7336 2.71631 39.972 3.05989 40.0903C3.40347 40.2086 3.77822 40.1991 4.1153 40.0633L6.11188 39.2519C6.14539 39.2375 6.18209 39.2322 6.21829 39.2365C6.2545 39.2408 6.28893 39.2545 6.31813 39.2764C7.08906 39.881 7.94072 40.3748 8.84839 40.7436C8.88179 40.758 8.91084 40.7809 8.93265 40.81C8.95447 40.8391 8.96829 40.8734 8.97274 40.9095L9.27438 43.0688C9.32586 43.4275 9.50458 43.7557 9.77794 43.9936C10.0513 44.2315 10.4011 44.3632 10.7634 44.3646L14.8382 44.3658C15.2008 44.3646 15.5509 44.2329 15.8245 43.9949C16.0981 43.7568 16.2768 43.4282 16.328 43.0691L16.6282 40.9121C16.6327 40.876 16.6465 40.8417 16.6683 40.8125C16.6901 40.7834 16.7192 40.7605 16.7526 40.7461C17.6585 40.3767 18.5088 39.8834 19.2791 39.2803C19.3084 39.2583 19.3429 39.2444 19.3793 39.24C19.4156 39.2355 19.4525 39.2407 19.4862 39.2551L21.4844 40.0682C21.8216 40.2042 22.1965 40.2139 22.5403 40.0955C22.8841 39.9772 23.1736 39.7386 23.3555 39.4238L25.3956 35.8698C25.5254 35.6434 25.5935 35.3868 25.5931 35.1258C25.5936 34.8974 25.5424 34.6719 25.4431 34.4661C25.3438 34.2604 25.1992 34.0799 25.02 33.9382L23.3094 32.5952C23.2804 32.5733 23.2577 32.5442 23.2434 32.5108C23.2292 32.4775 23.224 32.4409 23.2283 32.4049ZM22.5133 33.609L24.224 34.9522C24.2644 34.9842 24.292 35.0296 24.3019 35.0802C24.3117 35.1308 24.3031 35.1833 24.2777 35.2281L22.2377 38.7821C22.2117 38.8271 22.1703 38.8612 22.1212 38.8781C22.0721 38.895 22.0185 38.8936 21.9704 38.8742L19.9719 38.061C19.7278 37.9614 19.4619 37.9279 19.2007 37.9637C18.9396 37.9996 18.6925 38.1036 18.4843 38.2653C17.808 38.7948 17.0615 39.228 16.2661 39.5523C16.0237 39.6523 15.8117 39.8141 15.6512 40.0215C15.4908 40.2289 15.3875 40.4747 15.3515 40.7345L15.0514 42.8915C15.0441 42.9428 15.0185 42.9898 14.9794 43.0238C14.9403 43.0578 14.8903 43.0766 14.8385 43.0768L10.7638 43.0756C10.712 43.0754 10.662 43.0566 10.623 43.0226C10.5839 42.9886 10.5583 42.9417 10.551 42.8905L10.2493 40.7311C10.2133 40.4713 10.1097 40.2255 9.9491 40.0182C9.78846 39.8109 9.5763 39.6493 9.33377 39.5495C8.53736 39.2259 7.79009 38.7926 7.11366 38.2621C6.90562 38.1003 6.65861 37.9963 6.39752 37.9604C6.13644 37.9244 5.8705 37.958 5.62651 38.0576L3.63001 38.8691C3.58184 38.8885 3.52829 38.8899 3.4792 38.873C3.4301 38.8561 3.38875 38.822 3.36274 38.7771L1.32027 35.221C1.30173 35.1886 1.29201 35.152 1.29208 35.1147C1.29197 35.082 1.29928 35.0498 1.31346 35.0204C1.32763 34.991 1.34829 34.9652 1.37389 34.9449L3.08104 33.605C3.28712 33.4437 3.44742 33.2313 3.54602 32.9889C3.64462 32.7465 3.67807 32.4826 3.64307 32.2232C3.52322 31.3651 3.52343 30.4945 3.64367 29.6365C3.67873 29.3771 3.64535 29.113 3.54683 28.8704C3.44832 28.6279 3.2881 28.4153 3.08207 28.2538L1.3714 26.9106C1.33102 26.8786 1.30341 26.8332 1.29356 26.7826C1.28371 26.7321 1.29227 26.6796 1.31769 26.6348L3.35784 23.0807C3.38386 23.0357 3.4252 23.0017 3.4743 22.9848C3.5234 22.9679 3.57694 22.9692 3.62511 22.9886L5.6235 23.8018C5.86755 23.9014 6.13353 23.9349 6.39468 23.8991C6.65582 23.8632 6.90291 23.7592 7.11108 23.5975C7.78742 23.0679 8.53397 22.6348 9.32938 22.3105C9.57178 22.2105 9.78376 22.0488 9.94421 21.8414C10.1047 21.634 10.208 21.3882 10.2439 21.1284L10.5441 18.9713C10.5514 18.92 10.577 18.8731 10.616 18.8391C10.6551 18.8051 10.7051 18.7863 10.7569 18.7861L14.8316 18.7872C14.8834 18.7874 14.9334 18.8062 14.9724 18.8402C15.0115 18.8742 15.037 18.9211 15.0444 18.9723L15.346 21.1317C15.3821 21.3915 15.4856 21.6373 15.6463 21.8446C15.8069 22.052 16.0191 22.2136 16.2616 22.3134C17.0581 22.637 17.8054 23.0703 18.4818 23.6008C18.6899 23.7625 18.9368 23.8666 19.1979 23.9025C19.459 23.9384 19.7249 23.9049 19.9689 23.8053L21.9655 22.9938C22.0136 22.9744 22.0672 22.973 22.1163 22.9899C22.1653 23.0068 22.2067 23.0408 22.2327 23.0857L24.2752 26.6418C24.3007 26.6867 24.3092 26.7391 24.2994 26.7898C24.2896 26.8404 24.262 26.8858 24.2216 26.9179L22.5145 28.2578C22.3084 28.4191 22.1481 28.6314 22.0495 28.8739C21.9509 29.1163 21.9174 29.3802 21.9524 29.6396C22.0722 30.4977 22.072 31.3683 21.9518 32.2263C21.9167 32.4858 21.9501 32.7499 22.0487 32.9924C22.1472 33.235 22.3073 33.4476 22.5133 33.609ZM33.743 23.1917C33.4509 23.5278 33.2445 23.9295 33.1414 24.3627C33.0384 24.7958 33.0417 25.2475 33.1512 25.6791C33.2606 26.1107 33.4729 26.5093 33.77 26.841C34.067 27.1727 34.4399 27.4275 34.8569 27.5838C35.2738 27.74 35.7224 27.7929 36.1642 27.7381C36.6061 27.6833 37.0281 27.5223 37.3942 27.2689C37.7603 27.0156 38.0596 26.6773 38.2666 26.2831C38.4736 25.8889 38.582 25.4504 38.5827 25.0052C38.5827 24.9399 38.5804 24.8744 38.5758 24.8086C38.5378 24.2645 38.3392 23.7438 38.0052 23.3125C37.6713 22.8812 37.2169 22.5586 36.6996 22.3855C36.1823 22.2124 35.6253 22.1966 35.0991 22.3401C34.5728 22.4836 34.1009 22.78 33.743 23.1917ZM36.7882 23.8924C36.9705 24.0509 37.1109 24.2519 37.197 24.4776C37.2831 24.7033 37.3121 24.9468 37.2816 25.1864C37.2511 25.426 37.162 25.6545 37.0222 25.8514C36.8823 26.0484 36.6961 26.2078 36.4799 26.3156C36.2637 26.4234 36.0243 26.4762 35.7828 26.4693C35.5414 26.4625 35.3053 26.3962 35.0956 26.2763C34.8859 26.1565 34.7089 25.9868 34.5805 25.7822C34.452 25.5776 34.376 25.3445 34.3591 25.1036C34.3566 25.0685 34.3554 25.0336 34.3554 24.9989C34.355 24.6453 34.4831 24.3035 34.7158 24.0373C34.9717 23.7437 35.3336 23.5635 35.7221 23.5364C36.1106 23.5092 36.494 23.6373 36.7882 23.8924ZM19.5101 11.6127C19.7495 12.0317 20.0695 12.3992 20.4515 12.6941C20.8335 12.9889 21.2701 13.2054 21.7361 13.3309C22.202 13.4564 22.6882 13.4885 23.1667 13.4255C23.6451 13.3624 24.1064 13.2053 24.5239 12.9633C25.366 12.4711 25.9795 11.6661 26.2306 10.7235C26.4818 9.78104 26.3504 8.77747 25.865 7.93144C25.6255 7.51245 25.3055 7.14496 24.9235 6.85009C24.5415 6.55521 24.1049 6.33879 23.639 6.21326C23.173 6.08773 22.6868 6.05558 22.2083 6.11864C21.7299 6.18171 21.2686 6.33876 20.8511 6.58076C20.0092 7.07316 19.3959 7.87823 19.1447 8.82068C18.8935 9.76313 19.0248 10.7667 19.5101 11.6127ZM23.2978 7.45646C23.6014 7.53722 23.8859 7.67757 24.1347 7.86934C24.3836 8.06111 24.5918 8.30047 24.7472 8.57348C25.0633 9.12382 25.1492 9.77674 24.9861 10.3901C24.8231 11.0035 24.4244 11.5276 23.8768 11.8484C23.6061 12.0052 23.3071 12.1068 22.9969 12.1475C22.6868 12.1883 22.3716 12.1672 22.0696 12.0856C21.7677 12.0041 21.4848 11.8635 21.2374 11.6722C20.9899 11.4808 20.7828 11.2424 20.6278 10.9706C20.3118 10.4203 20.2259 9.76736 20.3889 9.154C20.5519 8.54065 20.9506 8.01652 21.4982 7.69571C21.7673 7.53846 22.065 7.43633 22.3739 7.39525C22.6829 7.35418 22.997 7.37498 23.2978 7.45646ZM20.0356 1.6629L19.8836 2.755C19.8782 2.792 19.8634 2.82696 19.8404 2.85648C19.8175 2.88601 19.7873 2.90907 19.7527 2.92343C19.4863 3.03892 19.2269 3.16985 18.9757 3.31556C18.7252 3.46096 18.4834 3.62079 18.2515 3.79424C18.2217 3.8172 18.1865 3.83201 18.1493 3.83721C18.1121 3.84241 18.0741 3.83781 18.0392 3.82388L17.0324 3.41422C16.6952 3.2782 16.3202 3.26848 15.9765 3.38687C15.6327 3.50525 15.3432 3.74378 15.1613 4.05858L13.9981 6.08498C13.8199 6.39878 13.7598 6.76597 13.8287 7.1202C13.8975 7.47444 14.0908 7.79236 14.3737 8.01652L15.2408 8.6974C15.269 8.71907 15.2912 8.74755 15.3054 8.78017C15.3196 8.81279 15.3253 8.84847 15.3219 8.88388C15.2519 9.46981 15.2513 10.0619 15.3202 10.648C15.3248 10.6848 15.3199 10.7221 15.3059 10.7564C15.2919 10.7907 15.2693 10.8208 15.2403 10.8438L14.3755 11.5225C14.0926 11.7467 13.8992 12.0647 13.8303 12.4191C13.7614 12.7734 13.8216 13.1407 14 13.4546L15.165 15.4824C15.347 15.7969 15.6363 16.0353 15.9799 16.1536C16.3235 16.2719 16.6982 16.2623 17.0353 16.1266L18.041 15.7179C18.0758 15.7039 18.1135 15.6993 18.1506 15.7044C18.1877 15.7095 18.2228 15.7242 18.2524 15.747C18.718 16.0958 19.2229 16.3885 19.7569 16.6192C19.7913 16.6336 19.8215 16.6566 19.8444 16.6861C19.8673 16.7156 19.8822 16.7505 19.8876 16.7875L20.0404 17.8815C20.0919 18.2401 20.2706 18.5683 20.544 18.8061C20.8173 19.044 21.1671 19.1757 21.5294 19.1771L23.8496 19.1778C24.2123 19.1766 24.5624 19.0449 24.8359 18.8068C25.1095 18.5688 25.2883 18.2402 25.3395 17.8812L25.4915 16.7891C25.4969 16.7521 25.5117 16.7172 25.5347 16.6876C25.5576 16.6581 25.5878 16.635 25.6223 16.6207C26.1549 16.3899 26.6588 16.0976 27.1236 15.7499C27.1534 15.7269 27.1886 15.712 27.2258 15.7068C27.2631 15.7016 27.301 15.7063 27.336 15.7202L28.3427 16.1298C28.6799 16.2658 29.0549 16.2755 29.3986 16.1571C29.7424 16.0388 30.0319 15.8002 30.2138 15.4854L31.377 13.459C31.5068 13.2326 31.5749 12.9761 31.5746 12.7151C31.5751 12.4866 31.5238 12.2611 31.4246 12.0553C31.3253 11.8496 31.1806 11.6691 31.0014 11.5274L30.1343 10.8466C30.106 10.825 30.0837 10.7966 30.0695 10.7639C30.0553 10.7313 30.0498 10.6955 30.0533 10.6601C30.1234 10.0742 30.1239 9.48206 30.0549 8.896C30.0503 8.85926 30.0552 8.82195 30.0692 8.78765C30.0832 8.75336 30.1058 8.72326 30.1348 8.70024L30.9996 8.0215C31.2824 7.79731 31.4758 7.47931 31.5447 7.12498C31.6136 6.77066 31.5534 6.40339 31.3751 6.08954L30.2102 4.06142C30.0282 3.7469 29.7388 3.50859 29.3953 3.39027C29.0517 3.27195 28.6769 3.28156 28.3399 3.41732L27.3341 3.82612C27.2994 3.84007 27.2617 3.84472 27.2246 3.83961C27.1875 3.8345 27.1524 3.81981 27.1227 3.79699C26.6572 3.44821 26.1523 3.15543 25.6183 2.92472C25.5839 2.91038 25.5537 2.88735 25.5308 2.85787C25.5079 2.8284 25.493 2.79348 25.4876 2.75654L25.3348 1.66256C25.2833 1.30389 25.1046 0.975681 24.8312 0.737812C24.5579 0.499943 24.2081 0.368263 23.8458 0.366791L21.5255 0.366104C21.1629 0.367332 20.8128 0.499027 20.5392 0.737118C20.2657 0.975208 20.0868 1.30388 20.0356 1.6629ZM23.8453 1.65602C23.8971 1.65626 23.947 1.67506 23.9861 1.70902C24.0251 1.74298 24.0506 1.78984 24.058 1.84105L24.2108 2.93486C24.2478 3.19063 24.3495 3.4327 24.5063 3.63808C24.6632 3.84345 24.87 4.00531 25.107 4.10825C25.548 4.29881 25.9651 4.54061 26.3496 4.82867C26.5576 4.98393 26.8021 5.08312 27.0594 5.11669C27.3168 5.15026 27.5785 5.11711 27.8194 5.02039L28.8252 4.61159C28.8733 4.59221 28.9269 4.59086 28.9759 4.60777C29.025 4.62467 29.0663 4.6587 29.0923 4.70362L30.2571 6.73158C30.2826 6.77642 30.2912 6.82889 30.2814 6.87951C30.2715 6.93013 30.2439 6.97556 30.2035 7.00761L29.3387 7.68635C29.1366 7.84637 28.9787 8.05535 28.88 8.29348C28.7813 8.53161 28.745 8.791 28.7746 9.04708C28.8317 9.53216 28.8312 10.0223 28.7732 10.5072C28.7441 10.7623 28.7807 11.0205 28.8797 11.2574C28.9786 11.4943 29.1364 11.7019 29.3382 11.8606L30.2053 12.5415C30.2457 12.5735 30.2733 12.6189 30.2832 12.6695C30.293 12.7201 30.2844 12.7726 30.2589 12.8174L29.0958 14.8438C29.0698 14.8888 29.0284 14.9228 28.9793 14.9398C28.9302 14.9567 28.8767 14.9553 28.8285 14.9359L27.8218 14.5263C27.5808 14.4295 27.319 14.3963 27.0614 14.4298C26.8039 14.4633 26.5593 14.5625 26.3512 14.7178C25.9669 15.0054 25.5503 15.2471 25.1098 15.4379C24.873 15.541 24.6664 15.703 24.5097 15.9084C24.3531 16.1138 24.2515 16.3559 24.2147 16.6116L24.0628 17.7037C24.0554 17.7549 24.0299 17.8019 23.9908 17.8359C23.9517 17.8699 23.9017 17.8887 23.8499 17.8888L21.5296 17.8882C21.4778 17.8879 21.4279 17.8691 21.3889 17.8351C21.3499 17.8011 21.3244 17.7543 21.317 17.703L21.1642 16.6093C21.1273 16.3535 21.0255 16.1115 20.8687 15.9061C20.7118 15.7007 20.5051 15.5389 20.268 15.4359C19.827 15.2454 19.41 15.0036 19.0255 14.7156C18.8175 14.5603 18.573 14.4611 18.3156 14.4275C18.0583 14.3939 17.7965 14.4271 17.5557 14.5238L16.5499 14.9324C16.5017 14.9518 16.4482 14.9532 16.3991 14.9363C16.35 14.9194 16.3086 14.8854 16.2826 14.8405L15.1178 12.8124C15.0992 12.7801 15.0894 12.7434 15.0894 12.7061C15.0894 12.6735 15.0967 12.6413 15.1109 12.6119C15.1251 12.5825 15.1458 12.5567 15.1714 12.5365L16.0362 11.8577C16.2383 11.6976 16.3962 11.4887 16.4949 11.2505C16.5936 11.0124 16.6299 10.753 16.6003 10.4969C16.5433 10.0119 16.5437 9.52179 16.6018 9.03685C16.6308 8.78178 16.5941 8.52353 16.4952 8.28662C16.3963 8.04972 16.2385 7.84204 16.0367 7.68334L15.1696 7.00263C15.1292 6.9706 15.1016 6.92518 15.0918 6.87457C15.0819 6.82396 15.0905 6.77151 15.116 6.72668L16.2791 4.70019C16.3051 4.65523 16.3465 4.62117 16.3956 4.60426C16.4447 4.58735 16.4982 4.58873 16.5464 4.60815L17.5533 5.01781C17.7942 5.11459 18.056 5.14779 18.3136 5.11423C18.5711 5.08068 18.8156 4.98148 19.0237 4.82617C19.408 4.53862 19.8246 4.29695 20.265 4.1061C20.5019 4.003 20.7085 3.84106 20.8651 3.63567C21.0218 3.43027 21.1234 3.18823 21.1602 2.93254L21.3122 1.84045C21.3195 1.78914 21.345 1.74219 21.3841 1.70816C21.4232 1.67414 21.4732 1.65533 21.525 1.65517L23.8453 1.65602ZM32.0349 17.7721C31.7847 17.8593 31.5742 18.0336 31.4417 18.2631C31.3092 18.4926 31.2637 18.7621 31.3133 19.0224L31.5464 20.2192C31.1465 20.5774 30.793 20.9841 30.4939 21.4299L29.2762 21.3657C29.0115 21.3528 28.751 21.4354 28.5422 21.5985C28.3334 21.7616 28.1901 21.9944 28.1386 22.2543L27.6694 24.6685C27.6199 24.9288 27.6656 25.1982 27.7981 25.4277C27.9306 25.6571 28.1411 25.8313 28.3913 25.9185L29.5445 26.3152C29.654 26.8409 29.8293 27.3508 30.0661 27.8328L29.4021 28.8543C29.2586 29.077 29.1999 29.3439 29.2368 29.6063C29.2736 29.8687 29.4035 30.1092 29.6028 30.2838L31.4591 31.8973C31.6597 32.0704 31.9159 32.1657 32.1808 32.1656C32.4458 32.1656 32.702 32.0703 32.9026 31.8972L33.8218 31.0975C34.3321 31.265 34.8614 31.3676 35.3973 31.4029L35.9505 32.4896C36.0716 32.7253 36.2734 32.9096 36.5191 33.0089C36.7648 33.1082 37.0379 33.1159 37.2888 33.0306L39.6143 32.2298C39.8645 32.1426 40.075 31.9683 40.2075 31.7388C40.3399 31.5094 40.3855 31.2399 40.3359 30.9796L40.1027 29.7828C40.5026 29.4245 40.8561 29.0178 41.1552 28.572L42.373 28.6363C42.6376 28.6492 42.8981 28.5666 43.1069 28.4034C43.3158 28.2403 43.459 28.0076 43.5106 27.7477L43.9798 25.3334C43.9931 25.265 43.9998 25.1954 43.9998 25.1256C43.9994 24.8964 43.9278 24.6731 43.7948 24.4863C43.6619 24.2996 43.4743 24.1588 43.2579 24.0834L42.1047 23.6868C41.9951 23.161 41.8198 22.6512 41.583 22.1691L42.247 21.1476C42.3906 20.9249 42.4493 20.658 42.4125 20.3955C42.3756 20.1331 42.2457 19.8927 42.0463 19.7181L40.1901 18.1046C39.9894 17.9315 39.7333 17.8363 39.4683 17.8364C39.2033 17.8364 38.9472 17.9317 38.7466 18.1048L37.8274 18.9045C37.3171 18.7371 36.7878 18.6345 36.2519 18.5991L35.6986 17.5124C35.5775 17.2767 35.3757 17.0924 35.1301 16.9931C34.8844 16.8938 34.6113 16.8861 34.3604 16.9714L32.0349 17.7721ZM35.1527 19.2815C35.2409 19.4539 35.3728 19.5999 35.5354 19.7051C35.6979 19.8102 35.8852 19.8706 36.0785 19.8803C36.5662 19.904 37.048 19.9974 37.5092 20.1576C37.692 20.2208 37.8882 20.2348 38.0781 20.1981C38.2679 20.1615 38.4448 20.0755 38.5909 19.9488L39.4685 19.1853L41.0765 20.5831L40.4426 21.5585C40.3375 21.7208 40.277 21.9079 40.2671 22.101C40.2572 22.2941 40.2984 22.4865 40.3864 22.6586C40.6092 23.093 40.7687 23.5571 40.8601 24.0366C40.8966 24.2268 40.9825 24.4039 41.1092 24.5503C41.2359 24.6966 41.399 24.807 41.582 24.8702L42.683 25.2489L42.2765 27.3403L41.114 27.279C40.9209 27.2691 40.7287 27.3103 40.5566 27.3982C40.3845 27.4862 40.2385 27.6179 40.1334 27.7801C39.8681 28.1905 39.5459 28.5611 39.1764 28.8809C39.0304 29.0076 38.9202 29.1705 38.8571 29.3533C38.7939 29.536 38.78 29.7321 38.8166 29.922L39.0392 31.0645L37.0246 31.7582L36.4964 30.7205C36.4083 30.5482 36.2763 30.4021 36.1138 30.2969C35.9513 30.1918 35.7639 30.1314 35.5706 30.1217C35.0829 30.098 34.6011 30.0046 34.1399 29.8444C33.9571 29.7812 33.761 29.7672 33.5711 29.8038C33.3812 29.8405 33.2044 29.9265 33.0583 30.0532L32.1807 30.8167L30.5726 29.4188L31.2065 28.4435C31.3117 28.2812 31.3722 28.0941 31.3821 27.901C31.3919 27.7078 31.3508 27.5155 31.2627 27.3433C31.0399 26.9089 30.8804 26.4447 30.789 25.9651C30.7525 25.775 30.6666 25.5979 30.5398 25.4516C30.4131 25.3053 30.2501 25.195 30.0671 25.1317L28.9661 24.753L29.3726 22.6616L30.5351 22.723C30.7282 22.7328 30.9205 22.6917 31.0926 22.6037C31.2647 22.5158 31.4107 22.384 31.5158 22.2218C31.6483 22.0169 31.7951 21.8216 31.9552 21.6374C32.1153 21.4533 32.2883 21.2807 32.4728 21.121C32.6188 20.9942 32.7289 20.8314 32.792 20.6486C32.8552 20.4659 32.8691 20.2698 32.8325 20.08L32.61 18.9375L34.6245 18.2438L35.1527 19.2815Z" fill="#69696A"/>
</svg>
