<svg width="34" height="45" viewBox="0 0 34 45" fill="none" xmlns="http://www.w3.org/2000/svg">
<path d="M22.2258 39.2277L13.9445 41.4467C13.3545 41.6047 12.7425 41.2514 12.5844 40.6614C12.4264 40.0715 12.7797 39.4594 13.3696 39.3014L21.6509 37.0824C22.2409 36.9244 22.8529 37.2776 23.011 37.8676C23.1692 38.4576 22.8157 39.0696 22.2258 39.2277ZM18.3915 13.7783C18.3173 14.7878 17.7463 15.3568 16.8597 15.3424C15.9771 15.3282 15.3347 14.7232 15.3558 13.802C15.3764 12.9057 15.9384 12.3169 16.8944 12.3274C17.8497 12.3377 18.3233 12.9022 18.3915 13.7783ZM29.0083 10.3761C25.7138 4.93492 19.1888 2.29126 13.1269 4.06234C7.82195 5.61238 4.36301 9.11517 3.1053 14.5023C1.86042 19.8342 3.40993 24.4204 7.33152 28.2611C8.25121 29.1619 9.0968 30.253 9.61527 31.4172C10.1351 32.5843 10.3017 32.9492 11.5678 32.6428C13.3261 32.2173 15.0609 31.6947 16.8189 31.2677C17.7201 31.0487 18.0625 30.5455 18.0566 29.637C18.0325 25.9702 18.0406 22.3032 18.0539 18.6363C18.0568 17.8062 17.796 17.1228 16.9029 17.1021C15.9989 17.0811 15.7221 17.7416 15.7296 18.5878C15.7506 20.9652 15.736 23.3427 15.7358 25.7202C15.7357 29.5447 15.7358 29.5447 11.9752 30.0942C10.5456 28.4561 9.24376 26.9836 7.96275 25.4931C3.36519 20.1435 4.20595 12.2355 9.94407 8.13967C14.0665 5.19701 18.4949 5.03327 22.9101 7.51785C27.0097 9.82498 29.24 14.5781 28.6489 19.1761C28.254 22.2477 26.7873 24.6996 24.6118 26.8073C23.2989 28.0793 22.1025 29.4488 21.6718 31.2881C21.4704 32.1484 20.9881 32.5751 20.1547 32.7805C20.3104 32.6358 11.1721 35.1963 11.1721 35.1963C10.5939 35.3511 10.2477 35.9509 10.4027 36.529L10.4265 36.6184C10.5815 37.1964 11.1811 37.5427 11.7593 37.3878C11.7593 37.3878 22.2446 34.5702 22.3821 34.5313C23.3531 34.2632 23.8816 33.572 23.9037 32.5853C23.9368 31.1124 24.5768 29.9659 25.6183 28.9872C26.1759 28.4632 26.731 27.9346 27.2557 27.3783C31.5866 22.7849 32.3013 15.8153 29.0083 10.376V10.3761Z" fill="#FD6807" fill-opacity="0.7"/>
</svg>
