<svg width="30" height="39" viewBox="0 0 30 39" fill="none" xmlns="http://www.w3.org/2000/svg">
<path d="M20.2258 36.2277L11.9445 38.4467C11.3545 38.6047 10.7425 38.2514 10.5844 37.6614C10.4264 37.0715 10.7797 36.4594 11.3696 36.3014L19.6509 34.0824C20.2409 33.9244 20.8529 34.2776 21.011 34.8676C21.1692 35.4576 20.8157 36.0696 20.2258 36.2277ZM16.3915 10.7783C16.3173 11.7878 15.7463 12.3568 14.8597 12.3424C13.9771 12.3282 13.3347 11.7232 13.3558 10.802C13.3764 9.90572 13.9384 9.31694 14.8944 9.3274C15.8497 9.33768 16.3233 9.9022 16.3915 10.7783ZM27.0083 7.37605C23.7138 1.93492 17.1888 -0.708744 11.1269 1.06234C5.82195 2.61238 2.36301 6.11517 1.1053 11.5023C-0.139583 16.8342 1.40993 21.4204 5.33152 25.2611C6.25121 26.1619 7.0968 27.253 7.61527 28.4172C8.13506 29.5843 8.3017 29.9492 9.56776 29.6428C11.3261 29.2173 13.0609 28.6947 14.8189 28.2677C15.7201 28.0487 16.0625 27.5455 16.0566 26.637C16.0325 22.9702 16.0406 19.3032 16.0539 15.6363C16.0568 14.8062 15.796 14.1228 14.9029 14.1021C13.9989 14.0811 13.7221 14.7416 13.7296 15.5878C13.7506 17.9652 13.736 20.3427 13.7358 22.7202C13.7357 26.5447 13.7358 26.5447 9.97522 27.0942C8.54559 25.4561 7.24376 23.9836 5.96275 22.4931C1.36519 17.1435 2.20595 9.23547 7.94407 5.13967C12.0665 2.19701 16.4949 2.03327 20.9101 4.51785C25.0097 6.82498 27.24 11.5781 26.6489 16.1761C26.254 19.2477 24.7873 21.6996 22.6118 23.8073C21.2989 25.0793 20.1025 26.4488 19.6718 28.2881C19.4704 29.1484 18.9881 29.5751 18.1547 29.7805C18.3104 29.6358 9.17208 32.1963 9.17208 32.1963C8.59393 32.3511 8.24773 32.9509 8.40268 33.529L8.4265 33.6184C8.58145 34.1964 9.18113 34.5427 9.75927 34.3878C9.75927 34.3878 20.2446 31.5702 20.3821 31.5313C21.3531 31.2632 21.8816 30.572 21.9037 29.5853C21.9368 28.1124 22.5768 26.9659 23.6183 25.9872C24.1759 25.4632 24.731 24.9346 25.2557 24.3783C29.5866 19.7849 30.3013 12.8153 27.0083 7.37596V7.37605Z" fill="#424242"/>
</svg>
