<svg width="90" height="28" viewBox="0 0 90 28" fill="none" xmlns="http://www.w3.org/2000/svg">
<path d="M26.9604 26.2513C26.9034 26.2513 26.8578 26.2339 26.8236 26.1989C26.7894 26.164 26.7723 26.1174 26.7723 26.0591V20.3362C26.7723 20.2721 26.7894 20.2226 26.8236 20.1876C26.8578 20.1527 26.9034 20.1352 26.9604 20.1352H30.2943C30.357 20.1352 30.4055 20.1527 30.4397 20.1876C30.4739 20.2226 30.491 20.2721 30.491 20.3362V20.4672C30.491 20.5255 30.4739 20.5721 30.4397 20.607C30.4055 20.642 30.357 20.6595 30.2943 20.6595H27.3109V22.8875H30.1063C30.169 22.8875 30.2174 22.9049 30.2516 22.9399C30.2858 22.9748 30.3029 23.0244 30.3029 23.0884V23.2195C30.3029 23.2777 30.2858 23.3243 30.2516 23.3593C30.2174 23.3942 30.169 23.4117 30.1063 23.4117H27.3109V25.7271H30.3627C30.4254 25.7271 30.4739 25.7446 30.5081 25.7795C30.5423 25.8145 30.5594 25.864 30.5594 25.9281V26.0591C30.5594 26.1174 30.5423 26.164 30.5081 26.1989C30.4739 26.2339 30.4254 26.2513 30.3627 26.2513H26.9604Z" fill="#FEFEFE"/>
<path d="M34.6866 26.2513C34.6296 26.2513 34.584 26.2339 34.5498 26.1989C34.5156 26.164 34.4985 26.1174 34.4985 26.0591V21.9002C34.4985 21.8419 34.5156 21.7953 34.5498 21.7604C34.584 21.7254 34.6296 21.7079 34.6866 21.7079H34.8319C34.8889 21.7079 34.9345 21.7254 34.9687 21.7604C35.0029 21.7953 35.02 21.8419 35.02 21.9002V22.3108C35.1738 22.1069 35.3591 21.9409 35.5756 21.8128C35.7979 21.6846 36.0914 21.6206 36.4561 21.6206C36.8437 21.6206 37.1657 21.7079 37.4221 21.8827C37.6843 22.0516 37.878 22.2846 38.0034 22.5817C38.1345 22.8729 38.2 23.2049 38.2 23.5777V26.0591C38.2 26.1174 38.1829 26.164 38.1487 26.1989C38.1145 26.2339 38.069 26.2513 38.012 26.2513H37.8666C37.8096 26.2513 37.7641 26.2339 37.7299 26.1989C37.6957 26.164 37.6786 26.1174 37.6786 26.0591V23.6214C37.6786 23.1554 37.5674 22.7914 37.3452 22.5292C37.1229 22.2613 36.7981 22.1273 36.3706 22.1273C35.966 22.1273 35.6383 22.2613 35.3876 22.5292C35.1425 22.7914 35.02 23.1554 35.02 23.6214V26.0591C35.02 26.1174 35.0029 26.164 34.9687 26.1989C34.9345 26.2339 34.8889 26.2513 34.8319 26.2513H34.6866Z" fill="#FEFEFE"/>
<path d="M43.7483 26.2513C43.452 26.2513 43.2183 26.1873 43.0473 26.0591C42.8764 25.931 42.7567 25.7562 42.6883 25.5349C42.6199 25.3135 42.5857 25.066 42.5857 24.7922V22.2147H41.9189C41.8619 22.2147 41.8163 22.1972 41.7821 22.1623C41.7479 22.1273 41.7309 22.0807 41.7309 22.0225V21.9002C41.7309 21.8419 41.7479 21.7953 41.7821 21.7604C41.8163 21.7254 41.8619 21.7079 41.9189 21.7079H42.5857V20.2401C42.5857 20.1818 42.6028 20.1352 42.637 20.1003C42.6712 20.0653 42.7168 20.0478 42.7738 20.0478H42.9191C42.9761 20.0478 43.0217 20.0653 43.0559 20.1003C43.0901 20.1352 43.1072 20.1818 43.1072 20.2401V21.7079H44.1672C44.2242 21.7079 44.2698 21.7254 44.304 21.7604C44.3382 21.7953 44.3553 21.8419 44.3553 21.9002V22.0225C44.3553 22.0807 44.3382 22.1273 44.304 22.1623C44.2698 22.1972 44.2242 22.2147 44.1672 22.2147H43.1072V24.7573C43.1072 25.066 43.1556 25.3077 43.2525 25.4825C43.3551 25.6572 43.5346 25.7446 43.7911 25.7446H44.2527C44.3097 25.7446 44.3553 25.7621 44.3895 25.797C44.4236 25.8319 44.4407 25.8785 44.4407 25.9368V26.0591C44.4407 26.1174 44.4236 26.164 44.3895 26.1989C44.3553 26.2339 44.3097 26.2513 44.2527 26.2513H43.7483Z" fill="#FEFEFE"/>
<path d="M49.7526 26.3387C49.1998 26.3387 48.761 26.1552 48.4361 25.7883C48.1113 25.4155 47.9261 24.9291 47.8805 24.3291C47.8748 24.2418 47.8719 24.1253 47.8719 23.9796C47.8719 23.834 47.8748 23.7175 47.8805 23.6301C47.909 23.2341 48.0002 22.8846 48.154 22.5817C48.3079 22.2788 48.5188 22.0429 48.7866 21.8739C49.0602 21.705 49.3822 21.6206 49.7526 21.6206C50.1515 21.6206 50.4906 21.7108 50.7699 21.8914C51.0491 22.072 51.2629 22.3312 51.411 22.669C51.5649 23.0069 51.6418 23.4088 51.6418 23.8748V24.0059C51.6418 24.0641 51.6219 24.1107 51.582 24.1456C51.5478 24.1806 51.5022 24.1981 51.4452 24.1981H48.4019C48.4019 24.1981 48.4019 24.2097 48.4019 24.233C48.4019 24.2563 48.4019 24.2738 48.4019 24.2854C48.4133 24.5476 48.4732 24.798 48.5815 25.0369C48.6897 25.2698 48.8436 25.4621 49.0431 25.6135C49.2425 25.7591 49.4791 25.8319 49.7526 25.8319C49.9977 25.8319 50.2 25.7941 50.3596 25.7184C50.5248 25.6426 50.6559 25.5611 50.7528 25.4737C50.8497 25.3805 50.9124 25.3106 50.9409 25.264C50.9921 25.1883 51.032 25.1446 51.0605 25.133C51.089 25.1155 51.1346 25.1068 51.1973 25.1068H51.3341C51.3854 25.1068 51.4281 25.1242 51.4623 25.1592C51.5022 25.1883 51.5193 25.2291 51.5136 25.2815C51.5079 25.363 51.4623 25.465 51.3768 25.5873C51.297 25.7038 51.1802 25.8203 51.0263 25.9368C50.8782 26.0533 50.6958 26.1494 50.4792 26.2251C50.2627 26.3008 50.0205 26.3387 49.7526 26.3387ZM48.4019 23.7088H51.1204V23.6738C51.1204 23.3826 51.0662 23.1205 50.958 22.8875C50.8497 22.6545 50.693 22.471 50.4878 22.337C50.2826 22.1972 50.0376 22.1273 49.7526 22.1273C49.4677 22.1273 49.2226 22.1972 49.0174 22.337C48.818 22.471 48.6641 22.6545 48.5558 22.8875C48.4532 23.1205 48.4019 23.3826 48.4019 23.6738V23.7088Z" fill="#FEFEFE"/>
<path d="M55.7357 26.2513C55.6787 26.2513 55.6331 26.2339 55.599 26.1989C55.5648 26.164 55.5477 26.1174 55.5477 26.0591V21.9089C55.5477 21.8506 55.5648 21.8041 55.599 21.7691C55.6331 21.7283 55.6787 21.7079 55.7357 21.7079H55.8725C55.9295 21.7079 55.9751 21.7283 56.0093 21.7691C56.0492 21.8041 56.0691 21.8506 56.0691 21.9089V22.3108C56.1717 22.1069 56.3199 21.9555 56.5137 21.8565C56.7074 21.7575 56.9468 21.7079 57.2317 21.7079H57.548C57.605 21.7079 57.6506 21.7254 57.6848 21.7604C57.719 21.7953 57.7361 21.8419 57.7361 21.9002V22.0225C57.7361 22.0807 57.719 22.1273 57.6848 22.1623C57.6506 22.1972 57.605 22.2147 57.548 22.2147H57.1804C56.8385 22.2147 56.5678 22.3166 56.3683 22.5205C56.1689 22.7244 56.0691 23.0011 56.0691 23.3506V26.0591C56.0691 26.1174 56.0492 26.164 56.0093 26.1989C55.9751 26.2339 55.9295 26.2513 55.8725 26.2513H55.7357Z" fill="#FEFEFE"/>
<path d="M61.4945 27.9114C61.4375 27.9114 61.3919 27.894 61.3577 27.859C61.3236 27.8241 61.3065 27.7775 61.3065 27.7192V21.9002C61.3065 21.8419 61.3236 21.7953 61.3577 21.7604C61.3919 21.7254 61.4375 21.7079 61.4945 21.7079H61.6399C61.6968 21.7079 61.7424 21.7254 61.7766 21.7604C61.8108 21.7953 61.8279 21.8419 61.8279 21.9002V22.3108C61.9704 22.1128 62.1556 21.9497 62.3836 21.8215C62.6172 21.6876 62.9107 21.6206 63.2641 21.6206C63.6003 21.6206 63.8824 21.6817 64.1104 21.804C64.3383 21.9205 64.5236 22.0778 64.666 22.2759C64.8085 22.4739 64.9139 22.6953 64.9823 22.9399C65.0507 23.1845 65.0878 23.435 65.0935 23.6913C65.0992 23.7787 65.102 23.8748 65.102 23.9796C65.102 24.0845 65.0992 24.1806 65.0935 24.268C65.0878 24.5243 65.0507 24.7747 64.9823 25.0194C64.9139 25.264 64.8085 25.4854 64.666 25.6834C64.5236 25.8815 64.3383 26.0416 64.1104 26.164C63.8824 26.2805 63.6003 26.3387 63.2641 26.3387C62.9107 26.3387 62.6172 26.2717 62.3836 26.1378C62.1556 26.0038 61.9704 25.8407 61.8279 25.6485V27.7192C61.8279 27.7775 61.8108 27.8241 61.7766 27.859C61.7424 27.894 61.6968 27.9114 61.6399 27.9114H61.4945ZM63.2128 25.8319C63.549 25.8319 63.814 25.7562 64.0078 25.6048C64.2016 25.4533 64.3412 25.2553 64.4267 25.0106C64.5122 24.766 64.5606 24.5039 64.572 24.2243C64.5777 24.0612 64.5777 23.8981 64.572 23.735C64.5606 23.4554 64.5122 23.1933 64.4267 22.9486C64.3412 22.704 64.2016 22.5059 64.0078 22.3545C63.814 22.2031 63.549 22.1273 63.2128 22.1273C62.8879 22.1273 62.6258 22.206 62.4263 22.3632C62.2269 22.5205 62.0787 22.7186 61.9818 22.9574C61.8906 23.1904 61.8393 23.4263 61.8279 23.6651C61.8222 23.7525 61.8194 23.8661 61.8194 24.0059C61.8194 24.1456 61.8222 24.2592 61.8279 24.3466C61.8336 24.5796 61.8849 24.8097 61.9818 25.0369C62.0844 25.264 62.2354 25.4533 62.4349 25.6048C62.64 25.7562 62.8993 25.8319 63.2128 25.8319Z" fill="#FEFEFE"/>
<path d="M69.2314 26.2513C69.1744 26.2513 69.1289 26.2339 69.0947 26.1989C69.0605 26.164 69.0434 26.1174 69.0434 26.0591V21.9089C69.0434 21.8506 69.0605 21.8041 69.0947 21.7691C69.1289 21.7283 69.1744 21.7079 69.2314 21.7079H69.3682C69.4252 21.7079 69.4708 21.7283 69.505 21.7691C69.5449 21.8041 69.5648 21.8506 69.5648 21.9089V22.3108C69.6674 22.1069 69.8156 21.9555 70.0094 21.8565C70.2031 21.7575 70.4425 21.7079 70.7274 21.7079H71.0437C71.1007 21.7079 71.1463 21.7254 71.1805 21.7604C71.2147 21.7953 71.2318 21.8419 71.2318 21.9002V22.0225C71.2318 22.0807 71.2147 22.1273 71.1805 22.1623C71.1463 22.1972 71.1007 22.2147 71.0437 22.2147H70.6761C70.3342 22.2147 70.0635 22.3166 69.864 22.5205C69.6646 22.7244 69.5648 23.0011 69.5648 23.3506V26.0591C69.5648 26.1174 69.5449 26.164 69.505 26.1989C69.4708 26.2339 69.4252 26.2513 69.3682 26.2513H69.2314Z" fill="#FEFEFE"/>
<path d="M74.9817 26.2513C74.9247 26.2513 74.8791 26.2339 74.8449 26.1989C74.8107 26.164 74.7936 26.1174 74.7936 26.0591V21.9002C74.7936 21.8419 74.8107 21.7953 74.8449 21.7604C74.8791 21.7254 74.9247 21.7079 74.9817 21.7079H75.127C75.184 21.7079 75.2296 21.7254 75.2638 21.7604C75.298 21.7953 75.3151 21.8419 75.3151 21.9002V26.0591C75.3151 26.1174 75.298 26.164 75.2638 26.1989C75.2296 26.2339 75.184 26.2513 75.127 26.2513H74.9817ZM74.8876 20.773C74.8307 20.773 74.7851 20.7556 74.7509 20.7206C74.7167 20.6857 74.6996 20.6391 74.6996 20.5808V20.2488C74.6996 20.1906 74.7167 20.144 74.7509 20.109C74.7851 20.0682 74.8307 20.0478 74.8876 20.0478H75.2125C75.2695 20.0478 75.3151 20.0682 75.3493 20.109C75.3892 20.144 75.4091 20.1906 75.4091 20.2488V20.5808C75.4091 20.6391 75.3892 20.6857 75.3493 20.7206C75.3151 20.7556 75.2695 20.773 75.2125 20.773H74.8876Z" fill="#FEFEFE"/>
<path d="M80.8858 26.3387C80.5894 26.3387 80.333 26.2979 80.1164 26.2164C79.9056 26.1348 79.7317 26.0387 79.595 25.9281C79.4582 25.8116 79.3556 25.698 79.2872 25.5873C79.2245 25.4766 79.1903 25.3922 79.1846 25.3339C79.1789 25.2698 79.1989 25.2232 79.2445 25.1941C79.2901 25.1592 79.3328 25.1417 79.3727 25.1417H79.5009C79.5351 25.1417 79.5636 25.1475 79.5864 25.1592C79.6149 25.1708 79.6491 25.2029 79.689 25.2553C79.7631 25.3543 79.8486 25.4504 79.9455 25.5436C80.0423 25.631 80.1649 25.7009 80.313 25.7533C80.4669 25.8057 80.6578 25.8319 80.8858 25.8319C81.2277 25.8319 81.5098 25.765 81.7321 25.631C81.9544 25.497 82.0655 25.299 82.0655 25.0369C82.0655 24.8738 82.0199 24.7427 81.9287 24.6437C81.8432 24.5447 81.6951 24.4573 81.4842 24.3816C81.2733 24.3058 80.9884 24.2272 80.6293 24.1456C80.2703 24.0583 79.9939 23.9534 79.8001 23.8311C79.6121 23.7088 79.4838 23.569 79.4154 23.4117C79.3471 23.2486 79.3129 23.0739 79.3129 22.8875C79.3129 22.6836 79.3699 22.4856 79.4838 22.2933C79.5978 22.0953 79.7659 21.9351 79.9882 21.8128C80.2162 21.6846 80.5011 21.6206 80.8431 21.6206C81.1223 21.6206 81.3588 21.6584 81.5526 21.7342C81.7521 21.8099 81.9145 21.9031 82.0399 22.0137C82.1652 22.1186 82.2564 22.2234 82.3134 22.3283C82.3761 22.4331 82.4103 22.5176 82.416 22.5817C82.4217 22.6399 82.4046 22.6865 82.3647 22.7215C82.3248 22.7564 82.2792 22.7739 82.2279 22.7739H82.0997C82.0541 22.7739 82.0171 22.7652 81.9886 22.7477C81.9601 22.7244 81.9344 22.6953 81.9116 22.6603C81.8546 22.5671 81.7862 22.4797 81.7065 22.3982C81.6267 22.3166 81.5184 22.2526 81.3816 22.206C81.2505 22.1535 81.071 22.1273 80.8431 22.1273C80.5011 22.1273 80.2475 22.2001 80.0822 22.3458C79.917 22.4856 79.8343 22.6661 79.8343 22.8875C79.8343 23.0156 79.8685 23.1292 79.9369 23.2282C80.0053 23.3214 80.1335 23.4088 80.3216 23.4904C80.5097 23.5661 80.7832 23.6476 81.1423 23.735C81.507 23.8165 81.7948 23.9185 82.0057 24.0408C82.2165 24.1573 82.3647 24.2971 82.4502 24.4602C82.5414 24.6233 82.587 24.8155 82.587 25.0369C82.587 25.2698 82.5214 25.4854 82.3903 25.6834C82.265 25.8815 82.0741 26.0416 81.8176 26.164C81.5668 26.2805 81.2562 26.3387 80.8858 26.3387Z" fill="#FEFEFE"/>
<path d="M88.1109 26.3387C87.5581 26.3387 87.1193 26.1552 86.7945 25.7883C86.4696 25.4155 86.2844 24.9291 86.2388 24.3291C86.2331 24.2418 86.2303 24.1253 86.2303 23.9796C86.2303 23.834 86.2331 23.7175 86.2388 23.6301C86.2673 23.2341 86.3585 22.8846 86.5124 22.5817C86.6662 22.2788 86.8771 22.0429 87.145 21.8739C87.4185 21.705 87.7405 21.6206 88.1109 21.6206C88.5099 21.6206 88.849 21.7108 89.1282 21.8914C89.4075 22.072 89.6212 22.3312 89.7694 22.669C89.9232 23.0069 90.0002 23.4088 90.0002 23.8748V24.0059C90.0002 24.0641 89.9802 24.1107 89.9403 24.1456C89.9061 24.1806 89.8605 24.1981 89.8036 24.1981H86.7603C86.7603 24.1981 86.7603 24.2097 86.7603 24.233C86.7603 24.2563 86.7603 24.2738 86.7603 24.2854C86.7717 24.5476 86.8315 24.798 86.9398 25.0369C87.0481 25.2698 87.2019 25.4621 87.4014 25.6135C87.6009 25.7591 87.8374 25.8319 88.1109 25.8319C88.356 25.8319 88.5583 25.7941 88.7179 25.7184C88.8832 25.6426 89.0142 25.5611 89.1111 25.4737C89.208 25.3805 89.2707 25.3106 89.2992 25.264C89.3505 25.1883 89.3904 25.1446 89.4189 25.133C89.4474 25.1155 89.493 25.1068 89.5556 25.1068H89.6924C89.7437 25.1068 89.7865 25.1242 89.8207 25.1592C89.8605 25.1883 89.8776 25.2291 89.8719 25.2815C89.8662 25.363 89.8206 25.465 89.7352 25.5873C89.6554 25.7038 89.5386 25.8203 89.3847 25.9368C89.2365 26.0533 89.0541 26.1494 88.8376 26.2251C88.621 26.3008 88.3788 26.3387 88.1109 26.3387ZM86.7603 23.7088H89.4787V23.6738C89.4787 23.3826 89.4246 23.1205 89.3163 22.8875C89.208 22.6545 89.0513 22.471 88.8461 22.337C88.641 22.1972 88.3959 22.1273 88.1109 22.1273C87.826 22.1273 87.5809 22.1972 87.3758 22.337C87.1763 22.471 87.0224 22.6545 86.9141 22.8875C86.8116 23.1205 86.7603 23.3826 86.7603 23.6738V23.7088Z" fill="#FEFEFE"/>
<path d="M27.2848 13.302C26.966 13.302 26.8066 13.1391 26.8066 12.8133V1.62796C26.8066 1.30218 26.966 1.13928 27.2848 1.13928H28.6129C29.0095 1.13928 29.3141 1.31666 29.5266 1.6714L34.5629 10.0876H34.5841C34.57 9.87038 34.5629 9.65319 34.5629 9.436V1.62796C34.5629 1.30218 34.7222 1.13928 35.041 1.13928H35.9547C36.2735 1.13928 36.4329 1.30218 36.4329 1.62796V12.8133C36.4329 13.1391 36.2735 13.302 35.9547 13.302H34.9879C34.5912 13.302 34.2866 13.1246 34.0741 12.7699L28.6766 3.83246H28.6554C28.6695 4.04965 28.6766 4.26684 28.6766 4.48403V12.8133C28.6766 13.1391 28.5173 13.302 28.1985 13.302H27.2848Z" fill="#FEFEFE"/>
<path d="M40.9068 13.302C40.5952 13.302 40.4995 13.1246 40.62 12.7699L44.3387 1.80172C44.4875 1.36009 44.6787 1.13928 44.9125 1.13928H46.315C46.5487 1.13928 46.74 1.36009 46.8887 1.80172L50.6075 12.7699C50.7279 13.1246 50.6322 13.302 50.3206 13.302H49.2581C49.0314 13.302 48.872 13.1608 48.78 12.8785L47.8556 10.0876H43.3718L42.4475 12.8785C42.3554 13.1608 42.196 13.302 41.9693 13.302H40.9068ZM43.85 8.65411H47.3775L46.1662 4.98357C46.0529 4.63607 45.9502 4.28856 45.8581 3.94105C45.766 3.58631 45.6916 3.24604 45.635 2.92025H45.5925C45.5358 3.24604 45.4614 3.58631 45.3693 3.94105C45.2773 4.28856 45.1745 4.63607 45.0612 4.98357L43.85 8.65411Z" fill="#FEFEFE"/>
<path d="M54.9114 13.302C54.5927 13.302 54.4333 13.1391 54.4333 12.8133V1.62796C54.4333 1.30218 54.5927 1.13928 54.9114 1.13928H56.8877C57.1214 1.13928 57.2808 1.28046 57.3658 1.56281L59.7777 9.37084C59.8839 9.71835 59.9902 10.0659 60.0964 10.4134C60.2027 10.7609 60.3018 11.1156 60.3939 11.4776H60.4364C60.5285 11.1156 60.6277 10.7609 60.7339 10.4134C60.8402 10.0659 60.9464 9.71835 61.0527 9.37084L63.4645 1.56281C63.5495 1.28046 63.7089 1.13928 63.9427 1.13928H65.9189C66.2377 1.13928 66.397 1.30218 66.397 1.62796V12.8133C66.397 13.1391 66.2377 13.302 65.9189 13.302H65.0052C64.6864 13.302 64.527 13.1391 64.527 12.8133V3.85418C64.527 3.63699 64.5341 3.41979 64.5483 3.2026H64.527L61.5095 12.6396C61.3679 13.0812 61.1766 13.302 60.9358 13.302H59.8945C59.6537 13.302 59.4625 13.0812 59.3208 12.6396L56.3033 3.2026H56.282C56.2962 3.41979 56.3033 3.63699 56.3033 3.85418V12.8133C56.3033 13.1391 56.1439 13.302 55.8252 13.302H54.9114Z" fill="#FEFEFE"/>
<path d="M71.9548 13.302C71.636 13.302 71.4766 13.1391 71.4766 12.8133V1.62796C71.4766 1.30218 71.636 1.13928 71.9548 1.13928H72.8685C73.1872 1.13928 73.3466 1.30218 73.3466 1.62796V12.8133C73.3466 13.1391 73.1872 13.302 72.8685 13.302H71.9548Z" fill="#FEFEFE"/>
<path d="M78.9044 13.302C78.5856 13.302 78.4262 13.1391 78.4262 12.8133V1.62796C78.4262 1.30218 78.5856 1.13928 78.9044 1.13928H82.91C84.5533 1.13928 85.7114 1.43249 86.3843 2.01891C87.0573 2.60533 87.3937 3.41979 87.3937 4.46231C87.3937 5.43244 87.1281 6.21433 86.5968 6.80798C86.0727 7.3944 85.1979 7.76001 83.9725 7.9048V7.92652C84.4754 8.21611 84.8579 8.50932 85.12 8.80615C85.382 9.09573 85.5946 9.3636 85.7575 9.60975L87.7443 12.6613C88.0206 13.0884 87.9285 13.302 87.4681 13.302H86.2993C86.0585 13.302 85.8566 13.1681 85.6937 12.9002L83.845 9.8921C83.4837 9.30569 83.126 8.88216 82.7718 8.62153C82.4248 8.3609 82.0104 8.23059 81.5287 8.23059H80.2962V12.8133C80.2962 13.1391 80.1368 13.302 79.8181 13.302H78.9044ZM80.2962 6.81884H82.5381C83.381 6.81884 84.0716 6.64509 84.61 6.29758C85.1483 5.95008 85.4175 5.33832 85.4175 4.46231C85.4175 3.82522 85.2085 3.35102 84.7906 3.03971C84.3727 2.72116 83.6537 2.56189 82.6337 2.56189H80.2962V6.81884Z" fill="#FEFEFE"/>
<path d="M0 0H6.24955V23.4358C6.24955 25.593 4.25096 27.3418 1.78558 27.3418H0V0Z" fill="#FF9A00"/>
<path d="M15.6239 3.90597C15.6239 1.74876 17.6225 0 20.0879 0H21.8734V27.3418H15.6239V3.90597Z" fill="#FF9A00"/>
<path d="M0 0L15.6239 27.3418H21.8734L7.42134 0H0Z" fill="#FF7400"/>
<path fill-rule="evenodd" clip-rule="evenodd" d="M26.2026 16.8037H89.4305V17.3733H26.2026V16.8037Z" fill="#FF7400"/>
</svg>
