<svg width="50" height="28" viewBox="0 0 50 28" fill="none" xmlns="http://www.w3.org/2000/svg">
<path d="M30.0397 7.2854C30.0387 7.43678 30.0331 7.58809 30.0227 7.73912C30.0176 7.81377 30.0097 7.88821 30.0018 7.96264C29.975 8.21505 30.0344 7.75459 29.9952 8.00423C29.9462 8.31722 29.8664 8.62479 29.7683 8.92573C29.7459 8.99441 29.721 9.06222 29.6961 9.12998C29.6814 9.17021 29.5885 9.39748 29.6847 9.16994C29.6289 9.30182 29.566 9.43054 29.5009 9.55797C29.3607 9.83247 29.1945 10.0931 29.0139 10.3427C28.8721 10.5385 29.1403 10.1861 28.9896 10.3749C28.9455 10.4302 28.8993 10.484 28.8532 10.5377C28.7611 10.6451 28.6634 10.7476 28.5639 10.8482C28.4645 10.9488 28.3597 11.0442 28.2534 11.1375C28.2003 11.1842 28.1454 11.2291 28.0907 11.2739C28.0087 11.3389 28.017 11.3329 28.1154 11.256C28.0776 11.2844 28.0395 11.3123 28.001 11.3398C27.7705 11.5067 27.5255 11.6528 27.2737 11.7852C27.147 11.8519 27.0169 11.9116 26.8857 11.9689C27.1117 11.8701 26.8862 11.965 26.8458 11.9804C26.7557 12.0147 26.6642 12.0451 26.5727 12.075C26.2944 12.1657 26.0083 12.2306 25.72 12.2795C25.4709 12.3217 25.9305 12.2561 25.6784 12.286C25.6042 12.2949 25.5296 12.3009 25.455 12.3069C25.2787 12.3213 25.1018 12.3245 24.925 12.3234C24.774 12.3225 24.6232 12.3131 24.4727 12.3009C24.3983 12.2944 24.3241 12.2865 24.25 12.2772C24.503 12.3073 24.2542 12.2746 24.2096 12.267C23.8977 12.2142 23.5917 12.1309 23.2925 12.0292C23.2242 12.0061 23.1567 11.9804 23.0894 11.9547C22.8601 11.8674 23.2752 12.0382 23.051 11.9401C22.9199 11.8828 22.792 11.8185 22.6655 11.7519C22.3928 11.6085 22.1342 11.4394 21.887 11.2559C22.082 11.4006 21.8903 11.2562 21.8569 11.229C21.8024 11.1839 21.7487 11.1378 21.6958 11.0908C21.5895 10.9974 21.4882 10.8985 21.3888 10.7978C21.2892 10.6972 21.1951 10.5913 21.103 10.484C21.0569 10.4302 21.0127 10.3749 20.9685 10.3196C21.1265 10.5174 20.9336 10.2664 20.9059 10.2273C20.7417 9.99464 20.5984 9.74777 20.4689 9.49434C20.4364 9.43065 20.4062 9.36577 20.3759 9.30095C20.3576 9.26159 20.2651 9.03622 20.3583 9.26419C20.2945 9.10816 20.2403 8.94848 20.19 8.78767C20.1025 8.5079 20.0411 8.22053 19.9957 7.9311C20.0352 8.18307 19.9975 7.93338 19.9927 7.88842C19.9852 7.81378 19.9791 7.73901 19.9745 7.66414C19.9624 7.48748 19.9613 7.31021 19.9646 7.13322C19.9674 6.98261 19.9786 6.83233 19.9927 6.68243C19.9969 6.6378 20.0322 6.38675 19.9957 6.63976C20.0062 6.56662 20.0194 6.49398 20.0327 6.42134C20.0893 6.11068 20.1763 5.80615 20.2814 5.50863C20.3054 5.44071 20.3319 5.37366 20.3583 5.30666C20.2681 5.53529 20.358 5.30987 20.376 5.26991C20.4348 5.13966 20.5006 5.01267 20.5687 4.88704C20.6364 4.76184 20.7109 4.64039 20.7873 4.5204C20.8255 4.46052 20.8658 4.40204 20.906 4.34363C20.933 4.30448 21.1245 4.05132 20.9686 4.25133C21.1426 4.02797 21.3361 3.82036 21.5397 3.62387C21.6415 3.52555 21.7484 3.43271 21.8569 3.34188C21.8896 3.31452 22.0807 3.16771 21.887 3.31495C21.9623 3.25773 22.0399 3.2036 22.1178 3.14996C22.3525 2.98833 22.6012 2.84793 22.8563 2.72143C22.9207 2.69002 22.9856 2.65978 23.051 2.6307C23.2741 2.52994 22.8612 2.70622 23.0894 2.61615C23.2464 2.55415 23.407 2.50181 23.5685 2.45344C23.7084 2.41158 23.8505 2.37749 23.993 2.346C24.0648 2.33014 24.1372 2.31695 24.2096 2.30376C24.2537 2.29572 24.5031 2.26038 24.2501 2.2936C24.5745 2.25098 24.9025 2.24099 25.2292 2.2512C25.3794 2.25587 25.5291 2.26895 25.6784 2.28481C25.9308 2.31163 25.4704 2.25223 25.72 2.29138C25.7929 2.30278 25.8653 2.3169 25.9376 2.33101C26.247 2.39138 26.5501 2.48194 26.8458 2.59047C26.8861 2.60524 27.1133 2.69819 26.8857 2.60193C26.9518 2.62984 27.0167 2.66013 27.0817 2.69043C27.2111 2.75074 27.3372 2.81807 27.4619 2.88751C27.5862 2.95673 27.7067 3.03252 27.8257 3.11038C27.8851 3.14925 27.9431 3.19019 28.001 3.23112C28.0357 3.25566 28.2274 3.40252 28.0353 3.25284C28.2586 3.4269 28.4663 3.6204 28.6628 3.82394C28.7612 3.92574 28.8539 4.03269 28.9448 4.14117C28.9722 4.17385 29.1189 4.36496 28.9717 4.1713C29.0146 4.22777 29.0555 4.2857 29.0964 4.34363C29.2606 4.57627 29.404 4.82308 29.5334 5.07652C29.566 5.14026 29.5962 5.20508 29.6265 5.26996C29.6448 5.30932 29.7373 5.53469 29.6441 5.30672C29.6987 5.44033 29.746 5.57688 29.7907 5.71407C29.8815 5.99232 29.9463 6.27839 29.9952 6.56673C30.0374 6.81583 29.9718 6.35624 30.0018 6.60832C30.0106 6.68265 30.0167 6.75724 30.0227 6.83179C30.035 6.98261 30.0387 7.13409 30.0397 7.2854C30.0429 7.80329 30.4694 8.23552 30.9898 8.23552C31.5053 8.23552 31.9432 7.80335 31.9399 7.2854C31.9233 4.62046 30.3555 2.09419 27.9106 0.989828C25.3545 -0.164698 22.3818 0.310577 20.2995 2.18366C18.2967 3.98535 17.5626 6.9603 18.425 9.49928C18.8429 10.7296 19.6064 11.8497 20.6235 12.6617C21.7255 13.5416 22.9982 14.0453 24.3982 14.1941C26.3293 14.3993 28.2745 13.6721 29.7029 12.3871C31.1322 11.1014 31.928 9.19546 31.9399 7.2854C31.9432 6.76745 31.5053 6.33529 30.9897 6.33529C30.4694 6.33529 30.0429 6.76756 30.0397 7.2854Z" fill="#69696A"/>
<path d="M31.8614 13.9852C31.9944 14.07 32.1251 14.1584 32.2533 14.2502C32.2786 14.2683 32.4871 14.4285 32.3121 14.2917C32.374 14.3401 32.4344 14.3905 32.4948 14.441C32.7562 14.6593 32.9988 14.8995 33.2277 15.1515C33.3335 15.268 33.4336 15.3894 33.5317 15.5123C33.3932 15.3389 33.5545 15.5459 33.5729 15.5712C33.6191 15.635 33.6643 15.6996 33.7084 15.7649C33.9018 16.0482 34.0706 16.3475 34.2227 16.6547C34.2575 16.7261 34.2913 16.7982 34.3238 16.8707C34.4341 17.113 34.2525 16.6902 34.3523 16.9376C34.4123 17.0863 34.4649 17.2378 34.515 17.3902C34.625 17.7245 34.7052 18.068 34.766 18.4143C34.7716 18.4467 34.8099 18.7185 34.7799 18.4876C34.7906 18.5698 34.7985 18.6524 34.8064 18.7349C34.8224 18.9017 34.8299 19.0691 34.8346 19.2365C34.8371 19.323 34.8365 19.4095 34.8365 19.496V24.34C34.8365 24.4014 34.8346 24.4318 34.8316 24.493C34.8193 24.7458 34.8712 24.2907 34.827 24.5367C34.8141 24.609 34.7942 24.6799 34.7743 24.7505C34.7625 24.7924 34.6746 25.021 34.77 24.7955C34.7141 24.9277 34.6399 25.0513 34.5607 25.1705C34.4278 25.3706 34.6902 25.0205 34.5341 25.2026C34.4723 25.2746 34.403 25.3397 34.3331 25.4036C34.1559 25.5652 34.4969 25.2913 34.301 25.4303C34.2427 25.4716 34.1807 25.5075 34.1189 25.5433C34.0567 25.5793 33.9913 25.6094 33.9261 25.6395C34.1458 25.5383 33.925 25.6299 33.8811 25.6438C33.811 25.6659 33.739 25.6812 33.6673 25.6965C33.4227 25.7486 33.8758 25.6806 33.6235 25.7011C33.5713 25.7053 33.518 25.706 33.4656 25.706H16.5328C16.4657 25.706 16.4472 25.7043 16.3804 25.7011C16.1276 25.6888 16.5827 25.7407 16.3367 25.6965C16.2644 25.6835 16.1935 25.6637 16.1229 25.6438C16.0764 25.63 16.0304 25.6146 15.9849 25.5979C16.0996 25.6496 16.1087 25.6534 16.0124 25.6093C15.8823 25.5494 15.7613 25.4716 15.6448 25.3889C15.8384 25.5264 15.6527 25.3869 15.6183 25.3556C15.5658 25.3076 15.5177 25.255 15.4698 25.2025C15.3082 25.0253 15.5821 25.3663 15.4431 25.1704C15.4018 25.1121 15.3659 25.0501 15.3301 24.9883C15.294 24.9261 15.264 24.8607 15.2339 24.7955C15.3389 25.0234 15.224 24.7307 15.2098 24.6801C15.1899 24.6089 15.1768 24.5362 15.1637 24.4637C15.2078 24.7091 15.171 24.4661 15.1686 24.4172C15.1671 24.3855 15.1674 24.3533 15.1674 24.3215V19.6639C15.1674 19.409 15.1686 19.1549 15.1844 18.9003C15.1896 18.817 15.1976 18.734 15.2055 18.651C15.2086 18.6188 15.2451 18.3443 15.2124 18.575C15.2354 18.4126 15.2666 18.2514 15.3003 18.091C15.3726 17.7481 15.475 17.412 15.5956 17.0832C15.6231 17.008 15.6532 16.9337 15.6832 16.8595C15.599 17.0677 15.7019 16.8226 15.715 16.7939C15.781 16.6492 15.854 16.5078 15.9291 16.3677C16.0913 16.0657 16.2791 15.7782 16.4815 15.5019C16.6371 15.2894 16.3615 15.6504 16.5259 15.4449C16.5751 15.3834 16.6262 15.3235 16.6774 15.2635C16.7796 15.1438 16.8875 15.029 16.997 14.9161C17.1066 14.8031 17.2216 14.6954 17.3381 14.5896C17.3967 14.537 17.4561 14.4854 17.5164 14.4347C17.5465 14.409 17.8111 14.201 17.6321 14.3376C17.7785 14.2259 17.9307 14.1221 18.0851 14.0216C18.5182 13.7395 18.6972 13.1847 18.4259 12.7216C18.1738 12.2912 17.5605 12.0979 17.126 12.3808C14.7492 13.9284 13.2671 16.5694 13.2671 19.4179V23.6197C13.2671 24.415 13.2865 25.145 13.6552 25.8844C14.1889 26.9545 15.3868 27.6064 16.5601 27.6064H33.4601C34.8403 27.6064 36.0425 26.7351 36.5347 25.4613C36.7821 24.8212 36.7368 24.1279 36.7368 23.4553V19.4057C36.7368 17.9345 36.3372 16.479 35.6015 15.2068C34.928 14.042 33.9514 13.066 32.8206 12.3445C32.3836 12.0656 31.7746 12.2518 31.5207 12.6853C31.2512 13.1452 31.4257 13.7072 31.8614 13.9852ZM44.9763 12.5684C44.975 12.7186 44.9664 12.8686 44.9507 13.018C44.9772 12.7658 44.9484 13.0107 44.94 13.0569C44.9268 13.1288 44.9097 13.1998 44.8925 13.2708C44.8586 13.4112 44.8129 13.5486 44.7635 13.6842C44.68 13.9135 44.8489 13.4995 44.749 13.7213C44.71 13.8079 44.6656 13.8918 44.6203 13.9751C44.5529 14.0997 44.4753 14.2185 44.3948 14.3349C44.2579 14.5327 44.523 14.18 44.3724 14.3672C44.3283 14.4222 44.2811 14.4747 44.234 14.5271C44.1399 14.632 44.0374 14.7291 43.9325 14.8232C43.88 14.8703 43.8251 14.9145 43.7701 14.9587C43.9673 14.8001 43.7168 14.989 43.6758 15.0163C43.5577 15.0949 43.4334 15.1638 43.3074 15.229C43.2441 15.2618 43.1791 15.2912 43.1141 15.3204C43.3386 15.2194 43.1166 15.3148 43.0745 15.3302C42.9384 15.3797 42.7985 15.4177 42.6578 15.4517C42.5866 15.4689 42.5145 15.4821 42.4426 15.4952C42.3346 15.5122 42.3457 15.5113 42.4757 15.4928C42.4264 15.4985 42.377 15.5031 42.3275 15.507C42.177 15.5199 42.0257 15.5199 41.8748 15.5156C41.7999 15.5134 41.7252 15.507 41.6506 15.5006C41.3987 15.479 41.8576 15.5357 41.6099 15.4952C41.4659 15.4718 41.3242 15.4361 41.1839 15.3966C41.1144 15.3771 41.0461 15.3536 40.9779 15.3302C40.9328 15.3142 40.888 15.2974 40.8434 15.2798C40.96 15.3304 40.9699 15.3342 40.8733 15.2911C40.7436 15.2327 40.6189 15.1637 40.4966 15.0916C40.4356 15.0556 40.3766 15.0163 40.3177 14.9772C40.2819 14.9533 40.0894 14.8092 40.2823 14.9588C40.0407 14.7714 39.8271 14.55 39.6358 14.3123C39.7882 14.5016 39.6424 14.313 39.6174 14.2768C39.5771 14.2187 39.5401 14.1583 39.503 14.0981C39.4285 13.9769 39.3641 13.8499 39.3034 13.7214C39.1995 13.5014 39.3767 13.912 39.2889 13.6842C39.263 13.6171 39.2409 13.5485 39.2188 13.48C39.1666 13.3182 39.1298 13.1519 39.0993 12.9848C39.0542 12.7378 39.1204 13.1955 39.0939 12.9441C39.0861 12.8695 39.0825 12.7947 39.0789 12.7198C39.0718 12.569 39.0775 12.4178 39.0875 12.2673C39.0906 12.2218 39.1238 11.9715 39.0874 12.2249C39.0978 12.1522 39.1124 12.0802 39.127 12.0082C39.1605 11.8424 39.2095 11.6801 39.2644 11.5203C39.2786 11.4788 39.3715 11.2534 39.2741 11.4807C39.3022 11.4152 39.3339 11.3512 39.3655 11.2874C39.4285 11.1602 39.5018 11.0385 39.5783 10.919C39.6164 10.8595 39.6576 10.8021 39.699 10.7447C39.5577 10.9411 39.6965 10.7501 39.7252 10.7156C39.8306 10.5894 39.9472 10.4729 40.0675 10.3609C40.1191 10.3129 40.1733 10.2676 40.2274 10.2225C40.3089 10.1572 40.3006 10.1635 40.2024 10.2413C40.2403 10.2135 40.2788 10.1863 40.3178 10.1599C40.4539 10.0657 40.5982 9.98406 40.745 9.90794C40.8083 9.87515 40.8734 9.84583 40.9384 9.81657C40.7046 9.92184 40.9986 9.79973 41.046 9.78345C41.2296 9.72041 41.4192 9.6766 41.6099 9.64174C41.8569 9.59663 41.3992 9.66286 41.6506 9.63642C41.7502 9.62595 41.8503 9.62214 41.9504 9.61927C42.1258 9.61427 42.3014 9.62584 42.4758 9.64419C42.2236 9.61769 42.4685 9.64647 42.5148 9.65494C42.6105 9.67237 42.7049 9.69614 42.7988 9.72074C42.892 9.74512 42.9834 9.77558 43.0745 9.80679C43.1196 9.82275 43.1645 9.83955 43.209 9.85718C43.0924 9.80657 43.0825 9.80283 43.1792 9.84588C43.3304 9.91397 43.475 9.99578 43.6162 10.0825C43.6764 10.1196 43.7347 10.1599 43.7928 10.2001C43.8771 10.262 43.8695 10.2548 43.7701 10.1783C43.807 10.2075 43.8434 10.2372 43.8793 10.2677C44.0055 10.3731 44.122 10.4896 44.234 10.6099C44.2981 10.6788 44.3577 10.7515 44.4166 10.8248C44.2579 10.6276 44.4469 10.8781 44.4742 10.9191C44.566 11.057 44.645 11.203 44.7186 11.3512C44.7383 11.3911 44.8306 11.6141 44.7377 11.3859C44.7739 11.4748 44.8042 11.5658 44.8337 11.6571C44.8858 11.8189 44.9227 11.9852 44.9532 12.1523C44.9701 12.2602 44.9693 12.2491 44.9508 12.119C44.9564 12.1684 44.9611 12.2178 44.9649 12.2674C44.9735 12.3674 44.9754 12.468 44.9763 12.5684C44.9813 13.0863 45.4048 13.5185 45.9264 13.5185C46.4407 13.5185 46.8815 13.0864 46.8766 12.5684C46.8634 11.1845 46.2744 9.83421 45.2229 8.92389C44.0864 7.94006 42.6495 7.58591 41.1775 7.79743C39.8236 7.99196 38.6247 8.88605 37.8994 10.0195C37.1472 11.1947 36.9828 12.7335 37.4087 14.0537C37.7637 15.154 38.5078 16.0748 39.4773 16.6952C40.4931 17.3452 41.7014 17.508 42.8751 17.3394C45.1801 17.0081 46.855 14.8357 46.8766 12.5684C46.8815 12.0505 46.4407 11.6183 45.9264 11.6183C45.4048 11.6183 44.9813 12.0506 44.9763 12.5684Z" fill="#69696A"/>
<path d="M46.3262 17.2179C46.3921 17.2602 46.4574 17.3036 46.5219 17.348C46.5486 17.3664 46.7548 17.5254 46.5796 17.3871C46.7021 17.4838 46.8175 17.5894 46.93 17.6975C47.0426 17.8056 47.1472 17.9218 47.2487 18.0402C47.27 18.0651 47.4276 18.2715 47.2937 18.0932C47.3563 18.1767 47.4142 18.2636 47.4713 18.3509C47.5573 18.4825 47.6335 18.6202 47.7061 18.7594C47.7426 18.8294 47.7756 18.9011 47.8085 18.9728C47.7142 18.7678 47.8211 19.0075 47.8332 19.0391C47.8903 19.1886 47.936 19.342 47.9777 19.4963C47.9988 19.5742 48.0159 19.6531 48.033 19.732C48.0421 19.7738 48.0955 20.1181 48.065 19.8816C48.154 20.5705 48.0997 21.2956 48.0997 21.9879V23.6762C48.0997 23.7262 48.0973 23.776 48.0924 23.8258C48.1113 23.6951 48.1101 23.683 48.089 23.7895C48.0784 23.8366 47.9916 24.0559 48.0893 23.8323C48.061 23.8972 48.0236 23.9576 47.9865 24.0177C47.8633 24.2171 48.1182 23.8728 47.9608 24.0455C47.9287 24.0806 47.7495 24.2258 47.9415 24.081C47.8851 24.1235 47.8232 24.1579 47.7616 24.1921C47.5549 24.3067 47.9511 24.1299 47.7248 24.2041C47.6766 24.2199 47.4419 24.2574 47.6914 24.2267C47.6461 24.2323 47.5855 24.234 47.54 24.234H39.0894C38.5714 24.234 38.1393 24.6662 38.1393 25.1841C38.1393 25.7021 38.5714 26.1342 39.0894 26.1342H47.0584C47.728 26.1342 48.3913 26.1061 48.9567 25.6795C49.5968 25.1965 50 24.4874 50 23.6715V20.6215C50 19.4261 49.7005 18.2587 49.0255 17.2616C48.5654 16.582 47.9752 16.0201 47.2854 15.5772C46.8491 15.2972 46.2389 15.4856 45.9855 15.918C45.7154 16.3789 45.8913 16.9386 46.3262 17.2179ZM10.927 12.5684C10.9257 12.7186 10.9171 12.8686 10.9014 13.018C10.928 12.7658 10.8991 13.0107 10.8907 13.0569C10.8776 13.1288 10.8604 13.1998 10.8433 13.2707C10.8093 13.4112 10.7636 13.5486 10.7142 13.6842C10.6307 13.9135 10.7996 13.4995 10.6997 13.7213C10.6607 13.8079 10.6163 13.8918 10.5711 13.9751C10.5036 14.0997 10.4261 14.2185 10.3455 14.3349C10.2086 14.5327 10.4737 14.18 10.3231 14.3672C10.2789 14.4222 10.2318 14.4747 10.1848 14.5271C10.0906 14.632 9.9881 14.7291 9.88327 14.8232C9.83076 14.8703 9.77582 14.9145 9.72088 14.9587C9.91807 14.8001 9.66745 14.989 9.62652 15.0163C9.50838 15.0949 9.38405 15.1638 9.25814 15.229C9.19484 15.2618 9.1298 15.2912 9.06481 15.3204C9.28925 15.2194 9.06736 15.3148 9.02523 15.3302C8.88917 15.3797 8.74921 15.4177 8.60854 15.4517C8.53736 15.4689 8.46531 15.4821 8.39332 15.4952C8.28539 15.5122 8.29646 15.5113 8.42655 15.4928C8.3772 15.4985 8.32774 15.5031 8.27822 15.507C8.12772 15.5199 7.97641 15.5199 7.82564 15.5156C7.75072 15.5134 7.67601 15.507 7.60136 15.5006C7.34944 15.479 7.80838 15.5357 7.56064 15.4952C7.41666 15.4718 7.27496 15.4361 7.13466 15.3966C7.06522 15.3771 6.99692 15.3536 6.92873 15.3302C6.88359 15.3142 6.83876 15.2974 6.79425 15.2798C6.91076 15.3304 6.92075 15.3342 6.82406 15.2911C6.69435 15.2327 6.56975 15.1637 6.44738 15.0915C6.38641 15.0556 6.32745 15.0163 6.26859 14.9772C6.23276 14.9533 6.04024 14.8092 6.23309 14.9588C5.99149 14.7714 5.77795 14.55 5.58663 14.3123C5.73897 14.5016 5.59331 14.313 5.56828 14.2768C5.52799 14.2187 5.49091 14.1583 5.45388 14.0981C5.37939 13.9769 5.315 13.8499 5.25431 13.7214C5.15034 13.5014 5.3276 13.912 5.23981 13.6842C5.21391 13.6171 5.19181 13.5485 5.16972 13.48C5.11754 13.3182 5.08068 13.1519 5.05017 12.9848C5.00505 12.7378 5.07129 13.1955 5.04479 12.9441C5.03697 12.8695 5.03339 12.7947 5.02986 12.7198C5.02264 12.569 5.02839 12.4178 5.03844 12.2673C5.04148 12.2218 5.07471 11.9715 5.03833 12.2249C5.04875 12.1522 5.0633 12.0802 5.07791 12.0082C5.11141 11.8424 5.16043 11.6801 5.21527 11.5203C5.22949 11.4788 5.32239 11.2534 5.22499 11.4807C5.25306 11.4152 5.28476 11.3512 5.31636 11.2874C5.37939 11.1602 5.45269 11.0385 5.52908 10.919C5.56719 10.8595 5.60851 10.8021 5.64977 10.7447C5.50856 10.9411 5.64733 10.7501 5.6761 10.7156C5.78148 10.5894 5.89805 10.4729 6.01836 10.3609C6.06999 10.3129 6.12412 10.2676 6.17825 10.2225C6.2598 10.1572 6.25144 10.1635 6.15322 10.2413C6.1912 10.2135 6.22968 10.1864 6.26865 10.1599C6.40476 10.0657 6.54907 9.98406 6.69587 9.90794C6.75918 9.87515 6.82422 9.84583 6.88921 9.81657C6.65543 9.92184 6.94942 9.79973 6.99682 9.78345C7.18038 9.72041 7.36997 9.6766 7.5607 9.64174C7.80762 9.59663 7.34999 9.66286 7.60141 9.63642C7.70099 9.62595 7.80116 9.62214 7.90116 9.61927C8.07664 9.61427 8.25216 9.62584 8.4266 9.64419C8.17442 9.61769 8.41933 9.64647 8.46559 9.65494C8.56125 9.67237 8.65561 9.69614 8.74964 9.72074C8.84281 9.74512 8.93429 9.77557 9.02534 9.80679C9.07048 9.82274 9.11531 9.83954 9.15982 9.85718C9.04331 9.80657 9.03332 9.80283 9.13001 9.84588C9.28127 9.91397 9.42591 9.99578 9.56701 10.0825C9.62728 10.1196 9.68548 10.1599 9.74363 10.2001C9.82789 10.262 9.82034 10.2548 9.72099 10.1783C9.75788 10.2074 9.79424 10.2372 9.83006 10.2677C9.95634 10.3731 10.0729 10.4896 10.1849 10.6099C10.2489 10.6788 10.3085 10.7515 10.3675 10.8248C10.2089 10.6276 10.3978 10.8781 10.4251 10.9191C10.5169 11.057 10.596 11.203 10.6694 11.3512C10.6892 11.3911 10.7814 11.6141 10.6886 11.3859C10.7247 11.4748 10.755 11.5658 10.7845 11.6571C10.8366 11.8189 10.8735 11.9852 10.904 12.1523C10.921 12.2602 10.9201 12.2491 10.9016 12.119C10.9072 12.1684 10.9119 12.2178 10.9157 12.2674C10.9242 12.3674 10.9261 12.468 10.927 12.5684C10.932 13.0863 11.3555 13.5185 11.8771 13.5185C12.3914 13.5185 12.8322 13.0864 12.8273 12.5684C12.8141 11.1845 12.2251 9.83421 11.1736 8.92389C10.0372 7.94006 8.60023 7.58591 7.12815 7.79743C5.77432 7.99196 4.57543 8.88605 3.85014 10.0195C3.09803 11.1947 2.93364 12.7335 3.3595 14.0537C3.71447 15.154 4.45854 16.0748 5.42804 16.6952C6.44385 17.3452 7.65218 17.508 8.82581 17.3394C11.1309 17.0081 12.8057 14.8357 12.8273 12.5684C12.8323 12.0505 12.3914 11.6183 11.8772 11.6183C11.3555 11.6183 10.932 12.0506 10.927 12.5684ZM10.914 24.2338H2.49789C2.41856 24.2338 2.18592 24.1986 2.41894 24.2389C2.34766 24.2266 2.27871 24.204 2.21019 24.1815C2.43073 24.2538 2.23044 24.1857 2.17979 24.1577C2.13527 24.133 1.96126 23.9907 2.14385 24.1422C2.10166 24.1072 1.90643 23.8769 2.05649 24.0757C2.01392 24.0193 1.97956 23.9573 1.94541 23.8958C1.8308 23.6892 2.00757 24.0853 1.93341 23.859C1.91761 23.8108 1.88009 23.5761 1.91082 23.8257C1.90561 23.7833 1.90349 23.7173 1.90349 23.6749V20.4619C1.90349 20.2939 1.91354 20.1268 1.92945 19.9597C1.95556 19.6854 1.89622 20.1556 1.94085 19.8856C1.95415 19.805 1.97158 19.7252 1.989 19.6454C2.02353 19.4875 2.07006 19.3323 2.12039 19.1788C2.14537 19.1027 2.1742 19.0279 2.20297 18.953C2.12148 19.1648 2.25048 18.8536 2.26866 18.816C2.33767 18.6734 2.41726 18.5362 2.5 18.4013C2.54127 18.334 2.58578 18.2688 2.6303 18.2037C2.648 18.1777 2.80675 17.9688 2.66988 18.1434C2.88021 17.8752 3.1248 17.6352 3.38638 17.4174C3.58775 17.2496 3.23192 17.5288 3.44398 17.3745C3.50772 17.3281 3.57374 17.2848 3.63965 17.2416C4.07193 16.9584 4.25234 16.4057 3.9805 15.9417C3.72891 15.5123 3.11421 15.3167 2.68058 15.6009C1.42561 16.4232 0.503513 17.6727 0.156585 19.1403C-0.0353382 19.9521 0.003155 20.7874 0.003155 21.6141V23.6654C0.003155 25.0283 1.13482 26.1341 2.49018 26.1341H10.9138C11.4318 26.1341 11.864 25.7019 11.864 25.184C11.864 24.666 11.4319 24.2338 10.914 24.2338Z" fill="#69696A"/>
</svg>
