<svg width="58" height="33" viewBox="0 0 58 33" fill="none" xmlns="http://www.w3.org/2000/svg">
<g opacity="0.7">
<path d="M34.8461 8.65561C34.845 8.83121 34.8385 9.00673 34.8265 9.18192C34.8205 9.26852 34.8114 9.35487 34.8022 9.44121C34.7711 9.734 34.84 9.19987 34.7946 9.48945C34.7377 9.85253 34.6452 10.2093 34.5313 10.5584C34.5054 10.6381 34.4764 10.7167 34.4476 10.7953C34.4305 10.842 34.3227 11.1056 34.4343 10.8417C34.3696 10.9947 34.2966 11.144 34.2212 11.2918C34.0585 11.6102 33.8657 11.9126 33.6562 12.202C33.4918 12.4292 33.8029 12.0205 33.6281 12.2394C33.5769 12.3036 33.5233 12.366 33.4699 12.4283C33.363 12.5529 33.2496 12.6717 33.1342 12.7884C33.0189 12.9052 32.8974 13.0158 32.7741 13.1241C32.7124 13.1783 32.6488 13.2303 32.5853 13.2823C32.4902 13.3577 32.4998 13.3508 32.6139 13.2615C32.5701 13.2944 32.5259 13.3268 32.4813 13.3587C32.2139 13.5523 31.9296 13.7218 31.6376 13.8754C31.4906 13.9527 31.3397 14.022 31.1875 14.0885C31.4496 13.9739 31.1881 14.0839 31.1412 14.1018C31.0367 14.1416 30.9306 14.1769 30.8244 14.2116C30.5017 14.3168 30.1698 14.3921 29.8353 14.4487C29.5464 14.4977 30.0795 14.4216 29.7871 14.4564C29.7009 14.4666 29.6144 14.4736 29.5279 14.4806C29.3234 14.4972 29.1181 14.501 28.9131 14.4997C28.738 14.4986 28.563 14.4877 28.3885 14.4736C28.3022 14.466 28.216 14.4569 28.1301 14.4461C28.4235 14.481 28.135 14.4431 28.0832 14.4343C27.7214 14.373 27.3664 14.2764 27.0194 14.1585C26.9401 14.1316 26.8619 14.1018 26.7837 14.072C26.5178 13.9707 26.9994 14.1689 26.7392 14.0551C26.5872 13.9886 26.4389 13.914 26.2921 13.8368C25.9757 13.6704 25.6758 13.4742 25.3891 13.2614C25.6152 13.4293 25.3928 13.2618 25.3541 13.2302C25.2909 13.1779 25.2286 13.1244 25.1672 13.0699C25.0439 12.9615 24.9264 12.8468 24.8111 12.73C24.6956 12.6133 24.5865 12.4905 24.4796 12.366C24.4261 12.3036 24.3749 12.2394 24.3236 12.1753C24.5069 12.4048 24.283 12.1136 24.251 12.0682C24.0605 11.7983 23.8942 11.512 23.7441 11.218C23.7063 11.1441 23.6713 11.0688 23.6362 10.9936C23.6149 10.948 23.5076 10.6866 23.6157 10.951C23.5418 10.77 23.4788 10.5848 23.4205 10.3982C23.319 10.0737 23.2477 9.74036 23.1951 9.40462C23.2409 9.6969 23.1972 9.40726 23.1916 9.35512C23.1829 9.26854 23.1759 9.1818 23.1705 9.09495C23.1565 8.89002 23.1552 8.68439 23.159 8.47908C23.1623 8.30438 23.1753 8.13005 23.1916 7.95616C23.1965 7.90439 23.2374 7.61318 23.1951 7.90666C23.2073 7.82183 23.2227 7.73756 23.238 7.6533C23.3037 7.29293 23.4046 6.93968 23.5265 6.59456C23.5544 6.51577 23.5851 6.43799 23.6158 6.36027C23.5111 6.62548 23.6153 6.36399 23.6362 6.31764C23.7044 6.16655 23.7808 6.01924 23.8598 5.87351C23.9384 5.72828 24.0247 5.5874 24.1134 5.44821C24.1576 5.37875 24.2044 5.31092 24.251 5.24315C24.2823 5.19774 24.5045 4.90407 24.3237 5.13609C24.5256 4.87699 24.75 4.63616 24.9861 4.40824C25.1042 4.29418 25.2283 4.18649 25.3541 4.08113C25.392 4.04938 25.6137 3.87909 25.3891 4.04989C25.4764 3.98351 25.5664 3.92072 25.6567 3.85849C25.929 3.67101 26.2175 3.50814 26.5134 3.3614C26.5881 3.32497 26.6634 3.28989 26.7393 3.25616C26.9981 3.13927 26.5191 3.34377 26.7838 3.23928C26.9659 3.16736 27.1522 3.10665 27.3396 3.05053C27.5019 3.00198 27.6666 2.96243 27.832 2.9259C27.9153 2.90751 27.9993 2.89221 28.0833 2.8769C28.1343 2.86758 28.4237 2.82658 28.1302 2.86512C28.5065 2.81569 28.887 2.8041 29.2659 2.81594C29.4402 2.82136 29.6139 2.83653 29.7871 2.85492C30.0799 2.88603 29.5458 2.81714 29.8353 2.86254C29.9199 2.87577 30.0038 2.89214 30.0877 2.90852C30.4467 2.97855 30.7982 3.0836 31.1413 3.2095C31.1879 3.22663 31.4516 3.33445 31.1876 3.22278C31.2641 3.25515 31.3395 3.2903 31.4148 3.32544C31.565 3.39541 31.7112 3.4735 31.856 3.55405C32.0001 3.63435 32.1399 3.72227 32.2779 3.81258C32.3468 3.85767 32.4141 3.90516 32.4813 3.95265C32.5215 3.98111 32.7439 4.15147 32.5211 3.97784C32.7801 4.17975 33.021 4.40421 33.2489 4.64032C33.363 4.7584 33.4707 4.88247 33.5761 5.0083C33.6078 5.04622 33.7781 5.2679 33.6073 5.04326C33.657 5.10876 33.7045 5.17595 33.7519 5.24315C33.9424 5.51302 34.1087 5.79932 34.2589 6.09331C34.2966 6.16724 34.3317 6.24244 34.3668 6.3177C34.3881 6.36336 34.4953 6.62479 34.3872 6.36034C34.4506 6.51533 34.5054 6.67372 34.5573 6.83287C34.6626 7.15564 34.7378 7.48747 34.7946 7.82196C34.8435 8.1109 34.7674 7.57779 34.8022 7.8702C34.8124 7.95642 34.8194 8.04295 34.8265 8.12942C34.8407 8.30438 34.845 8.48009 34.8461 8.65561C34.8499 9.25637 35.3446 9.75774 35.9483 9.75774C36.5463 9.75774 37.0542 9.25643 37.0504 8.65561C37.0311 5.56428 35.2125 2.6338 32.3763 1.35275C29.4114 0.0134966 25.963 0.564815 23.5476 2.73759C21.2243 4.82755 20.3727 8.27849 21.3731 11.2237C21.8579 12.6509 22.7436 13.9502 23.9233 14.8921C25.2016 15.9127 26.678 16.4971 28.302 16.6697C30.5421 16.9078 32.7985 16.0642 34.4555 14.5736C36.1135 13.0822 37.0365 10.8713 37.0504 8.65561C37.0542 8.05479 36.5462 7.55348 35.9482 7.55348C35.3446 7.55348 34.8499 8.05492 34.8461 8.65561Z" fill="#FD6807"/>
<path d="M36.9596 16.4273C37.1138 16.5257 37.2654 16.6282 37.4142 16.7347C37.4435 16.7557 37.6854 16.9416 37.4823 16.7828C37.5542 16.839 37.6242 16.8975 37.6942 16.956C37.9975 17.2092 38.2789 17.4879 38.5444 17.7803C38.6671 17.9153 38.7833 18.0562 38.8971 18.1987C38.7365 17.9975 38.9235 18.2377 38.9449 18.267C38.9985 18.3411 39.0509 18.416 39.102 18.4918C39.3264 18.8204 39.5222 19.1676 39.6986 19.5239C39.7391 19.6068 39.7782 19.6903 39.8159 19.7745C39.9438 20.0556 39.7332 19.5651 39.8489 19.8521C39.9185 20.0246 39.9796 20.2003 40.0377 20.3771C40.1653 20.7648 40.2583 21.1633 40.3288 21.5651C40.3354 21.6026 40.3798 21.9179 40.345 21.6501C40.3574 21.7455 40.3666 21.8412 40.3758 21.937C40.3943 22.1304 40.403 22.3246 40.4085 22.5188C40.4113 22.6191 40.4107 22.7195 40.4107 22.8198V28.4388C40.4107 28.5101 40.4084 28.5454 40.405 28.6163C40.3907 28.9095 40.451 28.3816 40.3997 28.6671C40.3846 28.751 40.3616 28.8331 40.3385 28.9151C40.3249 28.9636 40.2228 29.2288 40.3335 28.9673C40.2686 29.1206 40.1826 29.264 40.0908 29.4022C39.9366 29.6344 40.241 29.2283 40.0599 29.4394C39.9882 29.5229 39.9078 29.5985 39.8267 29.6726C39.6211 29.8601 40.0167 29.5423 39.7895 29.7036C39.7218 29.7516 39.6499 29.7932 39.5783 29.8347C39.5061 29.8764 39.4302 29.9114 39.3545 29.9462C39.6094 29.8289 39.3533 29.9351 39.3023 29.9513C39.221 29.9769 39.1376 29.9947 39.0543 30.0124C38.7706 30.0729 39.2962 29.994 39.0036 30.0177C38.943 30.0226 38.8812 30.0234 38.8204 30.0234H19.1784C19.1005 30.0234 19.0791 30.0215 19.0015 30.0177C18.7083 30.0034 19.2362 30.0637 18.9508 30.0124C18.867 29.9974 18.7848 29.9743 18.7028 29.9513C18.6489 29.9352 18.5955 29.9174 18.5427 29.898C18.6758 29.9579 18.6865 29.9624 18.5747 29.9113C18.4238 29.8417 18.2834 29.7516 18.1482 29.6556C18.3729 29.815 18.1574 29.6533 18.1176 29.6169C18.0566 29.5613 18.0009 29.5002 17.9453 29.4394C17.7578 29.2338 18.0756 29.6294 17.9143 29.4022C17.8663 29.3345 17.8247 29.2626 17.7832 29.1909C17.7414 29.1187 17.7065 29.0429 17.6717 28.9672C17.7934 29.2316 17.6602 28.892 17.6437 28.8333C17.6205 28.7508 17.6054 28.6665 17.5902 28.5824C17.6414 28.867 17.5987 28.5852 17.5959 28.5284C17.5942 28.4916 17.5945 28.4543 17.5945 28.4174V23.0146C17.5945 22.7189 17.5959 22.4242 17.6142 22.1288C17.6202 22.0322 17.6295 21.9359 17.6387 21.8396C17.6423 21.8022 17.6847 21.4839 17.6467 21.7515C17.6734 21.5631 17.7095 21.3761 17.7487 21.19C17.8325 20.7922 17.9514 20.4024 18.0912 20.0209C18.1231 19.9337 18.158 19.8476 18.1928 19.7614C18.0951 20.003 18.2146 19.7187 18.2297 19.6854C18.3063 19.5175 18.3909 19.3535 18.4781 19.191C18.6662 18.8407 18.8841 18.5072 19.1189 18.1867C19.2994 17.9402 18.9797 18.3589 19.1703 18.1205C19.2274 18.0492 19.2867 17.9797 19.346 17.9102C19.4646 17.7712 19.5898 17.6381 19.7169 17.5071C19.844 17.3761 19.9773 17.2511 20.1126 17.1284C20.1805 17.0674 20.2494 17.0075 20.3193 16.9487C20.3542 16.919 20.6612 16.6776 20.4535 16.8361C20.6234 16.7065 20.8 16.586 20.979 16.4695C21.4815 16.1423 21.6891 15.4987 21.3744 14.9616C21.0819 14.4623 20.3705 14.238 19.8665 14.5662C17.1094 16.3615 15.3901 19.425 15.3901 22.7293V27.6033C15.3901 28.5259 15.4126 29.3727 15.8404 30.2304C16.4595 31.4716 17.849 32.2278 19.2101 32.2278H38.814C40.4151 32.2278 41.8096 31.2171 42.3806 29.7395C42.6675 28.997 42.615 28.1928 42.615 27.4126V22.715C42.615 21.0084 42.1515 19.3202 41.2981 17.8443C40.5168 16.4932 39.3839 15.361 38.0722 14.524C37.5653 14.2006 36.8588 14.4165 36.5643 14.9194C36.2517 15.4529 36.4541 16.1048 36.9596 16.4273ZM52.1729 14.7838C52.1713 14.958 52.1614 15.1321 52.1431 15.3053C52.1739 15.0128 52.1404 15.2969 52.1307 15.3505C52.1154 15.4338 52.0955 15.5162 52.0756 15.5985C52.0363 15.7615 51.9832 15.9208 51.9259 16.0781C51.8291 16.3441 52.025 15.8639 51.9092 16.1212C51.864 16.2216 51.8124 16.319 51.7599 16.4156C51.6817 16.5601 51.5917 16.6979 51.4983 16.8329C51.3395 17.0624 51.647 16.6533 51.4723 16.8705C51.4211 16.9342 51.3664 16.9951 51.3118 17.0559C51.2025 17.1776 51.0836 17.2902 50.962 17.3994C50.9011 17.454 50.8374 17.5053 50.7737 17.5566C51.0024 17.3725 50.7118 17.5918 50.6643 17.6234C50.5272 17.7146 50.383 17.7944 50.2369 17.8701C50.1635 17.9082 50.0881 17.9422 50.0126 17.9762C50.273 17.8589 50.0156 17.9696 49.9668 17.9875C49.8089 18.045 49.6465 18.089 49.4833 18.1285C49.4008 18.1484 49.3171 18.1637 49.2337 18.1789C49.1085 18.1986 49.1213 18.1976 49.2722 18.1761C49.215 18.1827 49.1576 18.1881 49.1002 18.1926C48.9257 18.2076 48.7501 18.2075 48.5751 18.2025C48.4882 18.2 48.4016 18.1926 48.315 18.1851C48.0228 18.1601 48.5552 18.2258 48.2678 18.1789C48.1008 18.1517 47.9363 18.1104 47.7736 18.0645C47.693 18.0419 47.6138 18.0147 47.5347 17.9875C47.4823 17.9689 47.4303 17.9495 47.3787 17.929C47.5139 17.9877 47.5254 17.9921 47.4133 17.9422C47.2629 17.8744 47.1183 17.7944 46.9763 17.7107C46.9056 17.6689 46.8372 17.6234 46.7689 17.578C46.7273 17.5503 46.5041 17.3832 46.7278 17.5566C46.4475 17.3393 46.1997 17.0825 45.9779 16.8067C46.1546 17.0263 45.9855 16.8075 45.9565 16.7656C45.9098 16.6981 45.8668 16.6281 45.8238 16.5582C45.7374 16.4177 45.6627 16.2703 45.5923 16.1213C45.4717 15.8661 45.6773 16.3424 45.5755 16.0782C45.5454 16.0003 45.5198 15.9207 45.4941 15.8413C45.4336 15.6536 45.3908 15.4607 45.3555 15.2668C45.3032 14.9803 45.3799 15.5112 45.3493 15.2196C45.3401 15.1331 45.336 15.0463 45.3319 14.9595C45.3236 14.7845 45.3302 14.6091 45.3418 14.4345C45.3454 14.3818 45.384 14.0914 45.3417 14.3853C45.3538 14.301 45.3707 14.2175 45.3876 14.134C45.4265 13.9417 45.4834 13.7534 45.547 13.568C45.5635 13.5199 45.6712 13.2584 45.5583 13.5221C45.5909 13.4461 45.6276 13.3719 45.6643 13.2978C45.7373 13.1503 45.8224 13.0091 45.9111 12.8705C45.9553 12.8014 46.0032 12.7349 46.0511 12.6684C45.8872 12.8961 46.0483 12.6746 46.0816 12.6346C46.2038 12.4881 46.3391 12.353 46.4786 12.2231C46.5385 12.1674 46.6013 12.1149 46.6641 12.0626C46.7587 11.9868 46.749 11.9941 46.6351 12.0844C46.6791 12.0521 46.7237 12.0206 46.7689 11.99C46.9268 11.8807 47.0942 11.786 47.2645 11.6977C47.338 11.6596 47.4134 11.6256 47.4889 11.5917C47.2177 11.7138 47.5586 11.5722 47.6137 11.5533C47.8267 11.4801 48.0465 11.4293 48.2678 11.3889C48.5543 11.3366 48.0234 11.4134 48.315 11.3827C48.4305 11.3706 48.5467 11.3662 48.6627 11.3628C48.8663 11.357 49.0699 11.3704 49.2722 11.3917C48.9797 11.361 49.2638 11.3944 49.3175 11.4042C49.4285 11.4244 49.5379 11.452 49.647 11.4805C49.755 11.5088 49.8611 11.5441 49.9668 11.5803C50.0191 11.5989 50.0711 11.6183 50.1227 11.6388C49.9876 11.5801 49.976 11.5757 50.0881 11.6257C50.2635 11.7047 50.4313 11.7996 50.5951 11.9002C50.665 11.9432 50.7325 11.9899 50.7999 12.0366C50.8977 12.1084 50.8889 12.1 50.7737 12.0113C50.8165 12.0451 50.8587 12.0796 50.9002 12.115C51.0467 12.2373 51.1819 12.3724 51.3118 12.512C51.3861 12.5918 51.4552 12.6762 51.5235 12.7612C51.3395 12.5325 51.5588 12.8231 51.5904 12.8706C51.6969 13.0306 51.7886 13.1999 51.8738 13.3719C51.8967 13.4181 52.0038 13.6768 51.8961 13.4121C51.938 13.5152 51.9732 13.6208 52.0074 13.7267C52.0679 13.9143 52.1106 14.1073 52.146 14.3011C52.1657 14.4263 52.1647 14.4135 52.1432 14.2626C52.1497 14.3198 52.1552 14.3771 52.1596 14.4346C52.1696 14.5506 52.1718 14.6673 52.1729 14.7838C52.1786 15.3845 52.6699 15.886 53.275 15.886C53.8715 15.886 54.3829 15.3847 54.3771 14.7838C54.3618 13.1784 53.6786 11.6121 52.4589 10.5562C51.1406 9.41493 49.4738 9.00412 47.7662 9.24949C46.1956 9.47514 44.8049 10.5123 43.9636 11.827C43.0911 13.1903 42.9004 14.9754 43.3944 16.5068C43.8062 17.7831 44.6694 18.8513 45.794 19.5709C46.9723 20.3249 48.374 20.5138 49.7354 20.3181C52.4093 19.9338 54.3521 17.4138 54.3771 14.7838C54.3829 14.183 53.8715 13.6817 53.275 13.6817C52.6699 13.6817 52.1786 14.1831 52.1729 14.7838Z" fill="#FD6807"/>
<path d="M53.7384 20.1772C53.8149 20.2263 53.8905 20.2766 53.9654 20.3281C53.9964 20.3495 54.2356 20.5339 54.0323 20.3735C54.1745 20.4857 54.3083 20.6081 54.4389 20.7335C54.5694 20.8589 54.6908 20.9937 54.8085 21.1311C54.8332 21.16 55.016 21.3994 54.8607 21.1926C54.9334 21.2894 55.0005 21.3903 55.0668 21.4915C55.1665 21.6442 55.2548 21.8039 55.3391 21.9654C55.3814 22.0465 55.4197 22.1297 55.4579 22.2129C55.3485 21.9751 55.4725 22.2532 55.4866 22.2899C55.5528 22.4632 55.6058 22.6412 55.6542 22.8202C55.6786 22.9106 55.6984 23.0021 55.7183 23.0935C55.7288 23.1421 55.7908 23.5415 55.7554 23.2671C55.8586 24.0663 55.7957 24.9074 55.7957 25.7104V27.6688C55.7957 27.7269 55.7928 27.7847 55.7872 27.8424C55.8092 27.6908 55.8078 27.6768 55.7832 27.8003C55.771 27.8549 55.6702 28.1093 55.7836 27.85C55.7507 27.9252 55.7074 27.9953 55.6643 28.065C55.5214 28.2963 55.8172 27.897 55.6345 28.0972C55.5974 28.138 55.3894 28.3064 55.6122 28.1384C55.5467 28.1877 55.4749 28.2277 55.4034 28.2673C55.1637 28.4002 55.6233 28.1952 55.3607 28.2812C55.3048 28.2995 55.0326 28.343 55.3221 28.3074C55.2695 28.3139 55.1992 28.3159 55.1464 28.3159H45.3437C44.7428 28.3159 44.2415 28.8172 44.2415 29.418C44.2415 30.0188 44.7428 30.5202 45.3437 30.5202H54.5877C55.3645 30.5202 56.1339 30.4875 56.7898 29.9926C57.5323 29.4324 58 28.6099 58 27.6634V24.1255C58 22.7387 57.6526 21.3845 56.8696 20.2279C56.3358 19.4396 55.6513 18.7877 54.8511 18.2741C54.345 17.9492 53.6371 18.1677 53.3432 18.6694C53.0298 19.204 53.2339 19.8533 53.7384 20.1772ZM12.6754 14.7838C12.6738 14.958 12.6639 15.1321 12.6456 15.3053C12.6764 15.0128 12.643 15.2969 12.6332 15.3505C12.618 15.4338 12.598 15.5162 12.5782 15.5985C12.5388 15.7615 12.4858 15.9208 12.4285 16.0781C12.3316 16.3441 12.5275 15.8639 12.4117 16.1212C12.3664 16.2216 12.3149 16.319 12.2625 16.4156C12.1842 16.5601 12.0943 16.6979 12.0008 16.8329C11.842 17.0624 12.1495 16.6533 11.9748 16.8705C11.9236 16.9342 11.8689 16.9951 11.8143 17.0559C11.7051 17.1776 11.5862 17.2902 11.4646 17.3994C11.4037 17.454 11.34 17.5053 11.2762 17.5566C11.505 17.3725 11.2142 17.5918 11.1668 17.6234C11.0297 17.7146 10.8855 17.7944 10.7394 17.8701C10.666 17.9082 10.5906 17.9422 10.5152 17.9762C10.7755 17.8589 10.5181 17.9696 10.4693 17.9875C10.3114 18.045 10.1491 18.089 9.9859 18.1285C9.90334 18.1484 9.81976 18.1637 9.73625 18.1789C9.61105 18.1986 9.6239 18.1976 9.7748 18.1761C9.71755 18.1827 9.66018 18.1881 9.60274 18.1926C9.42816 18.2076 9.25264 18.2075 9.07775 18.2025C8.99083 18.2 8.90418 18.1926 8.81758 18.1851C8.52536 18.1601 9.05772 18.2258 8.77034 18.1789C8.60332 18.1517 8.43895 18.1104 8.27621 18.0645C8.19566 18.0419 8.11643 18.0147 8.03733 17.9875C7.98497 17.969 7.93296 17.9495 7.88133 17.929C8.01649 17.9877 8.02807 17.9921 7.91591 17.9422C7.76545 17.8744 7.62091 17.7944 7.47896 17.7107C7.40823 17.6689 7.33984 17.6234 7.27157 17.578C7.23 17.5503 7.00668 17.3832 7.23038 17.5566C6.95012 17.3393 6.70243 17.0825 6.48049 16.8067C6.65721 17.0263 6.48824 16.8075 6.4592 16.7656C6.41247 16.6981 6.36946 16.6281 6.32651 16.5582C6.2401 16.4177 6.1654 16.2703 6.09499 16.1213C5.97439 15.8661 6.18002 16.3424 6.07818 16.0782C6.04814 16.0003 6.02251 15.9207 5.99687 15.8413C5.93635 15.6536 5.89359 15.4607 5.85819 15.2668C5.80586 14.9803 5.88269 15.5112 5.85196 15.2196C5.84289 15.1331 5.83873 15.0463 5.83464 14.9595C5.82626 14.7845 5.83294 14.6091 5.84459 14.4345C5.84812 14.3818 5.88666 14.0914 5.84446 14.3853C5.85656 14.301 5.87343 14.2175 5.89038 14.134C5.92923 13.9417 5.9861 13.7534 6.04971 13.568C6.06621 13.5199 6.17397 13.2584 6.06099 13.5221C6.09355 13.4461 6.13033 13.3719 6.16698 13.2978C6.2401 13.1503 6.32512 13.0091 6.41373 12.8705C6.45794 12.8014 6.50587 12.7349 6.55373 12.6684C6.38993 12.8961 6.5509 12.6746 6.58428 12.6346C6.70652 12.4881 6.84174 12.353 6.9813 12.2231C7.04119 12.1674 7.10398 12.1149 7.16677 12.0626C7.26137 11.9868 7.25167 11.9941 7.13774 12.0844C7.18179 12.0521 7.22643 12.0206 7.27163 11.99C7.42952 11.8807 7.59692 11.786 7.76721 11.6977C7.84065 11.6596 7.9161 11.6256 7.99148 11.5917C7.72029 11.7138 8.06133 11.5722 8.11631 11.5533C8.32924 11.4801 8.54916 11.4293 8.77041 11.3889C9.05684 11.3366 8.52599 11.4134 8.81764 11.3827C8.93315 11.3706 9.04934 11.3662 9.16535 11.3628C9.3689 11.357 9.57251 11.3704 9.77486 11.3917C9.48232 11.361 9.76642 11.3944 9.82008 11.4042C9.93105 11.4244 10.0405 11.452 10.1496 11.4805C10.2577 11.5088 10.3638 11.5441 10.4694 11.5803C10.5218 11.5988 10.5738 11.6183 10.6254 11.6388C10.4902 11.5801 10.4787 11.5757 10.5908 11.6257C10.7663 11.7047 10.9341 11.7996 11.0977 11.9002C11.1676 11.9432 11.2352 11.9899 11.3026 12.0366C11.4003 12.1084 11.3916 12.1 11.2763 12.0113C11.3191 12.0451 11.3613 12.0797 11.4029 12.115C11.5494 12.2373 11.6846 12.3724 11.8144 12.512C11.8888 12.5918 11.9579 12.6762 12.0263 12.7612C11.8423 12.5325 12.0615 12.8231 12.0931 12.8706C12.1996 13.0306 12.2913 13.1999 12.3765 13.3719C12.3995 13.4181 12.5064 13.6768 12.3988 13.4121C12.4407 13.5152 12.4758 13.6208 12.51 13.7267C12.5705 13.9143 12.6133 14.1073 12.6487 14.3011C12.6683 14.4263 12.6673 14.4135 12.6458 14.2626C12.6524 14.3198 12.6579 14.3771 12.6623 14.4346C12.672 14.5506 12.6742 14.6673 12.6754 14.7838C12.6811 15.3845 13.1724 15.886 13.7775 15.886C14.374 15.886 14.8854 15.3847 14.8796 14.7838C14.8643 13.1784 14.1811 11.6121 12.9614 10.5562C11.6431 9.41493 9.97627 9.00412 8.26865 9.24949C6.69821 9.47514 5.3075 10.5123 4.46617 11.827C3.59372 13.1903 3.40302 14.9754 3.89703 16.5068C4.30878 17.7831 5.17191 18.8513 6.29653 19.5709C7.47487 20.3249 8.87653 20.5138 10.2379 20.3181C12.9118 19.9338 14.8546 17.4138 14.8797 14.7838C14.8854 14.183 14.374 13.6817 13.7776 13.6817C13.1723 13.6817 12.6811 14.1831 12.6754 14.7838ZM12.6602 28.3157H2.89755C2.80554 28.3157 2.53567 28.2748 2.80598 28.3216C2.72328 28.3073 2.6433 28.2811 2.56382 28.2551C2.81964 28.3389 2.58731 28.2599 2.52855 28.2273C2.47691 28.1987 2.27506 28.0337 2.48686 28.2095C2.43793 28.1688 2.21145 27.9017 2.38553 28.1322C2.33615 28.0668 2.29629 27.995 2.25667 27.9235C2.12372 27.6839 2.32878 28.1434 2.24275 27.8809C2.22443 27.825 2.18091 27.5527 2.21655 27.8422C2.21051 27.793 2.20805 27.7166 2.20805 27.6673V23.9402C2.20805 23.7454 2.2197 23.5515 2.23816 23.3577C2.26845 23.0396 2.19961 23.5849 2.25138 23.2718C2.26681 23.1783 2.28703 23.0857 2.30724 22.9932C2.3473 22.81 2.40127 22.63 2.45965 22.4519C2.48862 22.3636 2.52207 22.2768 2.55545 22.19C2.46091 22.4356 2.61055 22.0747 2.63165 22.031C2.7117 21.8656 2.80402 21.7065 2.9 21.5499C2.94787 21.472 2.99951 21.3963 3.05115 21.3207C3.07168 21.2906 3.25584 21.0483 3.09707 21.2508C3.34105 20.9397 3.62477 20.6613 3.9282 20.4086C4.16179 20.214 3.74902 20.5379 3.99502 20.3589C4.06896 20.3051 4.14554 20.2549 4.222 20.2048C4.72344 19.8762 4.93272 19.2351 4.61738 18.6968C4.32553 18.1987 3.61249 17.9718 3.10947 18.3015C1.65371 19.2554 0.584075 20.7047 0.181639 22.4073C-0.0409923 23.3489 0.00365981 24.3179 0.00365981 25.2768V27.6563C0.00365981 29.2373 1.3164 30.52 2.8886 30.52H12.6601C13.2609 30.52 13.7622 30.0187 13.7622 29.4179C13.7622 28.8171 13.261 28.3157 12.6602 28.3157Z" fill="#FD6807"/>
</g>
</svg>
