<svg width="30" height="30" viewBox="0 0 30 30" fill="none" xmlns="http://www.w3.org/2000/svg">
<path d="M26.0111 5.1123L26.0244 5.10719L26.0373 5.10133C26.402 4.93633 26.6671 5.01197 26.8091 5.1492C26.9577 5.2929 27.1164 5.64458 26.9486 6.31729L26.9465 6.32586L26.9446 6.3345L23.1709 24.1195L23.1705 24.1212C23.0526 24.687 22.8534 24.8871 22.7108 24.9513C22.5682 25.0155 22.2998 25.0264 21.8443 24.7818L16.1233 20.5561L15.7819 20.3039L15.4777 20.5998L12.7153 23.286L12.7139 23.2873L12.7062 23.2948C12.6041 23.3933 12.528 23.4667 12.459 23.5243L12.7892 18.5899L23.3019 9.10221C23.3024 9.10175 23.303 9.10129 23.3035 9.10083C23.4484 8.97181 23.6307 8.76234 23.6413 8.48127C23.6473 8.32252 23.5954 8.16998 23.4936 8.04866C23.3984 7.93523 23.2798 7.87223 23.1792 7.83772C22.984 7.77068 22.7708 7.77979 22.5862 7.81804C22.3921 7.85828 22.1866 7.93928 21.9864 8.06113L21.9863 8.06108L21.9794 8.06541L9.00972 16.2485L3.54015 14.5422L3.53791 14.5415C3.27374 14.4605 3.12218 14.3674 3.04814 14.2974C3.01536 14.2664 3.00412 14.246 3.00107 14.2394C3.00147 14.2378 3.00214 14.2355 3.00324 14.2323C3.00585 14.2249 3.01099 14.213 3.0209 14.1966C3.0412 14.163 3.07912 14.1147 3.14607 14.0555C3.28169 13.9356 3.50821 13.7956 3.85197 13.6573L26.0111 5.1123Z" stroke="#9F9F9F"/>
</svg>
