<svg width="30" height="30" viewBox="0 0 30 30" fill="none" xmlns="http://www.w3.org/2000/svg">
<path d="M11.6554 7.84674L11.6557 7.84682C12.2051 7.96397 12.6582 8.15371 13.0325 8.40622C13.3863 8.64893 13.6647 8.97083 13.8693 9.38573C14.0605 9.78215 14.1688 10.3067 14.1688 10.9703C14.1688 11.6697 14.0115 12.2126 13.7294 12.6273C13.4353 13.0574 12.9902 13.4282 12.3594 13.7255L11.1613 14.2901L12.4335 14.6581C13.2892 14.9057 13.884 15.3248 14.2721 15.8923C14.6734 16.4816 14.8813 17.2003 14.8813 18.0803C14.8813 18.7982 14.7448 19.3854 14.492 19.8624L14.4919 19.8624L14.4898 19.8665C14.2392 20.3501 13.8755 20.7661 13.4299 21.0792C12.9489 21.414 12.4117 21.6597 11.8439 21.8046L11.8439 21.8046L11.8406 21.8054C11.2258 21.9668 10.5928 22.0479 9.95727 22.0466H9.95625H3V7.66406H9.75375C10.4613 7.66406 11.088 7.72534 11.6554 7.84674ZM9.315 13.8791C9.99431 13.8791 10.6026 13.7169 11.1 13.3515C11.6634 12.9398 11.8838 12.2878 11.8838 11.5491C11.8838 11.1357 11.8105 10.7524 11.6349 10.4276L11.6336 10.4252C11.4684 10.1235 11.2241 9.87248 10.927 9.69919C10.6456 9.53258 10.3353 9.4205 10.0124 9.36878C9.6963 9.31028 9.37532 9.28233 9.05388 9.28531H5.8875H5.3875V9.78531V13.3791V13.8791H5.8875H9.315ZM10.0038 20.4291V20.4061C10.1927 20.3889 10.3789 20.3609 10.5616 20.3198C10.9086 20.2447 11.238 20.1192 11.5292 19.9201C11.8252 19.724 12.0692 19.4575 12.2428 19.1237C12.4296 18.7699 12.5025 18.3453 12.5025 17.8941C12.5025 17.0124 12.251 16.2706 11.6416 15.8006L11.6389 15.7986C11.0833 15.376 10.3708 15.1916 9.56875 15.1916H5.8875H5.3875V15.6916V19.9291V20.4291H5.8875H9.50375H10.0038ZM24.9309 19.5953H26.5781C26.1872 20.5064 25.6712 21.1438 25.0411 21.5483L25.0411 21.5483L25.0379 21.5504C24.2481 22.0662 23.269 22.3353 22.0863 22.3353C21.263 22.3353 20.5365 22.2029 19.8952 21.9491L19.8927 21.9481C19.2825 21.7105 18.7309 21.3437 18.2758 20.8729C17.8254 20.3863 17.4772 19.8143 17.2516 19.1908C16.9982 18.4858 16.8728 17.7413 16.8812 16.9922H16.8813V16.9866C16.8813 16.2104 17.0104 15.4921 17.26 14.8338L17.2611 14.831C17.4959 14.2002 17.8565 13.6237 18.3209 13.1364C18.7789 12.6617 19.3225 12.2858 19.9616 12.0076C20.6322 11.726 21.3536 11.5856 22.0809 11.5953L22.0809 11.5953H22.0875C22.9648 11.5953 23.7067 11.7648 24.3308 12.089L24.3336 12.0905C24.9505 12.4059 25.4855 12.8608 25.8959 13.419L25.8961 13.4193C26.308 13.9787 26.606 14.6249 26.7929 15.3598L26.793 15.36C26.9441 15.9534 27.0165 16.5707 27.0103 17.2153H19.4525H18.9518L18.9525 17.716C18.9539 18.6824 19.2748 19.664 19.8609 20.2345C20.4411 20.8005 21.245 21.0491 22.19 21.0491C22.8949 21.0491 23.5294 20.8688 24.0717 20.4942L24.0717 20.4942L24.0752 20.4918C24.445 20.2316 24.7426 19.9338 24.9309 19.5953ZM24.5613 11.6453C25.2474 11.9961 25.8423 12.502 26.2988 13.1228C26.7525 13.7391 27.0763 14.4453 27.2775 15.2366C27.4788 16.0266 27.5488 16.8516 27.4913 17.7153L24.5613 11.6453ZM24.0964 13.6906L24.096 13.6901C23.6038 13.1455 22.8283 12.9053 21.9938 12.9053C21.4535 12.9053 20.9654 12.9946 20.549 13.2087C20.1923 13.3892 19.8757 13.64 19.6185 13.9461L19.6184 13.9461L19.6133 13.9524C19.3834 14.2352 19.2128 14.5613 19.1116 14.9114C19.0298 15.1834 18.977 15.4632 18.9541 15.7462L18.9104 16.2866H19.4525H24.43H24.9786L24.9279 15.7403C24.8466 14.8666 24.5421 14.1851 24.0964 13.6906ZM19.3275 8.69656H24.5638V9.21531H19.3275V8.69656Z" stroke="#9F9F9F"/>
</svg>
