<svg width="30" height="30" viewBox="0 0 30 30" fill="none" xmlns="http://www.w3.org/2000/svg">
<mask id="path-1-inside-1_423_410" fill="white">
<path d="M9.41627 15.3112C9.40252 17.7924 11.2225 19.2712 14.1263 18.5987V12.0224C11.1863 11.1274 9.42877 12.9387 9.41627 15.3112ZM14.215 2.51367H18.2138V21.4424C14.3813 22.0687 10.7088 22.4662 8.08377 20.9987C4.70252 19.1074 4.43002 13.0999 7.10627 10.4237C8.46252 9.06742 11.195 8.11117 14.1263 8.73492V2.78117C14.1188 2.65492 14.1113 2.52867 14.215 2.51367M24.7013 6.69117H20.7025V2.51367H24.7013V6.69117V6.69117Z"/>
</mask>
<path d="M9.41627 15.3112L10.4163 15.3167L10.4163 15.3164L9.41627 15.3112ZM14.1263 18.5987L14.3519 19.5729L15.1263 19.3935V18.5987H14.1263ZM14.1263 12.0224H15.1263V11.2815L14.4175 11.0658L14.1263 12.0224ZM18.2138 2.51367H19.2138V1.51367H18.2138V2.51367ZM18.2138 21.4424L18.375 22.4293L19.2138 22.2923V21.4424H18.2138ZM8.08377 20.9987L7.59561 21.8714L7.5958 21.8715L8.08377 20.9987ZM14.1263 8.73492L13.9181 9.71302L15.1263 9.97011V8.73492H14.1263ZM14.1263 2.78117H15.1263V2.7515L15.1245 2.72187L14.1263 2.78117ZM20.7025 6.69117H19.7025V7.69117H20.7025V6.69117ZM20.7025 2.51367V1.51367H19.7025V2.51367H20.7025ZM24.7013 2.51367H25.7013V1.51367H24.7013V2.51367ZM8.41629 15.3056C8.40803 16.7963 8.95922 18.1217 10.0877 18.9453C11.2042 19.7603 12.7072 19.9538 14.3519 19.5729L13.9006 17.6245C12.6416 17.916 11.7827 17.7065 11.2668 17.3299C10.7627 16.9619 10.4108 16.3073 10.4163 15.3167L8.41629 15.3056ZM15.1263 18.5987V12.0224H13.1263V18.5987H15.1263ZM14.4175 11.0658C12.7048 10.5444 11.1728 10.7743 10.0543 11.6563C8.95735 12.5212 8.42378 13.8844 8.41629 15.3059L10.4163 15.3164C10.4213 14.3655 10.7727 13.6367 11.2927 13.2267C11.791 12.8337 12.6077 12.6054 13.835 12.9791L14.4175 11.0658ZM14.215 3.51367H18.2138V1.51367H14.215V3.51367ZM17.2138 2.51367V21.4424H19.2138V2.51367H17.2138ZM18.0525 20.4555C16.142 20.7677 14.3357 21.0112 12.6993 21.0057C11.0626 21.0002 9.67858 20.7446 8.57174 20.1258L7.5958 21.8715C9.11396 22.7203 10.8787 22.9996 12.6926 23.0057C14.5068 23.0118 16.453 22.7434 18.375 22.4293L18.0525 20.4555ZM8.57193 20.1259C7.27481 19.4004 6.46181 17.8033 6.32063 15.9304C6.17964 14.06 6.73653 12.2076 7.81338 11.1308L6.39917 9.71657C4.79976 11.316 4.15478 13.8055 4.32629 16.0807C4.49761 18.3534 5.51148 20.7057 7.59561 21.8714L8.57193 20.1259ZM7.81338 11.1308C8.90595 10.0382 11.2833 9.15234 13.9181 9.71302L14.3344 7.75682C11.1068 7.07 8.01909 8.09664 6.39917 9.71657L7.81338 11.1308ZM15.1263 8.73492V2.78117H13.1263V8.73492H15.1263ZM15.1245 2.72187C15.1223 2.68455 15.1224 2.68113 15.1224 2.68364C15.1224 2.68413 15.1234 2.73458 15.1083 2.8078C15.0936 2.8788 15.0503 3.0391 14.9126 3.19827C14.756 3.37929 14.5499 3.47565 14.3581 3.50338L14.0719 1.52396C13.8283 1.55919 13.5842 1.67696 13.4 1.88982C13.2348 2.08083 13.1744 2.28339 13.1496 2.40361C13.1069 2.61037 13.127 2.82242 13.128 2.84047L15.1245 2.72187ZM24.7013 5.69117H20.7025V7.69117H24.7013V5.69117ZM21.7025 6.69117V2.51367H19.7025V6.69117H21.7025ZM20.7025 3.51367H24.7013V1.51367H20.7025V3.51367ZM23.7013 2.51367V6.69117H25.7013V2.51367H23.7013Z" fill="#9F9F9F" mask="url(#path-1-inside-1_423_410)"/>
<path d="M22.8818 25.1369L22.8813 25.1376C22.6689 25.4158 22.1731 25.8659 21.7341 26.1966C21.6955 26.2256 21.6549 26.2565 21.6126 26.2887C21.435 26.4236 21.2278 26.5812 21.0166 26.72C20.8871 26.8051 20.768 26.8751 20.6657 26.9236C20.6151 26.9476 20.5738 26.9639 20.5415 26.9741C20.5082 26.9846 20.4936 26.9857 20.4945 26.9856L20.4933 26.9857C20.4934 26.9857 20.4932 26.9857 20.4927 26.9856C20.4855 26.985 20.4199 26.9789 20.2732 26.9291C20.1326 26.8814 19.9647 26.8102 19.7828 26.7258C19.6025 26.6421 19.4183 26.55 19.2453 26.4626C19.2187 26.4492 19.1923 26.4358 19.166 26.4225C19.0255 26.3513 18.8911 26.2833 18.7832 26.2324L18.7824 26.2321C18.5767 26.1355 18.3839 26.0318 18.1788 25.9215C18.0818 25.8693 17.982 25.8156 17.8768 25.7605C17.8498 25.7464 17.8226 25.7322 17.7952 25.7181C19.011 24.9705 20.2015 24.1172 20.7364 22.3901L20.7364 22.3899C21.012 21.4987 21.1249 20.4325 21.1723 19.32C21.2098 18.4404 21.2069 17.5051 21.204 16.5798C21.2033 16.3332 21.2025 16.0874 21.2025 15.8434C21.2025 14.6885 21.2053 13.4397 21.2081 12.2241L21.2084 12.1093C21.2106 11.1278 21.2129 10.1707 21.2135 9.30578L24.2006 9.30484C24.1975 11.9946 24.1975 14.0658 24.1975 17.4314C24.1777 17.8421 24.1608 18.2402 24.1444 18.6259C24.0899 19.9072 24.0413 21.0515 23.9117 22.0665C23.7429 23.3877 23.4451 24.4014 22.8818 25.1369ZM17.2887 26.0257C17.098 25.9365 16.9042 25.8575 16.7037 25.7972C16.853 25.7048 17.0015 25.6146 17.1485 25.5254C17.1829 25.5045 17.2172 25.4837 17.2514 25.4629L17.2887 26.0257Z" stroke="#9F9F9F"/>
</svg>
