<svg width="118" height="118" viewBox="0 0 118 118" fill="none" xmlns="http://www.w3.org/2000/svg">
<g clip-path="url(#clip0_423_483)">
<mask id="mask0_423_483" style="mask-type:alpha" maskUnits="userSpaceOnUse" x="0" y="0" width="118" height="118">
<path d="M0 0.391357H117.217V117.609H0V0.391357Z" fill="white"/>
</mask>
<g mask="url(#mask0_423_483)">
<path d="M24.8108 0.390869H30.0953V5.61192H34.9306V0.390869H40.2151V16.1957H34.9306V10.9062H30.0953V16.1957H24.8157V0.390869H24.8108ZM47.1602 5.63146H42.5106V0.390869H57.0993V5.63146H52.4448V16.1957H47.1602V5.63146ZM59.4143 0.390869H64.9235L68.3131 5.94404L71.6977 0.390869H77.2069V16.1957H71.9468V8.36165L68.3131 13.9832H68.2203L64.5817 8.36653V16.1957H59.4143V0.390869ZM79.8346 0.390869H85.124V10.9746H92.5478V16.2006H79.8346V0.390869Z" fill="#DADADA"/>
<path fill-rule="evenodd" clip-rule="evenodd" d="M24.6448 108.192L14.652 23.4287H102.565L92.5674 108.182L58.5597 117.608L24.6448 108.192ZM44.8502 61.793L43.9027 51.1457H83.6833L84.6113 40.7525H32.5472L35.3507 72.1911H71.3804L70.174 85.6711L58.5792 88.8067H58.5695L46.9943 85.6809L46.2519 77.3926H35.8098L37.2652 93.7152L58.5597 99.6249L79.8884 93.7152L82.4867 64.5867L82.7407 61.7979H44.8502V61.793Z" fill="#DADADA"/>
</g>
</g>
<defs>
<clipPath id="clip0_423_483">
<rect width="117.217" height="117.217" fill="white" transform="translate(0 0.391357)"/>
</clipPath>
</defs>
</svg>
