<svg width="196" height="52" viewBox="0 0 196 52" fill="none" xmlns="http://www.w3.org/2000/svg">
<g clip-path="url(#clip0_937_301)">
<path d="M15.1934 5.28624C13.2028 2.92448 11.4882 0.525971 11.1383 0.0275891C11.13 0.0188694 11.12 0.0119288 11.1089 0.00718684C11.0978 0.00244487 11.0859 0 11.0738 0C11.0617 0 11.0498 0.00244487 11.0387 0.00718684C11.0276 0.0119288 11.0176 0.0188694 11.0093 0.0275891C10.659 0.525971 8.94479 2.92448 6.95416 5.28624C-10.1327 27.0765 9.64534 41.7814 9.64534 41.7814L9.81109 41.8924C9.95848 44.1615 10.3271 47.4274 10.3271 47.4274H11.8017C11.8017 47.4274 12.1704 44.1799 12.3177 41.8924L12.4839 41.763C12.5023 41.7814 32.2799 27.0765 15.1934 5.28624ZM11.0644 41.4495C11.0644 41.4495 10.1797 40.6928 9.9401 40.3058V40.2686L11.0093 16.5412C11.0093 16.4673 11.1199 16.4673 11.1199 16.5412L12.1887 40.2686V40.3058C11.9491 40.6928 11.0644 41.4495 11.0644 41.4495Z" fill="#DADADA"/>
<path d="M48.0774 36.6075L39.8355 16.4797L39.8175 16.4242H33.4054V17.777H34.4397C34.754 17.777 35.0495 17.9071 35.2716 18.1291C35.4932 18.3515 35.6042 18.6482 35.6042 18.9636L35.4193 39.2204C35.4193 39.8508 34.9022 40.3695 34.2736 40.3882L33.2205 40.4066V41.741H39.4664V40.4066L38.8195 40.3882C38.1913 40.3695 37.6737 39.8508 37.6737 39.2208V20.1303L46.6545 41.7406C46.7839 42.0556 47.0794 42.2597 47.4125 42.2597C47.7447 42.2597 48.0403 42.0556 48.1697 41.7406L56.9476 20.6122L57.077 39.2204C57.077 39.8688 56.5594 40.3879 55.9124 40.4062H55.2471V41.7406H62.565V40.4062H61.567C60.9391 40.4062 60.4212 39.8688 60.4032 39.2388L60.3473 18.9812C60.347 18.6735 60.4664 18.3777 60.6802 18.1565C60.8941 17.9352 61.1855 17.8057 61.4931 17.7953L62.565 17.7766V16.4238H56.319L48.077 36.6071L48.0774 36.6075ZM105.543 40.0541C105.339 39.8501 105.228 39.5718 105.228 39.2372V29.2864C105.228 27.3928 104.672 25.9072 103.56 24.8492C102.467 23.7908 100.948 23.2527 99.0585 23.2527C96.4086 23.2527 94.3154 24.3294 92.8515 26.4458C92.8332 26.4829 92.7777 26.5017 92.7222 26.5017C92.6663 26.5017 92.6295 26.4642 92.6295 26.4087L91.9439 23.7537H90.7951L87.8493 25.4433V26.3716H88.6088C88.961 26.3716 89.2573 26.4642 89.4614 26.6502C89.665 26.8359 89.776 27.1141 89.776 27.5038V39.2188C89.776 39.553 89.665 39.8317 89.4614 40.0361C89.2573 40.2401 88.9794 40.3515 88.646 40.3515H87.9048V41.7065H94.6856V40.3515H93.9449C93.611 40.3515 93.3331 40.2401 93.1295 40.0361C92.9258 39.8317 92.8144 39.553 92.8144 39.2188V31.4583C92.8144 30.4746 93.0368 29.4905 93.4445 28.5247C93.8706 27.5781 94.5003 26.7796 95.3341 26.1668C96.1679 25.5543 97.1685 25.2573 98.317 25.2573C99.6139 25.2573 100.596 25.6657 101.207 26.4826C101.819 27.2994 102.134 28.3578 102.134 29.6202V39.2001C102.134 39.5343 102.023 39.8125 101.819 40.0169C101.615 40.2214 101.337 40.3324 101.003 40.3324H100.262V41.6878H107.043V40.3327H106.302C106.025 40.3699 105.765 40.2585 105.543 40.0541ZM167.494 17.9396C165.62 16.9417 163.525 16.4238 161.265 16.4238H152.445V17.7731H153.308C153.639 17.7731 153.933 17.9025 154.227 18.198C154.502 18.4755 154.649 18.7898 154.649 19.1224V39.0079C154.649 39.341 154.503 39.6548 154.227 39.9324C153.951 40.2095 153.639 40.3572 153.308 40.3572H152.444V41.7065H161.265C163.525 41.7065 165.62 41.189 167.494 40.1907C169.368 39.1928 170.894 37.7141 171.996 35.8293C173.099 33.9445 173.669 31.6712 173.669 29.0836C173.669 26.4963 173.099 24.2414 171.997 22.3382C170.876 20.4162 169.368 18.9559 167.494 17.9396ZM170.122 29.0468C170.122 31.4124 169.7 33.4082 168.872 35.0163C168.046 36.624 166.943 37.8251 165.583 38.6018C164.224 39.3777 162.716 39.7658 161.099 39.7658H159.317C158.986 39.7658 158.692 39.6365 158.398 39.341C158.123 39.0634 157.976 38.7496 157.976 38.4169V19.6583C157.976 19.3253 158.104 19.0302 158.398 18.7343C158.674 18.4572 158.986 18.3094 159.317 18.3094H161.099C162.716 18.3094 164.223 18.6972 165.583 19.4734C166.943 20.2497 168.046 21.4509 168.872 23.059C169.699 24.685 170.122 26.6996 170.122 29.0468ZM194.518 30.3961C193.702 29.4533 192.128 28.6587 190.277 28.2334C192.833 26.9584 194.147 25.1658 194.147 22.8553C194.147 21.599 193.815 20.4714 193.147 19.5106C192.481 18.5498 191.535 17.7731 190.332 17.2372C189.127 16.7013 187.719 16.4242 186.126 16.4242H176.142V17.7731H176.938C177.272 17.7731 177.568 17.9025 177.865 18.198C178.143 18.4755 178.291 18.7898 178.291 19.1224V39.0079C178.291 39.341 178.143 39.6548 177.865 39.9324C177.587 40.2095 177.272 40.3572 176.938 40.3572H176.068V41.7065H186.905C188.553 41.7065 190.09 41.4294 191.48 40.8748C192.87 40.3205 193.981 39.5071 194.778 38.4353C195.592 37.3635 196 36.0509 196 34.5355C195.982 32.9095 195.5 31.523 194.518 30.3961ZM182.088 39.3593C181.81 39.0822 181.662 38.7679 181.662 38.4353V29.5084H186.812C188.627 29.5084 190.016 29.9705 190.98 30.8941C191.943 31.8185 192.425 33.0197 192.425 34.4984C192.425 35.3853 192.201 36.2542 191.796 37.0489C191.369 37.8619 190.738 38.5088 189.887 39.0079C189.053 39.5067 188.016 39.7658 186.812 39.7658H183.014C182.681 39.7658 182.384 39.6361 182.088 39.3589L182.088 39.3593ZM181.681 27.6053V19.6767C181.681 19.3441 181.81 19.0486 182.107 18.7527C182.385 18.4755 182.7 18.3278 183.033 18.3278H185.478C187.237 18.3278 188.535 18.7714 189.351 19.6216C190.164 20.4901 190.572 21.599 190.572 22.9663C190.572 24.3711 190.183 25.4984 189.424 26.3486C188.664 27.18 187.516 27.6053 185.997 27.6053H181.681ZM79.7284 24.4309C78.3127 23.6576 76.7317 23.2519 75.0221 23.2519C73.3576 23.2519 71.7976 23.619 70.4268 24.3696L70.3161 24.4309C68.9005 25.2045 67.7792 26.3279 66.952 27.7461C66.1251 29.1643 65.7021 30.8222 65.7021 32.6637C65.7021 34.5057 66.1247 36.1635 66.952 37.5817C67.7792 38.9999 68.9005 40.1234 70.3161 40.8966C71.7318 41.6702 73.3128 42.0755 75.0221 42.0755C76.6869 42.0755 78.2469 41.7088 79.6173 40.9586L79.7284 40.897C81.1436 40.1234 82.2653 38.9999 83.0925 37.5817C83.9194 36.1635 84.3424 34.5057 84.3424 32.6637C84.3424 30.8222 83.9194 29.1643 83.0925 27.7461C82.2653 26.3279 81.144 25.2041 79.7284 24.4309ZM81.0885 32.6637C81.0885 34.9294 80.5372 36.771 79.434 38.0973C78.3495 39.4233 76.8607 40.1046 75.0221 40.1046C73.2167 40.1046 71.7482 39.4474 70.6687 38.1677L70.6105 38.0973C69.5073 36.771 68.9556 34.9294 68.9556 32.6637C68.9556 30.4398 69.4877 28.6238 70.5508 27.3032L70.6105 27.2305C71.6946 25.9046 73.1842 25.2228 75.0221 25.2228C76.8607 25.2228 78.3495 25.9042 79.434 27.2305C80.5372 28.5569 81.0885 30.3984 81.0885 32.6637ZM144.877 24.4309C143.461 23.6576 141.881 23.2519 140.171 23.2519C138.507 23.2519 136.946 23.619 135.576 24.3696L135.465 24.4309C134.049 25.2045 132.928 26.3279 132.101 27.7461C131.274 29.1643 130.851 30.8222 130.851 32.6637C130.851 34.5057 131.274 36.1635 132.101 37.5817C132.928 38.9999 134.049 40.1234 135.465 40.8966C136.88 41.6702 138.461 42.0755 140.171 42.0755C141.835 42.0755 143.396 41.7088 144.766 40.9586L144.877 40.897C146.293 40.1234 147.414 38.9999 148.241 37.5817C149.068 36.1635 149.491 34.5057 149.491 32.6637C149.491 30.8222 149.068 29.1643 148.241 27.7461C147.414 26.3279 146.274 25.2041 144.877 24.4309ZM146.237 32.6637C146.237 34.9294 145.686 36.771 144.583 38.0973C143.498 39.4233 142.009 40.1046 140.171 40.1046C138.365 40.1046 136.897 39.4474 135.818 38.1677L135.759 38.0973C134.656 36.771 134.105 34.9294 134.105 32.6637C134.105 30.4214 134.636 28.6231 135.699 27.3032L135.759 27.2305C136.844 25.9046 138.333 25.2228 140.171 25.2228C142.009 25.2228 143.498 25.9042 144.583 27.2305C145.667 28.5569 146.237 30.3984 146.237 32.6637ZM118.604 23.2523C117.122 23.2523 115.771 23.5665 114.549 24.1958C113.327 24.8247 112.364 25.676 111.679 26.7677C110.998 27.827 110.638 29.0609 110.643 30.3203C110.643 31.4675 110.902 32.5221 111.439 33.466C111.957 34.3725 112.661 35.1311 113.549 35.76L110.902 39.3498C110.569 39.7938 110.532 40.386 110.772 40.8671C111.031 41.3666 111.513 41.6625 112.068 41.6625H112.827C112.118 42.1414 111.544 42.7052 111.139 43.3697L111.087 43.4574C110.606 44.2528 110.365 45.0857 110.365 45.9367C110.365 47.4996 111.044 48.7949 112.383 49.7695L112.457 49.8223C113.827 50.803 115.753 51.3025 118.178 51.3025C119.862 51.3025 121.473 51.025 122.936 50.4883C124.375 49.9674 125.551 49.2014 126.432 48.2085L126.508 48.1204C127.416 47.0839 127.879 45.8257 127.879 44.3826C127.879 42.8652 127.323 41.7919 126.028 40.7561C124.917 39.8864 123.176 39.424 121.01 39.424H113.605C113.594 39.423 113.584 39.4188 113.575 39.4118L113.568 39.4053L113.564 39.3976C113.561 39.3857 113.554 39.3632 113.568 39.3498L115.493 36.7595C115.949 36.9719 116.427 37.1331 116.919 37.2403C117.363 37.3329 117.863 37.37 118.418 37.37C119.973 37.37 121.381 37.0554 122.603 36.4265C123.825 35.7972 124.806 34.9462 125.509 33.8542C126.213 32.7812 126.564 31.5785 126.564 30.302C126.564 28.9327 125.898 26.4347 124.084 25.1581C124.084 25.1467 124.09 25.1424 124.096 25.1405L124.102 25.1394L128.083 25.5834V23.7518H121.714C120.714 23.4372 119.677 23.2523 118.604 23.2523ZM120.825 34.8352C120.122 35.205 119.363 35.4086 118.604 35.4086C117.363 35.4086 116.271 34.9646 115.345 34.0949C114.42 33.2253 113.957 31.9487 113.957 30.3203C113.957 28.692 114.42 27.415 115.345 26.5457C116.271 25.676 117.363 25.232 118.604 25.232C119.349 25.232 120.06 25.402 120.737 25.758L120.825 25.8054C121.529 26.1756 122.103 26.7494 122.565 27.508C123.01 28.2667 123.251 29.2103 123.251 30.3203C123.251 31.4491 123.028 32.3927 122.565 33.1326C122.121 33.8913 121.529 34.4651 120.825 34.8352ZM115.808 41.6441H120.825C122.214 41.6441 123.103 41.9217 123.695 42.5138C124.287 43.106 124.583 43.9014 124.583 44.8266C124.583 46.1774 124.047 47.2879 122.973 48.12C121.899 48.953 120.455 49.3783 118.678 49.3783C117.122 49.3783 115.826 49.0269 114.882 48.3608C113.938 47.6948 113.457 46.6766 113.457 45.3816C113.457 44.5675 113.679 43.8088 114.123 43.1427C114.567 42.4767 115.104 41.9955 115.808 41.6441H115.808Z" fill="#DADADA"/>
</g>
<defs>
<clipPath id="clip0_937_301">
<rect width="196" height="51.6755" fill="white"/>
</clipPath>
</defs>
</svg>
