<svg width="157" height="39" viewBox="0 0 157 39" fill="none" xmlns="http://www.w3.org/2000/svg">
<path d="M76.7809 21.3403L80.5248 25.9284L73.1911 34.7022L66.0116 34.7022L76.7809 21.3403Z" fill="#D9D9D9"/>
<rect y="3.19189" width="5.58407" height="31.9089" fill="#D9D9D9"/>
<rect x="31.9089" y="2.79321" width="5.58407" height="31.9089" fill="#D9D9D9"/>
<rect x="59.4304" y="2.79321" width="5.18521" height="24.7294" transform="rotate(90 59.4304 2.79321)" fill="#D9D9D9"/>
<rect x="132.023" y="3.19214" width="5.18521" height="27.5215" transform="rotate(90 132.023 3.19214)" fill="#D9D9D9"/>
<rect x="120.855" y="35.1011" width="5.18521" height="28.3192" transform="rotate(-180 120.855 35.1011)" fill="#D9D9D9"/>
<path d="M98.7183 35.1008L91.9376 35.1008L66.211 3.20401L72.6076 3.20401L98.7183 35.1008Z" fill="#D9D9D9"/>
<path d="M79.4971 18.2893L84.9834 19.8794L98.3194 3.20515L93.1438 1.70511L79.4971 18.2893Z" fill="#D9D9D9"/>
<rect x="55.4418" y="16.3545" width="4.78634" height="23.5328" transform="rotate(90 55.4418 16.3545)" fill="#D9D9D9"/>
<rect x="59.4304" y="29.5168" width="5.18521" height="27.5215" transform="rotate(90 59.4304 29.5168)" fill="#D9D9D9"/>
<path d="M2.39321 7.16325L5.58404 3.19202L6.58129 3.19209L32.3078 34.7021L25.7266 34.7021L2.39321 7.16325Z" fill="#D9D9D9"/>
<circle cx="133.02" cy="33.7051" r="1.39602" fill="#D9D9D9"/>
<path d="M138.842 30.6315H136.81C136.81 31.9043 137.918 33.9045 140.69 33.9045C143.676 33.9045 144.446 31.7225 144.385 31.177V21.5398H142.537V30.8133C142.537 31.3588 141.613 32.0862 140.69 32.0862C139.383 32.0862 139.027 31.3588 138.842 30.6315Z" fill="#DADADA" stroke="#DADADA" stroke-width="0.422043"/>
<path d="M152.016 34.08C150.928 34.08 150.015 33.9221 149.278 33.6062C148.553 33.2786 147.997 32.8574 147.611 32.3426C147.236 31.8161 147.037 31.2662 147.014 30.6929C147.014 30.5876 147.049 30.4999 147.119 30.4297C147.19 30.3595 147.277 30.3244 147.383 30.3244H148.945C149.097 30.3244 149.208 30.3595 149.278 30.4297C149.36 30.4882 149.43 30.5642 149.489 30.6578C149.559 30.8801 149.693 31.1024 149.892 31.3247C150.091 31.5353 150.36 31.7108 150.7 31.8512C151.051 31.9916 151.489 32.0618 152.016 32.0618C152.858 32.0618 153.484 31.9214 153.894 31.6406C154.315 31.3598 154.525 30.9796 154.525 30.4999C154.525 30.1606 154.414 29.8915 154.192 29.6926C153.97 29.482 153.625 29.2948 153.157 29.131C152.7 28.9555 152.092 28.7741 151.331 28.5869C150.454 28.3763 149.717 28.1248 149.12 27.8323C148.535 27.5281 148.09 27.1478 147.786 26.6915C147.494 26.2352 147.348 25.6561 147.348 24.9541C147.348 24.2755 147.529 23.6729 147.892 23.1464C148.266 22.6199 148.792 22.2046 149.471 21.9004C150.161 21.5962 150.98 21.4441 151.928 21.4441C152.689 21.4441 153.361 21.5494 153.946 21.76C154.531 21.9589 155.017 22.228 155.403 22.5673C155.789 22.8949 156.082 23.2517 156.28 23.6378C156.491 24.0122 156.602 24.3808 156.614 24.7435C156.614 24.8371 156.579 24.9248 156.509 25.0067C156.45 25.0769 156.362 25.112 156.245 25.112H154.613C154.52 25.112 154.426 25.0886 154.332 25.0418C154.239 24.995 154.163 24.9073 154.104 24.7786C154.034 24.4159 153.806 24.1058 153.42 23.8484C153.034 23.591 152.536 23.4623 151.928 23.4623C151.296 23.4623 150.787 23.5793 150.401 23.8133C150.015 24.0473 149.822 24.41 149.822 24.9014C149.822 25.229 149.916 25.504 150.103 25.7263C150.302 25.9369 150.612 26.1241 151.033 26.2879C151.466 26.4517 152.033 26.6272 152.735 26.8144C153.73 27.0367 154.543 27.2941 155.175 27.5866C155.807 27.8791 156.269 28.2535 156.561 28.7098C156.854 29.1544 157 29.7218 157 30.4121C157 31.1843 156.789 31.8453 156.368 32.3952C155.959 32.9334 155.38 33.3488 154.631 33.6413C153.882 33.9338 153.01 34.08 152.016 34.08Z" fill="#DADADA"/>
</svg>
