<svg width="102" height="51" viewBox="0 0 102 51" fill="none" xmlns="http://www.w3.org/2000/svg">
<path d="M23.5767 11.2778C27.9532 11.3143 31.1244 12.5698 33.0907 15.0425C35.0569 17.515 35.7056 20.8924 35.0379 25.1742C34.7787 27.1308 34.2033 29.0497 33.3132 30.9321C32.4597 32.8145 31.2735 34.512 29.7524 36.0256C27.8975 37.9445 25.9133 39.1627 23.7992 39.6797C21.6851 40.1968 19.4963 40.4549 17.2339 40.4549H10.5577L8.44359 50.9741H0.709717L8.66588 11.2778H23.5767ZM89.5363 11.2778C93.9128 11.3143 97.0842 12.5698 99.0505 15.0425C101.017 17.515 101.665 20.8924 100.998 25.1742C100.738 27.1308 100.163 29.0497 99.273 30.9321C98.4194 32.8145 97.2333 34.512 95.7122 36.0256C93.8573 37.9445 91.8731 39.1627 89.759 39.6797C87.6447 40.1968 85.4559 40.4549 83.1937 40.4549H76.5171L74.403 50.9741H66.6693L74.6257 11.2778H89.5365H89.5363ZM51.5256 0.703125L49.3557 11.2778H56.2548C60.0381 11.3521 62.8568 12.127 64.7115 13.6032C66.6033 15.0791 67.1597 17.8849 66.3807 22.0184L62.653 40.4549H54.8637L58.4245 22.8489C58.795 21.003 58.6837 19.693 58.0907 18.918C57.4976 18.1429 56.2181 17.7554 54.2516 17.7554L48.0759 17.7001L43.5137 40.4549H35.8358L43.8477 0.703125H51.5256ZM17.5678 17.5893C17.1422 17.6252 16.7153 17.6436 16.2882 17.6446H15.1642L11.8373 34.1985C12.0598 34.2353 12.2822 34.254 12.5049 34.254H13.2837C16.8445 34.2906 19.8123 33.9406 22.1858 33.2022C24.5594 32.427 26.1549 29.7329 26.9706 25.1189C27.6383 21.2434 26.9706 19.0099 24.9676 18.4198C23.0013 17.8296 20.5355 17.5527 17.5678 17.5893ZM83.5276 17.5893C83.1019 17.6252 82.675 17.6436 82.2478 17.6446H81.1238L77.7969 34.1985C78.0194 34.2353 78.2421 34.254 78.4645 34.254H79.2435C82.8043 34.2906 85.7719 33.9406 88.1454 33.2022C90.519 32.427 92.1147 29.7329 92.9302 25.1189C93.5979 21.2434 92.9302 19.0099 90.9272 18.4198C88.9612 17.8296 86.4951 17.5527 83.5276 17.5893Z" fill="#DADADA"/>
</svg>
