<svg width="185" height="84" viewBox="0 0 185 84" fill="none" xmlns="http://www.w3.org/2000/svg">
<g clip-path="url(#clip0_937_306)">
<path d="M36.75 9.31348L38.64 12.803L32.3505 15.057L40.782 15.82L43.4 20.181L45.0345 16.2575L52.304 15.5295L46.669 13.384L48.16 9.82448L42.637 11.641L36.75 9.31348ZM60.9175 16.583L48.16 21.637L59.682 26.18L60.9175 25.669L72.443 21.126L60.9175 16.583ZM24.1325 17.675C21.3771 17.675 18.7345 18.0997 16.7853 18.8557C14.8361 19.6118 13.7399 20.6373 13.7375 21.707C13.7375 22.7773 14.8327 23.8037 16.7821 24.5605C18.7315 25.3173 21.3755 25.7425 24.1325 25.7425C26.8894 25.7425 29.5334 25.3173 31.4828 24.5605C33.4323 23.8037 34.5275 22.7773 34.5275 21.707C34.5251 20.6373 33.4288 19.6118 31.4797 18.8557C29.5305 18.0997 26.8878 17.675 24.1325 17.675ZM84 23.8175C84 23.8175 52.5595 38.7905 47.6175 41.153C43.3265 43.1165 40.964 43.1165 36.204 41.482C29.113 38.577 -3.05176e-05 25.3435 -3.05176e-05 25.3435V28.9765C-3.05176e-05 29.8165 1.16197 30.723 3.38097 31.7765C7.85047 33.922 32.571 44.646 36.456 46.4975C40.348 48.3525 43.106 48.3875 48.0515 45.808C52.9935 43.225 76.223 32.1405 80.6925 29.813C82.9815 28.616 84 27.706 84 26.873V23.8175ZM48.853 25.9245L29.365 28.91L42.959 34.545L48.853 25.9245ZM84 37.2295C84 37.2295 52.5595 52.206 47.6175 54.5685C43.3265 56.5285 40.964 56.5285 36.204 54.894C29.113 51.989 -3.05176e-05 38.759 -3.05176e-05 38.759V42.392C-3.05176e-05 43.225 1.16197 44.135 3.38097 45.192C7.85047 47.334 32.571 58.058 36.456 59.9095C40.348 61.7645 43.106 61.7995 48.0515 59.22C52.9935 56.6405 76.223 45.5525 80.6925 43.225C82.9815 42.063 84 41.118 84 40.285V37.2295ZM84 50.6765L47.6175 68.0155C43.3265 69.9755 40.964 69.9755 36.204 68.3445C29.113 65.436 -3.05176e-05 52.206 -3.05176e-05 52.206V55.839C-3.05176e-05 56.6755 1.16197 57.5855 3.38097 58.639C7.85047 60.7845 32.571 71.505 36.456 73.36C40.348 75.215 43.106 75.25 48.0515 72.667C52.9935 70.0875 76.223 59.003 80.6925 56.6755C82.9815 55.475 84 54.53 84 53.732V50.6765Z" fill="#DADADA"/>
</g>
<path d="M98.1214 51.5094C97.8678 51.5094 97.6522 51.4207 97.4747 51.2432C97.2972 51.0657 97.2085 50.8501 97.2085 50.5965V32.6808C97.2085 32.4018 97.2972 32.1736 97.4747 31.9961C97.6522 31.8186 97.8678 31.7298 98.1214 31.7298H101.202C101.456 31.7298 101.672 31.8186 101.849 31.9961C102.052 32.1736 102.153 32.4018 102.153 32.6808V34.2403C102.737 33.4288 103.485 32.8076 104.398 32.3765C105.336 31.9454 106.414 31.7298 107.631 31.7298H109.19C109.469 31.7298 109.685 31.8186 109.837 31.9961C110.015 32.1736 110.103 32.3891 110.103 32.6427V35.3814C110.103 35.635 110.015 35.8506 109.837 36.0281C109.685 36.2056 109.469 36.2943 109.19 36.2943H106.223C105.006 36.2943 104.055 36.6367 103.371 37.3214C102.711 38.006 102.382 38.9443 102.382 40.1362V50.5965C102.382 50.8501 102.293 51.0657 102.115 51.2432C101.938 51.4207 101.71 51.5094 101.431 51.5094H98.1214Z" fill="#DADADA"/>
<path d="M121.33 51.8898C118.516 51.8898 116.284 51.0783 114.636 49.4554C112.987 47.8325 112.1 45.5248 111.973 42.5325C111.948 42.2789 111.935 41.962 111.935 41.5816C111.935 41.1759 111.948 40.8589 111.973 40.6306C112.074 38.7288 112.506 37.0805 113.266 35.6857C114.052 34.291 115.13 33.226 116.5 32.4906C117.869 31.7298 119.479 31.3494 121.33 31.3494C123.384 31.3494 125.109 31.7805 126.503 32.6427C127.898 33.4796 128.951 34.6587 129.661 36.1802C130.371 37.6764 130.726 39.4134 130.726 41.3914V42.1902C130.726 42.4438 130.637 42.6593 130.459 42.8368C130.282 43.0143 130.054 43.1031 129.775 43.1031H117.146C117.146 43.1031 117.146 43.1411 117.146 43.2172C117.146 43.2933 117.146 43.3567 117.146 43.4074C117.172 44.2949 117.336 45.1191 117.641 45.8799C117.97 46.6152 118.439 47.2112 119.048 47.6676C119.682 48.1241 120.43 48.3523 121.292 48.3523C122.002 48.3523 122.598 48.2509 123.08 48.048C123.562 47.8198 123.955 47.5662 124.259 47.2872C124.564 47.0083 124.779 46.7801 124.906 46.6026C125.134 46.2983 125.312 46.1208 125.438 46.07C125.591 45.994 125.806 45.9559 126.085 45.9559H129.356C129.61 45.9559 129.813 46.032 129.965 46.1842C130.142 46.3363 130.218 46.5265 130.193 46.7547C130.168 47.1605 129.952 47.6549 129.546 48.2382C129.166 48.8214 128.608 49.392 127.873 49.9499C127.137 50.5078 126.212 50.9769 125.096 51.3573C124.006 51.7123 122.75 51.8898 121.33 51.8898ZM117.146 39.9079H125.553V39.7938C125.553 38.8048 125.388 37.9426 125.058 37.2072C124.728 36.4719 124.247 35.8886 123.613 35.4575C122.979 35.0264 122.218 34.8109 121.33 34.8109C120.443 34.8109 119.682 35.0264 119.048 35.4575C118.414 35.8886 117.932 36.4719 117.603 37.2072C117.298 37.9426 117.146 38.8048 117.146 39.7938V39.9079Z" fill="#DADADA"/>
<path d="M142.105 51.8898C140.786 51.8898 139.619 51.6743 138.605 51.2432C137.616 50.7867 136.792 50.1528 136.133 49.3413C135.473 48.5298 134.966 47.5789 134.611 46.4885C134.256 45.3727 134.053 44.1555 134.003 42.8368C133.977 42.3804 133.965 41.9746 133.965 41.6196C133.965 41.2392 133.977 40.8208 134.003 40.3644C134.053 39.0965 134.243 37.9173 134.573 36.8269C134.928 35.7365 135.435 34.7855 136.095 33.974C136.779 33.1372 137.616 32.4906 138.605 32.0341C139.619 31.5777 140.786 31.3494 142.105 31.3494C143.474 31.3494 144.628 31.5903 145.566 32.0722C146.53 32.5286 147.328 33.1245 147.962 33.8599V25.4156C147.962 25.162 148.038 24.9464 148.191 24.7689C148.368 24.5914 148.596 24.5026 148.875 24.5026H152.109C152.362 24.5026 152.578 24.5914 152.755 24.7689C152.933 24.9464 153.021 25.162 153.021 25.4156V50.5965C153.021 50.8501 152.933 51.0657 152.755 51.2432C152.578 51.4207 152.362 51.5094 152.109 51.5094H149.104C148.825 51.5094 148.596 51.4207 148.419 51.2432C148.267 51.0657 148.191 50.8501 148.191 50.5965V49.1891C147.557 49.9752 146.745 50.6219 145.756 51.1291C144.793 51.6362 143.575 51.8898 142.105 51.8898ZM143.512 47.8198C144.577 47.8198 145.427 47.5789 146.061 47.0971C146.694 46.6152 147.164 46.0066 147.468 45.2712C147.772 44.5105 147.937 43.7371 147.962 42.9509C147.988 42.4945 148 42.0127 148 41.5055C148 40.973 147.988 40.4785 147.962 40.022C147.937 39.2613 147.76 38.5386 147.43 37.8539C147.1 37.1439 146.618 36.5606 145.984 36.1042C145.35 35.6477 144.526 35.4195 143.512 35.4195C142.447 35.4195 141.597 35.6604 140.963 36.1422C140.355 36.5986 139.911 37.2072 139.632 37.968C139.353 38.7288 139.188 39.5656 139.138 40.4785C139.112 41.2392 139.112 42 139.138 42.7608C139.188 43.6737 139.353 44.5105 139.632 45.2712C139.911 46.032 140.355 46.6533 140.963 47.1351C141.597 47.5916 142.447 47.8198 143.512 47.8198Z" fill="#DADADA"/>
<path d="M159.004 51.5094C158.75 51.5094 158.535 51.4207 158.357 51.2432C158.18 51.0657 158.091 50.8501 158.091 50.5965V32.6427C158.091 32.3891 158.18 32.1736 158.357 31.9961C158.535 31.8186 158.75 31.7298 159.004 31.7298H162.161C162.44 31.7298 162.656 31.8186 162.808 31.9961C162.985 32.1736 163.074 32.3891 163.074 32.6427V50.5965C163.074 50.8501 162.985 51.0657 162.808 51.2432C162.656 51.4207 162.44 51.5094 162.161 51.5094H159.004ZM158.852 28.4586C158.573 28.4586 158.345 28.3825 158.167 28.2303C158.015 28.0528 157.939 27.8246 157.939 27.5457V24.8069C157.939 24.5534 158.015 24.3378 158.167 24.1603C158.345 23.9828 158.573 23.894 158.852 23.894H162.313C162.592 23.894 162.82 23.9828 162.998 24.1603C163.175 24.3378 163.264 24.5534 163.264 24.8069V27.5457C163.264 27.8246 163.175 28.0528 162.998 28.2303C162.82 28.3825 162.592 28.4586 162.313 28.4586H158.852Z" fill="#DADADA"/>
<path d="M176.06 51.8898C174.538 51.8898 173.232 51.7123 172.142 51.3573C171.077 51.0023 170.202 50.5585 169.517 50.026C168.833 49.4934 168.325 48.9609 167.996 48.4284C167.666 47.8959 167.489 47.4521 167.463 47.0971C167.438 46.8181 167.514 46.6026 167.691 46.4504C167.894 46.2729 168.11 46.1842 168.338 46.1842H171.343C171.445 46.1842 171.533 46.1968 171.609 46.2222C171.685 46.2476 171.787 46.3236 171.914 46.4504C172.243 46.7294 172.586 47.021 172.941 47.3253C173.321 47.6296 173.765 47.8959 174.272 48.1241C174.779 48.3269 175.413 48.4284 176.174 48.4284C177.163 48.4284 177.987 48.2382 178.646 47.8578C179.331 47.4521 179.673 46.8815 179.673 46.1461C179.673 45.6136 179.521 45.1825 179.217 44.8528C178.938 44.5232 178.405 44.2316 177.619 43.978C176.833 43.699 175.717 43.4074 174.272 43.1031C172.852 42.7734 171.673 42.355 170.735 41.8479C169.796 41.3407 169.099 40.7067 168.642 39.946C168.186 39.1852 167.958 38.2977 167.958 37.2833C167.958 36.2943 168.249 35.3561 168.833 34.4685C169.441 33.5556 170.329 32.8076 171.495 32.2243C172.687 31.6411 174.158 31.3494 175.908 31.3494C177.277 31.3494 178.469 31.5269 179.483 31.882C180.498 32.2116 181.334 32.63 181.994 33.1372C182.678 33.6444 183.198 34.1642 183.553 34.6968C183.908 35.2039 184.098 35.6477 184.124 36.0281C184.149 36.307 184.073 36.5352 183.896 36.7128C183.718 36.8649 183.515 36.941 183.287 36.941H180.472C180.345 36.941 180.231 36.9156 180.13 36.8649C180.028 36.8142 179.927 36.7508 179.826 36.6747C179.547 36.4211 179.242 36.1549 178.913 35.8759C178.583 35.597 178.177 35.3561 177.695 35.1532C177.239 34.925 176.63 34.8109 175.87 34.8109C174.906 34.8109 174.171 35.0264 173.663 35.4575C173.156 35.8632 172.903 36.3831 172.903 37.0171C172.903 37.4482 173.017 37.8285 173.245 38.1582C173.499 38.4625 173.993 38.7541 174.728 39.0331C175.464 39.312 176.58 39.6036 178.076 39.9079C179.775 40.2122 181.119 40.6687 182.108 41.2773C183.122 41.8605 183.832 42.5452 184.238 43.3313C184.669 44.0921 184.885 44.9416 184.885 45.8799C184.885 47.021 184.542 48.048 183.858 48.9609C183.198 49.8738 182.209 50.5965 180.891 51.1291C179.597 51.6362 177.987 51.8898 176.06 51.8898Z" fill="#DADADA"/>
<defs>
<clipPath id="clip0_937_306">
<rect width="84" height="84" fill="white"/>
</clipPath>
</defs>
</svg>
