<svg width="209" height="37" viewBox="0 0 209 37" fill="none" xmlns="http://www.w3.org/2000/svg">
<path d="M37.8701 36.71C41.1401 36.71 42.3401 35.3 42.3401 31.85V25.1301C42.3401 21.9201 43.9001 20.09 45.4001 19.22C45.8501 18.95 45.8501 18.32 45.4001 18.02C43.8401 17.03 42.3401 14.96 42.3401 12.2V5.60005C42.3401 1.88005 41.3201 0.800049 38.0501 0.800049H8.68005C5.41005 0.800049 4.39005 1.88005 4.39005 5.60005V12.2C4.39005 14.96 2.89005 17.03 1.33005 18.02C0.880054 18.29 0.880054 18.95 1.33005 19.22C2.83005 20.06 4.39005 21.8901 4.39005 25.1301V31.85C4.39005 35.3 5.59005 36.71 8.86005 36.71H37.8701ZM23.2901 30.56C19.7801 30.56 17.2301 29.5101 14.8601 27.4401C14.4701 27.0801 14.3201 26.6301 14.3201 26.1801C14.3201 25.8201 14.4101 25.4301 14.6801 25.1301L15.4001 24.2001C15.7601 23.75 16.1501 23.5401 16.6001 23.5401C17.1101 23.5401 17.5901 23.7501 18.1001 24.0801C19.7201 25.1301 21.5201 25.7301 23.6801 25.7301C25.3301 25.7301 26.6501 25.0401 26.6501 23.6301C26.6501 19.9701 14.4701 21.98 14.4701 13.76C14.4701 9.35005 18.0701 6.89005 22.7501 6.89005C26.0501 6.89005 28.4801 7.85005 30.2801 8.99005C30.7301 9.29005 31.0301 9.89005 31.0301 10.4901C31.0301 10.85 30.9401 11.18 30.7301 11.48L30.1901 12.2901C29.8001 12.8301 29.3501 13.1 28.7801 13.1C28.3901 13.1 27.9701 12.9501 27.5201 12.7401C26.1701 12.05 24.7601 11.6901 23.0501 11.6901C21.2801 11.6901 20.2301 12.6501 20.2301 13.64C20.2301 17.3901 32.4101 15.3501 32.4101 23.3301C32.4101 27.8001 28.8101 30.56 23.2901 30.56Z" fill="#DADADA"/>
<path d="M58.66 25.2199C58.96 24.8299 59.29 24.6799 59.68 24.6799C60.07 24.6799 60.55 24.8599 60.94 25.1599C62.29 26.0599 63.82 26.5699 65.65 26.5699C67.06 26.5699 68.17 25.9999 68.17 24.7699C68.17 21.6799 57.88 23.3599 57.88 16.4599C57.88 12.7399 60.94 10.6399 64.87 10.6399C67.66 10.6399 69.7 11.4199 71.23 12.4399C71.62 12.6799 71.86 13.1899 71.86 13.6999C71.86 13.9999 71.8 14.2699 71.62 14.5699L71.14 15.2599C70.81 15.7399 70.42 15.9499 69.97 15.9499C69.64 15.9499 69.28 15.7999 68.89 15.6499C67.75 15.0799 66.55 14.7499 65.14 14.7499C63.67 14.7499 62.77 15.5299 62.77 16.3999C62.77 19.5499 73.06 17.8399 73.06 24.5599C73.06 28.3099 70 30.6499 65.35 30.6499C62.38 30.6499 60.22 29.7499 58.24 28.0399C57.91 27.7399 57.76 27.3499 57.76 26.9599C57.76 26.6599 57.82 26.3299 58.06 26.0599L58.66 25.2199ZM88.12 27.1999C88.27 27.4099 88.33 27.6799 88.33 27.9199C88.33 28.4599 88.09 29.0299 87.61 29.2699C86.17 30.1399 84.73 30.5299 82.84 30.5299C78.55 30.5299 76.93 27.7399 76.93 22.8499V7.3699C76.93 6.4999 77.65 5.7799 78.52 5.7799H80.23C81.1 5.7799 81.82 6.4999 81.82 7.3699V11.0899H86.41C87.28 11.0899 88 11.8099 88 12.6799V14.1199C88 14.9899 87.28 15.7099 86.41 15.7099H81.82V22.6699C81.82 24.7399 82.51 26.1199 84.1 26.1199C84.61 26.1199 85.06 26.0599 85.45 25.9099C85.84 25.7599 86.14 25.6999 86.41 25.6999C86.95 25.6999 87.37 25.9399 87.73 26.5699L88.12 27.1999ZM91.09 24.5599C91.09 20.3599 94.18 18.3799 98.05 18.3799C99.73 18.3799 101.41 18.9199 102.34 19.6099V19.0399C102.34 16.2499 101.44 14.7499 98.8 14.7499C97.36 14.7499 96.43 14.9599 95.53 15.2599C95.29 15.3199 95.02 15.4099 94.78 15.4099C94.15 15.4099 93.64 15.1099 93.34 14.5099L93.1 13.9999C93.04 13.7899 92.92 13.5799 92.92 13.3099C92.92 12.7699 93.31 12.1999 93.82 11.9599C95.47 11.2099 97.36 10.6999 99.31 10.6999C104.95 10.6999 106.9 13.5799 106.9 18.6199V28.6399C106.9 29.5099 106.18 30.2299 105.31 30.2299H104.2C103.33 30.2299 102.61 29.5099 102.61 28.6399V28.0099C101.59 29.4499 99.55 30.4399 96.97 30.4399C93.58 30.4099 91.09 28.2499 91.09 24.5599ZM102.34 22.5799C101.47 21.9499 100.39 21.6499 99.01 21.6499C97.39 21.6499 95.95 22.3999 95.95 24.0199C95.95 25.4599 97.12 26.2699 98.68 26.2699C100.72 26.2699 101.77 25.3699 102.37 24.5599V22.5799H102.34ZM122.68 27.1999C122.83 27.4099 122.89 27.6799 122.89 27.9199C122.89 28.4599 122.65 29.0299 122.17 29.2699C120.73 30.1399 119.29 30.5299 117.4 30.5299C113.11 30.5299 111.49 27.7399 111.49 22.8499V7.3699C111.49 6.4999 112.21 5.7799 113.08 5.7799H114.79C115.66 5.7799 116.38 6.4999 116.38 7.3699V11.0899H120.97C121.84 11.0899 122.56 11.8099 122.56 12.6799V14.1199C122.56 14.9899 121.84 15.7099 120.97 15.7099H116.38V22.6699C116.38 24.7399 117.07 26.1199 118.66 26.1199C119.17 26.1199 119.62 26.0599 120.01 25.9099C120.4 25.7599 120.7 25.6999 120.97 25.6999C121.51 25.6999 121.93 25.9399 122.29 26.5699L122.68 27.1999ZM125.65 24.5599C125.65 20.3599 128.74 18.3799 132.61 18.3799C134.29 18.3799 135.97 18.9199 136.9 19.6099V19.0399C136.9 16.2499 136 14.7499 133.36 14.7499C131.92 14.7499 130.99 14.9599 130.09 15.2599C129.85 15.3199 129.58 15.4099 129.34 15.4099C128.71 15.4099 128.2 15.1099 127.9 14.5099L127.66 13.9999C127.6 13.7899 127.48 13.5799 127.48 13.3099C127.48 12.7699 127.87 12.1999 128.38 11.9599C130.03 11.2099 131.92 10.6999 133.87 10.6999C139.51 10.6999 141.46 13.5799 141.46 18.6199V28.6399C141.46 29.5099 140.74 30.2299 139.87 30.2299H138.76C137.89 30.2299 137.17 29.5099 137.17 28.6399V28.0099C136.15 29.4499 134.11 30.4399 131.53 30.4399C128.17 30.4099 125.65 28.2499 125.65 24.5599ZM136.9 22.5799C136.03 21.9499 134.95 21.6499 133.57 21.6499C131.95 21.6499 130.51 22.3999 130.51 24.0199C130.51 25.4599 131.68 26.2699 133.24 26.2699C135.28 26.2699 136.33 25.3699 136.93 24.5599V22.5799H136.9ZM151.36 13.1899C152.71 11.6899 154.96 10.7599 157.3 10.7599C160.21 10.7599 162.16 12.0799 162.85 13.8199C164.2 12.0199 166.33 10.7599 169.27 10.7599C172.75 10.7599 175.36 12.4699 175.36 17.7199V28.5799C175.36 29.4499 174.64 30.1699 173.77 30.1699H172.06C171.19 30.1699 170.47 29.4499 170.47 28.5799V18.9499C170.47 16.5799 169.51 15.2899 167.2 15.2899C165.37 15.2899 163.93 16.1899 163.27 17.4799C163.27 17.7799 163.3 18.4399 163.3 18.8899V28.5199C163.3 29.3899 162.58 30.1099 161.71 30.1099H160C159.13 30.1099 158.41 29.3899 158.41 28.5199V18.6199C158.41 16.6099 157.3 15.3199 155.26 15.3199C153.55 15.3199 152.14 16.0699 151.27 17.3599V28.5799C151.27 29.4499 150.55 30.1699 149.68 30.1699H147.97C147.1 30.1699 146.38 29.4499 146.38 28.5799V12.6499C146.38 11.7799 147.1 11.0599 147.97 11.0599H149.68C150.55 11.0599 151.27 11.7799 151.27 12.6499V13.1899H151.36ZM186.37 4.2199C186.37 6.1699 184.96 7.2799 183.58 7.2799C181.93 7.2799 180.52 6.1699 180.52 4.2199C180.52 2.5099 181.93 1.3999 183.58 1.3999C184.96 1.3999 186.37 2.5099 186.37 4.2199ZM184.33 11.0899C185.2 11.0899 185.92 11.8099 185.92 12.6799V28.5799C185.92 29.4499 185.2 30.1699 184.33 30.1699H182.62C181.75 30.1699 181.03 29.4499 181.03 28.5799V12.6499C181.03 11.7799 181.75 11.0599 182.62 11.0599H184.33V11.0899ZM204.73 15.9499C203.59 15.4099 202.6 15.1999 201.37 15.1999C198.64 15.1999 196.06 17.2699 196.06 20.5999C196.06 23.9599 198.67 26.0599 201.55 26.0599C203.05 26.0599 204.13 25.6699 205.24 24.9499C205.57 24.7399 205.93 24.6199 206.26 24.6199C206.77 24.6199 207.22 24.8299 207.58 25.2499L208.3 26.1499C208.51 26.3599 208.6 26.6899 208.6 27.0199C208.6 27.5299 208.39 28.0999 208.03 28.3699C205.75 30.1999 203.74 30.6199 201.37 30.6199C195.07 30.6199 190.9 26.6299 190.9 20.6299C190.9 15.0799 194.95 10.6399 200.77 10.6399C203.32 10.6399 205.18 11.0599 207.04 12.0799C207.52 12.3199 207.79 12.9499 207.79 13.4899C207.79 13.7299 207.76 13.9699 207.61 14.1799L206.98 15.2899C206.65 15.8299 206.11 16.1899 205.54 16.1899C205.3 16.1299 205 16.0999 204.73 15.9499Z" fill="#DADADA"/>
</svg>
