<svg width="118" height="118" viewBox="0 0 118 118" fill="none" xmlns="http://www.w3.org/2000/svg">
<g clip-path="url(#clip0_423_475)">
<mask id="mask0_423_475" style="mask-type:alpha" maskUnits="userSpaceOnUse" x="0" y="0" width="118" height="118">
<path d="M0.331055 0.334229H117.548V117.552H0.331055V0.334229Z" fill="white"/>
</mask>
<g mask="url(#mask0_423_475)">
<path d="M114.76 0.334233H3.11497C2.37618 0.335527 1.6681 0.629917 1.14615 1.15278C0.624206 1.67564 0.331058 2.38424 0.331059 3.12303V114.768C0.330416 115.134 0.402111 115.497 0.542033 115.836C0.681955 116.174 0.887352 116.482 1.14644 116.741C1.40554 117 1.71323 117.206 2.05187 117.345C2.39051 117.485 2.75344 117.557 3.11986 117.556H114.765C115.131 117.556 115.493 117.484 115.832 117.344C116.17 117.204 116.478 116.999 116.736 116.74C116.995 116.481 117.201 116.173 117.341 115.835C117.481 115.497 117.553 115.134 117.553 114.768V3.11814C117.553 2.75191 117.48 2.3894 117.339 2.05129C117.198 1.71318 116.992 1.40611 116.733 1.1476C116.474 0.889087 116.166 0.684204 115.827 0.544647C115.489 0.40509 115.126 0.333591 114.76 0.334233ZM70.1047 62.9771H56.1509V106.387H44.986V62.9771H31.0322V53.3604H70.1047V62.9771ZM73.2305 103.906V92.3059C73.2305 92.3059 79.57 97.0825 87.1745 97.0825C94.7789 97.0825 94.4859 92.1105 94.4859 91.4268C94.4859 84.213 72.9374 84.213 72.9374 68.2226C72.9374 46.4788 104.337 55.0601 104.337 55.0601L103.946 65.3948C103.946 65.3948 98.6813 61.8831 92.7325 61.8831C86.7837 61.8831 84.6396 64.7159 84.6396 67.7342C84.6396 75.534 106.383 74.7575 106.383 90.4548C106.383 114.631 73.2305 103.91 73.2305 103.91V103.906Z" fill="#DADADA"/>
</g>
</g>
<defs>
<clipPath id="clip0_423_475">
<rect width="117.217" height="117.217" fill="white" transform="translate(0.331055 0.334229)"/>
</clipPath>
</defs>
</svg>
