<svg width="204" height="102" viewBox="0 0 204 102" fill="none" xmlns="http://www.w3.org/2000/svg">
<path d="M119.776 5.88232H83.404C78.6102 5.88232 74.7241 9.76846 74.7241 14.5622V51.1564C74.7241 55.9502 78.6102 59.8363 83.404 59.8363H119.776C124.569 59.8363 128.456 55.9502 128.456 51.1564V14.5622C128.456 9.76846 124.569 5.88232 119.776 5.88232Z" fill="#DADADA"/>
<path d="M101.995 29.1097C103.368 29.1097 104.408 28.8159 105.117 28.2144C105.826 27.6129 106.18 26.737 106.18 25.5731C106.18 24.4238 105.826 23.5508 105.117 22.954C104.403 22.342 103.367 22.036 101.995 22.036H97.1769V29.1101H101.995M102.289 43.7278C104.038 43.7278 105.35 43.3627 106.225 42.6311C107.115 41.8999 107.56 40.7956 107.56 39.3182C107.56 37.8701 107.122 36.7885 106.248 36.0725C105.373 35.3413 104.054 34.9757 102.29 34.9757H97.1773V43.7287H102.29M110.387 31.7078C112.257 32.245 113.705 33.2376 114.73 34.6849C115.756 36.1321 116.268 37.9083 116.268 40.0128C116.268 43.2363 115.168 45.6392 112.966 47.2212C110.765 48.8031 107.417 49.5939 102.923 49.5939H88.4697V16.1716H101.544C106.234 16.1716 109.627 16.8726 111.722 18.2757C113.834 19.6784 114.889 21.9248 114.889 25.014C114.889 26.6408 114.505 28.0284 113.736 29.1776C112.967 30.3117 111.847 31.1504 110.388 31.7073" fill="#0C0C0C"/>
<path d="M26.226 77.7919V86.8699H31.6048C33.4068 86.8699 34.743 86.4993 35.6066 85.7581C36.4804 85.005 36.9156 83.8592 36.9156 82.3241C36.9156 80.7941 36.4787 79.6347 35.6066 78.9037C34.743 78.1625 33.4102 77.7919 31.6048 77.7919H26.226ZM26.226 67.5987V75.0702H31.19C32.8288 75.0702 34.0461 74.7642 34.8417 74.1573C35.6492 73.5368 36.0537 72.5967 36.0537 71.3353C36.0537 70.0841 35.6492 69.1491 34.8417 68.5303C34.0342 67.9115 32.8271 67.6004 31.19 67.6004H26.226M22.872 64.8464H31.4399C33.9967 64.8464 35.9671 65.3785 37.3509 66.441C38.7346 67.5035 39.4248 69.0148 39.4248 70.9732C39.4248 72.4896 39.0712 73.6966 38.3623 74.5942C37.6534 75.4918 36.6113 76.0494 35.2411 76.2704C36.8901 76.624 38.1685 77.3669 39.0763 78.4804C39.9943 79.599 40.4363 80.9964 40.4363 82.6794C40.4363 84.8928 39.6832 86.603 38.1787 87.81C36.6742 89.017 34.5322 89.6188 31.7527 89.6188H22.8549V64.8379" fill="#DADADA"/>
<path d="M53.0825 73.1748C52.3262 73.1494 51.5754 73.312 50.8975 73.6482C50.2195 73.9844 49.6356 74.4835 49.198 75.1009C48.246 76.3759 47.77 78.1218 47.77 80.3471C47.77 82.5724 48.2409 84.3251 49.181 85.6103C50.133 86.8853 51.4335 87.5194 53.0825 87.5194C53.8362 87.5435 54.5841 87.3801 55.2591 87.0439C55.9341 86.7078 56.5151 86.2093 56.95 85.5933C57.902 84.3098 58.378 82.5605 58.378 80.3471C58.378 78.1439 57.902 76.4031 56.95 75.1179C55.998 73.8225 54.7094 73.1748 53.0825 73.1748ZM53.0825 70.5857C55.7379 70.5857 57.8425 71.4493 59.3419 73.1748C60.8413 74.9003 61.6165 77.2922 61.6165 80.3488C61.6165 83.4054 60.8583 85.7837 59.3419 87.5228C57.8255 89.25 55.7379 90.1119 53.0825 90.1119C50.4135 90.1119 48.3225 89.2483 46.7925 87.5228C45.288 85.7854 44.5349 83.3952 44.5349 80.3488C44.5349 77.2939 45.288 74.9037 46.7925 73.1748C48.3089 71.4476 50.3999 70.5857 53.0825 70.5857Z" fill="#DADADA"/>
<path d="M73.6983 73.1748C72.942 73.1494 72.1913 73.312 71.5133 73.6482C70.8353 73.9844 70.2514 74.4835 69.8138 75.1009C68.8618 76.3759 68.3858 78.1218 68.3858 80.3471C68.3858 82.5724 68.8567 84.3251 69.7968 85.6103C70.7488 86.8853 72.0493 87.5194 73.6983 87.5194C74.452 87.5435 75.1999 87.3801 75.8749 87.0439C76.5499 86.7078 77.1309 86.2093 77.5658 85.5933C78.5178 84.3098 78.9938 82.5605 78.9938 80.3471C78.9938 78.1439 78.5178 76.4031 77.5658 75.1179C76.6138 73.8225 75.3252 73.1748 73.6983 73.1748ZM73.6983 70.5857C76.3537 70.5857 78.4583 71.4493 79.9577 73.1748C81.4571 74.9003 82.2323 77.2922 82.2323 80.3488C82.2323 83.4054 81.4741 85.7837 79.9577 87.5228C78.4413 89.25 76.3537 90.1119 73.6983 90.1119C71.0293 90.1119 68.9383 89.2483 67.4083 87.5228C65.9038 85.7854 65.1507 83.3952 65.1507 80.3488C65.1507 77.2939 65.9038 74.9037 67.4083 73.1748C68.9247 71.4476 71.0157 70.5857 73.6983 70.5857Z" fill="#DADADA"/>
<path d="M90.129 65.7527V71.0312H96.419V73.4044H90.129V83.499C90.129 85.0154 90.333 85.9895 90.741 86.423C91.1609 86.8548 92.0075 87.069 93.2808 87.069H96.419V89.6258H93.2791C90.9212 89.6258 89.2943 89.1889 88.4001 88.3168C87.5042 87.4328 87.0401 85.8263 87.0401 83.5024V73.4044H84.7995V71.0312H87.0401V65.7561H90.112M112.12 71.582V74.472C111.267 74.033 110.364 73.6985 109.431 73.4758C108.501 73.2548 107.539 73.1443 106.541 73.1443C105.024 73.1443 103.884 73.3772 103.12 73.8243C102.367 74.2884 101.992 74.9871 101.992 75.9153C101.992 76.6242 102.264 77.1818 102.808 77.5915C103.352 77.9893 104.44 78.3735 106.078 78.7373L107.124 78.9702C109.293 79.4343 110.83 80.0922 111.739 80.9456C112.657 81.7871 113.099 82.9652 113.099 84.4816C113.124 85.2803 112.95 86.0726 112.594 86.788C112.239 87.5035 111.711 88.1197 111.059 88.582C109.699 89.5884 107.823 90.112 105.449 90.112C104.453 90.112 103.413 90.01 102.328 89.8128C101.254 89.6428 100.118 89.3368 98.9248 88.9492V85.7957C100.054 86.3822 101.165 86.8242 102.262 87.1217C103.323 87.405 104.417 87.5501 105.516 87.5535C106.954 87.5535 108.061 87.3104 108.836 86.8225C109.611 86.3244 109.999 85.6274 109.999 84.7315C109.999 83.9019 109.716 83.2644 109.152 82.8224C108.598 82.3804 107.375 81.9724 105.483 81.544L104.421 81.2958C102.529 80.898 101.162 80.2894 100.321 79.47C99.479 78.6404 99.0591 77.5048 99.0591 76.0666C99.0591 74.3156 99.6796 72.9675 100.919 72.0155C102.158 71.0635 103.918 70.5875 106.197 70.5875C107.265 70.5824 108.331 70.6654 109.385 70.8357C110.327 70.9868 111.251 71.237 112.141 71.582M120.867 65.751V71.0295H127.157V73.4027H120.867V83.4973C120.867 85.0137 121.071 85.9878 121.479 86.4213C121.899 86.8531 122.745 87.0673 124.019 87.0673H127.16V89.6241H124.022C121.664 89.6241 120.037 89.1872 119.143 88.3151C118.247 87.4311 117.783 85.8246 117.783 83.5007V73.4027H115.542V71.0295H117.783V65.7561H120.87M141.78 73.8906C141.429 73.6883 141.048 73.5425 140.651 73.4588C140.217 73.3538 139.772 73.3036 139.325 73.3092C137.598 73.3092 136.27 73.8736 135.34 75.0024C134.423 76.121 133.98 77.7309 133.98 79.8338V89.6292H130.909V71.0312H133.98V73.9212C134.623 72.7924 135.46 71.956 136.488 71.4137C137.517 70.8595 138.766 70.5841 140.24 70.5841C140.473 70.5856 140.706 70.602 140.937 70.6334L141.784 70.749L141.801 73.8872M153.316 80.2792C150.848 80.2792 149.138 80.5614 148.186 81.1258C147.234 81.6902 146.758 82.6524 146.758 84.0158C146.758 85.1004 147.111 85.964 147.82 86.6049C148.539 87.2339 149.513 87.5518 150.744 87.5518C152.437 87.5518 153.794 86.9534 154.812 85.7583C155.841 84.5683 156.356 82.9533 156.356 80.9609V80.2809H153.318M159.411 79.0195V89.6275H156.356V86.8055C155.676 87.9343 154.792 88.7707 153.75 89.313C152.709 89.8434 151.438 90.112 149.932 90.112C148.028 90.112 146.511 89.5816 145.382 88.5191C144.264 87.4447 143.706 86.0116 143.706 84.2181C143.706 82.1271 144.386 80.5495 145.797 79.487C147.208 78.4245 149.294 77.8941 152.087 77.8941H156.371V77.5949C156.371 76.189 155.907 75.1044 154.977 74.3411C154.059 73.5659 152.764 73.1783 151.093 73.1783C150.03 73.1783 148.995 73.3058 147.989 73.5608C146.975 73.8178 145.999 74.2028 145.083 74.7066V71.8846C146.202 71.4528 147.286 71.1315 148.337 70.9224C149.347 70.7057 150.376 70.5946 151.409 70.5909C154.098 70.5909 156.108 71.2709 157.435 72.6819C158.763 74.0929 159.428 76.1907 159.428 79.0229M168.523 86.8361V96.6961H165.451V71.0329H168.523V73.8549C169.165 72.7499 169.973 71.9288 170.947 71.3984C171.933 70.8544 173.106 70.5824 174.466 70.5824C175.53 70.5579 176.585 70.7894 177.541 71.2575C178.497 71.7255 179.327 72.4163 179.96 73.2718C181.377 75.0653 182.085 77.4198 182.085 80.3438C182.085 83.2678 181.377 85.6223 179.96 87.4158C179.327 88.2713 178.497 88.9621 177.541 89.4301C176.585 89.8981 175.53 90.1296 174.466 90.1052C173.106 90.1052 171.916 89.84 170.947 89.3062C169.973 88.7622 169.165 87.9394 168.523 86.8327M178.915 80.3421C178.915 78.0947 178.451 76.3352 177.521 75.0636C176.603 73.7801 175.335 73.1375 173.72 73.1375C172.973 73.1124 172.232 73.2757 171.564 73.6123C170.897 73.9489 170.325 74.448 169.902 75.0636C168.984 76.3386 168.541 78.0964 168.541 80.3421C168.541 82.5878 169.001 84.3541 169.902 85.6376C170.831 86.9126 172.105 87.5467 173.72 87.5467C175.335 87.5467 176.603 86.9109 177.521 85.6376C178.451 84.3541 178.915 82.5878 178.915 80.3421Z" fill="#DADADA"/>
</svg>
