<svg width="118" height="119" viewBox="0 0 118 119" fill="none" xmlns="http://www.w3.org/2000/svg">
<g clip-path="url(#clip0_423_492)">
<path d="M36.9783 0.962891H49.6083V6.24417H42.2596V11.5255H49.6083V16.8067H36.9783V0.962891ZM52.1314 0.962891H64.7663V5.55829H57.4176V6.47443H64.7663V17.037H52.1314V12.2162H59.4801V11.2952H52.1314V0.962891ZM67.2943 0.962891H79.9194V5.55829H72.5706V6.47443H79.9194V17.037H67.2943V12.2162H74.643V11.2952H67.2943V0.962891Z" fill="#DADADA"/>
<path fill-rule="evenodd" clip-rule="evenodd" d="M58.9709 118.543L24.9512 109.097L14.9227 24.0723H103.107L93.0837 109.087L58.9709 118.543ZM34.7495 62.56L35.6853 72.9854H71.8263L70.6162 86.507L58.9856 89.6523H58.9758L47.3648 86.5168L46.6202 78.2029H36.1507L37.6106 94.5759L58.9709 100.504L80.3655 94.5759L82.9718 65.3574L83.2266 62.56L85.1079 41.4495H32.8731L33.8236 51.8798H73.6831L72.7326 62.56H34.7495Z" fill="#DADADA"/>
</g>
<defs>
<clipPath id="clip0_423_492">
<rect width="117.58" height="117.58" fill="white" transform="translate(0.225037 0.963135)"/>
</clipPath>
</defs>
</svg>
