<svg width="214" height="107" viewBox="0 0 214 107" fill="none" xmlns="http://www.w3.org/2000/svg">
<path d="M84.5058 40.2897C83.4913 40.2897 82.5655 40.4247 81.7285 40.6948C80.9169 40.9434 80.2054 41.3619 79.5942 41.9503C79.007 42.5147 78.5327 43.2489 78.1713 44.1531C77.8327 45.0561 77.6406 46.134 77.5949 47.387C77.5239 49.4199 77.5239 51.4527 77.5949 53.4856C77.6406 54.75 77.8327 55.8279 78.1713 56.7194C78.5327 57.6224 79.007 58.3681 79.5942 58.9565C80.2029 59.5208 80.9144 59.9393 81.7285 60.212C82.5655 60.4605 83.4913 60.5848 84.5058 60.5848C85.5026 60.5848 86.4284 60.4498 87.2831 60.1796C88.1378 59.8854 88.8721 59.4581 89.4859 58.8975C90.12 58.3104 90.6184 57.5647 90.9811 56.6605C91.3425 55.7575 91.5232 54.6961 91.5232 53.4761V51.7488H85.6205C85.1234 51.7488 84.8748 51.4952 84.8748 50.9879V50.5124C84.8748 50.0051 85.1234 49.7515 85.6205 49.7515H92.8681C93.3754 49.7515 93.629 50.0051 93.629 50.5124V53.4932C93.629 54.8502 93.4261 56.093 93.0203 57.2216C92.6145 58.3288 92.0159 59.29 91.2246 60.1055C90.4573 60.9171 89.4961 61.5493 88.3408 62.002C87.1994 62.4307 85.9122 62.645 84.4792 62.645C83.0106 62.645 81.7234 62.4307 80.6176 62.002C79.5105 61.5505 78.5733 60.9291 77.8061 60.1378C77.0604 59.3477 76.4846 58.4105 76.0788 57.3263C75.6946 56.2192 75.4802 54.9992 75.4358 53.6663C75.3902 52.6518 75.3674 51.5789 75.3674 50.4477C75.3674 49.3064 75.3902 48.2335 75.4358 47.2291C75.4815 45.8975 75.7072 44.6889 76.1131 43.6034C76.5189 42.4963 77.0946 41.5477 77.8403 40.7576C78.6075 39.9675 79.5447 39.3576 80.6518 38.9276C81.7589 38.4762 83.0347 38.2504 84.4792 38.2504C86.039 38.2504 87.3719 38.4876 88.4777 38.9619C89.5848 39.4362 90.4884 40.0069 91.1884 40.6739C91.8885 41.3296 92.4084 42.0188 92.7483 42.7417C93.0869 43.4645 93.2676 44.0631 93.2904 44.5374C93.3133 44.7403 93.2562 44.9096 93.1192 45.0453C92.9835 45.1594 92.8028 45.2165 92.5771 45.2165H91.8314C91.6285 45.2165 91.4814 45.1721 91.3901 45.0833C91.3013 44.9692 91.2113 44.7885 91.1199 44.5412C90.9399 44.0339 90.6862 43.5267 90.359 43.0194C90.042 42.5121 89.6146 42.0607 89.0769 41.665C88.5354 41.2592 87.8918 40.9314 87.1461 40.6815C86.4005 40.433 85.5191 40.3087 84.502 40.3087L84.5058 40.2897ZM100.5 47.0294C101.312 45.4695 102.847 44.6896 105.107 44.6896H106.363C106.86 44.6896 107.108 44.9381 107.108 45.4353V45.9108C107.108 46.4079 106.86 46.6565 106.363 46.6565H104.906C103.549 46.6565 102.476 47.0515 101.687 47.8416C100.897 48.6317 100.502 49.7046 100.502 51.0602V61.5607C100.502 61.7864 100.423 61.9671 100.264 62.1028C100.128 62.2385 99.9477 62.3064 99.722 62.3064H99.1798C98.6827 62.3064 98.4341 62.0578 98.4341 61.5607V45.4676C98.4341 45.2419 98.502 45.0612 98.6377 44.9255C98.7734 44.7669 98.9541 44.6877 99.1798 44.6877H99.722C99.9477 44.6877 100.128 44.7669 100.264 44.9255C100.423 45.0612 100.502 45.2419 100.502 45.4676V47.0275L100.5 47.0294ZM121.425 62.3159C120.928 62.3159 120.679 62.0673 120.679 61.5702V59.978C120.476 60.2951 120.205 60.6121 119.867 60.9291C119.55 61.2462 119.155 61.5283 118.682 61.7756C118.207 62.0242 117.637 62.2271 116.97 62.3844C116.314 62.5644 115.547 62.6545 114.668 62.6545C113.856 62.6545 113.076 62.5302 112.328 62.2816C111.605 62.0115 110.962 61.6501 110.397 61.1974C109.856 60.7459 109.416 60.2152 109.077 59.6052C108.76 58.9964 108.602 58.3307 108.602 57.6078C108.602 56.8406 108.76 56.1513 109.077 55.54C109.416 54.9313 109.879 54.4006 110.466 53.9479C111.053 53.4736 111.753 53.0899 112.566 52.797C113.403 52.4799 114.318 52.2542 115.311 52.1198L120.664 51.3741V50.189C120.664 48.969 120.291 48.0204 119.545 47.3432C118.823 46.666 117.66 46.3274 116.057 46.3274C114.792 46.3274 113.809 46.576 113.108 47.0731C112.431 47.5474 112.004 48.0674 111.826 48.633C111.737 48.9031 111.624 49.0952 111.487 49.2093C111.373 49.2981 111.215 49.3425 111.012 49.3425H110.536C110.333 49.3425 110.153 49.2747 109.994 49.139C109.858 48.9804 109.791 48.7997 109.791 48.5968C109.791 48.2798 109.903 47.8847 110.129 47.4117C110.355 46.9374 110.716 46.4745 111.213 46.0231C111.721 45.5716 112.376 45.188 113.179 44.8722C113.969 44.5336 114.93 44.3643 116.062 44.3643C117.394 44.3643 118.49 44.545 119.349 44.9064C120.23 45.2679 120.919 45.7422 121.417 46.3293C121.914 46.8937 122.253 47.5258 122.433 48.2259C122.636 48.9259 122.737 49.6152 122.737 50.2936V61.574C122.737 62.0711 122.489 62.3197 121.992 62.3197H121.415L121.425 62.3159ZM115.022 60.6895C115.789 60.6895 116.512 60.5652 117.19 60.3166C117.89 60.0465 118.5 59.6515 119.02 59.1315C119.528 58.6242 119.933 57.9692 120.238 57.1665C120.532 56.3764 120.679 55.4506 120.679 54.3892V53.2383L116.31 53.847C112.561 54.3543 110.687 55.5515 110.687 57.4385C110.687 58.0028 110.811 58.4885 111.059 58.8956C111.33 59.3014 111.668 59.64 112.075 59.9114C112.481 60.1816 112.944 60.3845 113.464 60.5202C113.971 60.6343 114.491 60.6914 115.024 60.6914L115.022 60.6895ZM135.863 62.6545C134.44 62.6545 133.277 62.4008 132.374 61.8936C131.471 61.3863 130.737 60.7541 130.171 59.997V68.0245C130.171 68.5217 129.923 68.7702 129.426 68.7702H128.849C128.352 68.7702 128.104 68.5217 128.104 68.0245V45.4353C128.104 44.9381 128.352 44.6896 128.849 44.6896H129.426C129.923 44.6896 130.171 44.9381 130.171 45.4353V47.0275C130.736 46.2602 131.47 45.628 132.374 45.1309C133.277 44.6236 134.44 44.37 135.863 44.37C137.173 44.37 138.279 44.6071 139.182 45.0814C140.108 45.5329 140.854 46.1429 141.419 46.9114C141.984 47.6571 142.39 48.5156 142.637 49.4871C142.907 50.4357 143.066 51.4071 143.112 52.4013C143.135 52.7399 143.147 53.1128 143.147 53.5198C143.147 53.9257 143.135 54.2985 143.112 54.6384C143.067 55.6352 142.908 56.618 142.637 57.5869C142.388 58.5355 141.982 59.394 141.419 60.1625C140.855 60.9082 140.109 61.5182 139.182 61.9925C138.279 62.444 137.173 62.6697 135.863 62.6697V62.6545ZM130.171 52.2872C130.149 52.6258 130.137 53.0658 130.137 53.6074C130.137 54.1489 130.149 54.5889 130.171 54.9275C130.194 55.6047 130.307 56.294 130.51 56.9953C130.736 57.6725 131.074 58.2825 131.526 58.8252C131.977 59.3667 132.548 59.8182 133.238 60.1796C133.915 60.5182 134.728 60.6875 135.676 60.6875C136.673 60.6875 137.498 60.5182 138.149 60.1796C138.827 59.841 139.369 59.3896 139.776 58.8252C140.204 58.2381 140.509 57.5723 140.689 56.8279C140.892 56.0606 141.016 55.2699 141.062 54.4558C141.085 53.8217 141.085 53.1895 141.062 52.5592C141.016 51.7476 140.892 50.9677 140.689 50.2194C140.509 49.4738 140.204 48.8187 139.776 48.2544C139.37 47.6672 138.828 47.2044 138.149 46.8658C137.494 46.5043 136.669 46.3236 135.676 46.3236C134.705 46.3236 133.881 46.5043 133.204 46.8658C132.526 47.2272 131.956 47.7015 131.492 48.2886C131.063 48.853 130.735 49.4852 130.508 50.1852C130.305 50.8852 130.192 51.5853 130.169 52.2853L130.171 52.2872ZM149.827 47.0294C150.436 46.2393 151.17 45.5957 152.03 45.0986C152.885 44.6014 154.048 44.3529 155.519 44.3529C156.67 44.3529 157.675 44.545 158.534 44.9293C159.389 45.3135 160.1 45.8442 160.668 46.5215C161.255 47.1987 161.696 48.0008 161.989 48.9278C162.283 49.8536 162.43 50.8586 162.43 51.9429V61.5645C162.43 62.0616 162.181 62.3102 161.684 62.3102H161.113C160.616 62.3102 160.368 62.0616 160.368 61.5645V52.1103C160.368 50.3031 159.928 48.8917 159.048 47.8759C158.168 46.836 156.88 46.316 155.186 46.316C153.56 46.316 152.262 46.8233 151.29 47.8378C150.319 48.8524 149.833 50.2771 149.833 52.1122V61.5664C149.833 62.0635 149.585 62.3121 149.087 62.3121H148.511C148.014 62.3121 147.765 62.0635 147.765 61.5664V38.9961C147.765 38.499 148.014 38.2504 148.511 38.2504H149.087C149.585 38.2504 149.833 38.499 149.833 38.9961V47.0236L149.827 47.0294ZM176.25 38.2561C177.56 38.2561 178.757 38.4483 179.841 38.8325C180.925 39.2168 181.851 39.804 182.618 40.594C183.409 41.3613 184.019 42.3327 184.448 43.5083C184.9 44.6598 185.148 46.0262 185.194 47.6076C185.24 48.6222 185.263 49.5708 185.263 50.4534C185.263 51.3335 185.24 52.2821 185.194 53.2992C185.08 56.5292 184.256 58.9007 182.721 60.4136L184.89 63.4629C184.913 63.5086 184.935 63.553 184.958 63.5961C184.981 63.6418 184.992 63.721 184.992 63.8339C184.992 64.014 184.925 64.1725 184.789 64.3094C184.653 64.4451 184.495 64.513 184.313 64.513H183.568C183.319 64.513 183.105 64.4115 182.925 64.2086C182.745 64.0285 182.598 63.87 182.483 63.7331L180.988 61.6653C179.631 62.321 178.05 62.6488 176.244 62.6488C173.421 62.6488 171.242 61.8923 169.706 60.3794C168.193 58.8665 167.391 56.5064 167.3 53.2992C167.254 52.2847 167.231 51.3361 167.231 50.4534C167.231 49.5733 167.254 48.6247 167.3 47.6076C167.345 46.0262 167.582 44.6598 168.011 43.5083C168.463 42.334 169.072 41.3625 169.841 40.594C170.631 39.804 171.557 39.2168 172.618 38.8325C173.703 38.4483 174.911 38.2561 176.244 38.2561H176.25ZM176.25 40.2916C175.301 40.2916 174.42 40.4387 173.606 40.7329C172.794 41.003 172.083 41.4431 171.471 42.0531C170.863 42.6618 170.377 43.4417 170.014 44.3928C169.676 45.3414 169.483 46.4701 169.438 47.7788C169.415 48.2861 169.392 48.7604 169.369 49.2017C169.369 49.6304 169.369 50.0489 169.369 50.4572C169.369 50.863 169.369 51.2904 169.369 51.7393C169.392 52.168 169.415 52.6309 169.438 53.128C169.483 54.4596 169.676 55.6009 170.014 56.552C170.376 57.4778 170.85 58.2451 171.437 58.8538C172.046 59.4625 172.757 59.914 173.571 60.2082C174.383 60.4783 175.273 60.6134 176.242 60.6134C177.214 60.6134 178.104 60.4783 178.913 60.2082C179.725 59.914 180.425 59.4625 181.013 58.8538C181.622 58.2451 182.096 57.4778 182.436 56.552C182.797 55.6035 183 54.4621 183.045 53.128C183.067 52.6309 183.079 52.168 183.079 51.7393C183.079 51.2879 183.079 50.8605 183.079 50.4572C183.079 50.0514 183.079 49.6329 183.079 49.2017C183.079 48.7731 183.067 48.2988 183.045 47.7788C182.999 46.4688 182.796 45.3401 182.436 44.3928C182.097 43.4442 181.623 42.6643 181.013 42.0531C180.404 41.4443 179.693 41.0043 178.879 40.7329C178.067 40.4387 177.186 40.2916 176.234 40.2916H176.25ZM192.786 60.2767H204.473C204.981 60.2767 205.234 60.5303 205.234 61.0376V61.5455C205.234 62.0426 204.981 62.2911 204.473 62.2911H191.397C190.9 62.2911 190.652 62.0426 190.652 61.5455V39.3385C190.652 38.8414 190.9 38.5928 191.397 38.5928H192.04C192.537 38.5928 192.786 38.8414 192.786 39.3385V60.2748V60.2767ZM13.7856 69.8127L11.5029 68.4925L36.9513 24.4172L39.234 25.7374L13.7856 69.8127Z" fill="#DADADA"/>
<path d="M10.9836 64.9731H61.8804V67.6116H10.9836V64.9731Z" fill="#DADADA"/>
<path d="M37.4497 81.154L11.9899 66.4553L13.3101 64.1726L38.768 78.8675L37.4497 81.154ZM59.5654 42.8426L34.1075 28.1457L35.4276 25.863L60.8855 40.5618L59.5654 42.8426Z" fill="#DADADA"/>
<path d="M13.3158 42.8349L11.9956 40.5522L37.4744 25.8706L38.7946 28.1533L13.3158 42.8349Z" fill="#DADADA"/>
<path d="M59.0955 69.8127L33.6452 25.7374L35.9279 24.4172L61.3763 68.4925L59.0955 69.8127ZM13.0019 38.8021H15.6365V68.1996H13.0019V38.8021ZM57.2408 38.8021H59.8792V68.1996H57.2389L57.2408 38.8021Z" fill="#DADADA"/>
<path d="M36.9989 80.0376L35.8461 78.0402L57.9884 65.2571L59.1412 67.2544L36.9989 80.0376Z" fill="#DADADA"/>
<path d="M63.3756 69.0578C62.6391 70.3317 61.4272 71.2613 60.006 71.6426C58.5848 72.0238 57.0703 71.8256 55.7951 71.0913C54.5212 70.3548 53.5916 69.1429 53.2103 67.7217C52.8291 66.3005 53.0274 64.786 53.7616 63.5108C54.4981 62.2369 55.71 61.3073 57.1312 60.926C58.5525 60.5448 60.0669 60.743 61.3421 61.4773C64.0129 62.9991 64.9184 66.4232 63.3775 69.0578M19.1063 43.4915C18.3698 44.7654 17.1579 45.695 15.7367 46.0763C14.3155 46.4575 12.801 46.2593 11.5258 45.525C10.2519 44.7885 9.32229 43.5766 8.94104 42.1554C8.55978 40.7341 8.75805 39.2197 9.49231 37.9445C10.2288 36.6706 11.4407 35.741 12.8619 35.3597C14.2832 34.9785 15.7976 35.1767 17.0728 35.911C19.7264 37.4328 20.63 40.8569 19.1082 43.4915M9.50943 69.0578C7.98382 66.4042 8.8893 63.02 11.5448 61.4773C14.1985 59.9517 17.5826 60.8572 19.1253 63.5127C20.6509 66.1664 19.7455 69.5505 17.0899 71.0932C14.4192 72.6188 11.035 71.7134 9.50943 69.0578ZM53.7806 43.4915C52.255 40.8378 53.1605 37.4537 55.8161 35.911C58.4697 34.3854 61.8538 35.2909 63.3965 37.9464C64.9222 40.6 64.0167 43.9842 61.3611 45.5269C60.0859 46.2612 58.5715 46.4594 57.1502 46.0782C55.729 45.6969 54.5171 44.7673 53.7806 43.4934M36.4378 84.6202C33.3713 84.6202 30.8927 82.1415 30.8927 79.0751C30.8927 76.0086 33.377 73.53 36.4378 73.53C39.4985 73.53 41.9828 76.0086 41.9828 79.0751C41.9803 80.545 41.3953 81.9539 40.356 82.9933C39.3166 84.0326 37.9076 84.6176 36.4378 84.6202ZM36.4378 33.4837C33.3713 33.4837 30.8927 31.0051 30.8927 27.9386C30.8927 24.8722 33.377 22.3936 36.4378 22.3936C39.4985 22.3936 41.9828 24.8722 41.9828 27.9386C41.9841 28.6672 41.8415 29.3888 41.5633 30.0621C41.2851 30.7354 40.8767 31.3472 40.3615 31.8624C39.8464 32.3775 39.2346 32.7859 38.5613 33.0642C37.8879 33.3424 37.1663 33.485 36.4378 33.4837Z" fill="#DADADA"/>
</svg>
