<svg width="186" height="37" viewBox="0 0 186 37" fill="none" xmlns="http://www.w3.org/2000/svg">
<g clip-path="url(#clip0_1105_351)">
<path d="M18.4369 19.019C18.4369 21.7974 17.6108 24.1376 15.9528 26.0321C14.2225 28.0171 11.9741 29.0136 9.22189 29.0136C6.46241 29.0136 4.22133 28.0171 2.49102 26.0321C0.832277 24.1376 0 21.7974 0 19.019C0 16.233 0.832277 13.8935 2.49102 12.0059C4.24058 10.0394 6.48893 9.05674 9.22189 9.05674C11.9741 9.05674 14.2225 10.0394 15.9528 12.0059C17.6108 13.8935 18.4369 16.233 18.4369 19.019ZM12.9572 19.019C12.9572 17.7606 12.656 16.6984 12.0529 15.8396C11.3783 14.8634 10.4342 14.3784 9.22189 14.3784C8.00926 14.3784 7.06546 14.8634 6.39012 15.8396C5.78089 16.6984 5.47937 17.7606 5.47937 19.019C5.47937 20.2705 5.78089 21.3455 6.39012 22.23C7.06546 23.2062 8.00926 23.6919 9.22189 23.6919C10.4342 23.6919 11.3783 23.2062 12.0529 22.23C12.656 21.3455 12.9572 20.2705 12.9572 19.019ZM38.2499 19.019C38.2499 21.6143 37.5026 23.8819 36.0015 25.8218C34.3958 27.9452 32.3248 29.0136 29.808 29.0136C28.0315 29.0136 26.5246 28.4959 25.2924 27.4736C25.2924 27.7091 25.3185 28.2794 25.3712 29.1912C25.4235 30.1078 25.4493 30.8551 25.4493 31.445C25.4493 34.7033 24.4793 36.3283 22.5398 36.3283C21.7464 36.3283 21.0979 36.0464 20.5799 35.4891C20.0687 34.926 19.813 34.2496 19.813 33.4511V12.2616C19.813 11.4882 20.0753 10.8194 20.5995 10.2563C21.1237 9.69902 21.7729 9.41784 22.5463 9.41784C23.7125 9.41784 24.5647 9.99982 25.1024 11.1609C26.2493 9.75824 27.8157 9.05674 29.8014 9.05674C32.3248 9.05674 34.3893 10.1048 36.0015 12.2093C37.4961 14.1561 38.2499 16.4237 38.2499 19.019ZM32.7701 19.019C32.7701 17.7606 32.4628 16.6984 31.8598 15.8396C31.1841 14.8634 30.2406 14.3784 29.028 14.3784C27.8157 14.3784 26.8719 14.8634 26.1966 15.8396C25.5935 16.6984 25.2924 17.7606 25.2924 19.019C25.2924 20.2705 25.5935 21.3455 26.1966 22.23C26.8719 23.2062 27.8157 23.6919 29.028 23.6919C30.2406 23.6919 31.1841 23.2062 31.8598 22.23C32.4628 21.3455 32.7701 20.2705 32.7701 19.019ZM58.1871 18.4298C58.1871 19.3463 57.9706 19.9755 57.5379 20.3301C57.1056 20.677 56.4307 20.8539 55.5195 20.8539H45.6292C45.6292 21.9027 46.1211 22.7085 47.1041 23.2716C47.8972 23.7115 48.8671 23.9349 50.014 23.9349C50.9059 23.9349 51.9739 23.6388 53.2258 23.0565C54.4777 22.4662 55.2834 22.1774 55.6314 22.1774C56.2668 22.1774 56.8041 22.407 57.2499 22.8789C57.6887 23.3446 57.9121 23.908 57.9121 24.5572C57.9121 26.0572 56.7914 27.2252 54.5492 28.0636C52.8389 28.6925 51.102 29.0136 49.3263 29.0136C46.4688 29.0136 44.1616 28.0636 42.3986 26.1698C40.6352 24.2753 39.751 21.8962 39.751 19.019C39.751 16.2788 40.6682 13.9392 42.5032 11.987C44.3316 10.0329 46.6064 9.05674 49.3194 9.05674C51.8428 9.05674 53.9531 9.98093 55.6445 11.8289C57.3349 13.6777 58.1871 15.8795 58.1871 18.4298ZM52.7081 17.0526C52.6816 16.2134 52.2951 15.4534 51.5478 14.7646C50.8005 14.0769 50.0078 13.7365 49.1687 13.7365C48.3037 13.7365 47.4972 14.0769 46.7503 14.7646C46.0034 15.4534 45.6292 16.2134 45.6292 17.0526H52.7081ZM76.5975 25.7753C76.5975 26.5756 76.3417 27.2502 75.831 27.814C75.3129 28.3717 74.6641 28.6536 73.8711 28.6536C71.9573 28.6536 71 27.1329 71 24.0984C71 23.515 71.0396 22.5977 71.1181 21.3327C71.2035 20.074 71.2431 19.1501 71.2431 18.5667C71.2431 15.348 70.2008 13.7365 68.1232 13.7365C66.0453 13.7365 65.0099 15.348 65.0099 18.5667C65.0099 19.1501 65.0426 20.074 65.1014 21.3327C65.1672 22.5977 65.1999 23.515 65.1999 24.0984C65.1999 27.1329 64.2561 28.6536 62.3689 28.6536C61.5754 28.6536 60.927 28.3717 60.4155 27.814C59.8978 27.2502 59.6421 26.5756 59.6421 25.7753V12.2558C59.6421 11.4613 59.8978 10.7874 60.4155 10.2432C60.927 9.69248 61.5823 9.41784 62.3754 9.41784C63.6861 9.41784 64.5969 9.99982 65.108 11.1609C65.9929 9.75824 67.5591 9.05674 69.8009 9.05674C71.8785 9.05674 73.5303 9.60675 74.7426 10.7013C75.9814 11.8754 76.5975 13.487 76.5975 15.5388V25.7753ZM93.788 25.193C93.788 26.4314 92.9837 27.4141 91.3703 28.1359C90.0861 28.7186 88.7296 29.0136 87.3005 29.0136C84.5406 29.0136 82.2996 28.0171 80.5692 26.0321C78.9112 24.1376 78.0789 21.7974 78.0789 19.019C78.0789 16.233 78.9243 13.8808 80.6216 11.9535C82.3192 10.0205 84.5406 9.05674 87.3005 9.05674C88.8931 9.05674 90.263 9.29251 91.4037 9.75824C92.9953 10.3874 93.788 11.3701 93.788 12.7074C93.788 13.382 93.5794 13.9785 93.1591 14.4965C92.7402 15.0076 92.2022 15.2699 91.5472 15.2699C91.1008 15.2699 90.4588 15.1192 89.62 14.8249C88.7816 14.5227 88.1135 14.3784 87.622 14.3784C86.3174 14.3784 85.3013 14.8438 84.5741 15.7742C83.8984 16.6134 83.558 17.6883 83.558 19.019C83.558 20.2705 83.8595 21.3327 84.4694 22.1912C85.1437 23.1942 86.0944 23.6919 87.3067 23.6919C87.8447 23.6919 88.5781 23.5346 89.515 23.2127C90.453 22.8992 91.1284 22.7354 91.5472 22.7354C92.1576 22.7354 92.6807 22.9969 93.1272 23.5084C93.5664 24.0261 93.788 24.5827 93.788 25.193ZM113.706 25.7753C113.706 26.5756 113.451 27.2502 112.939 27.814C112.422 28.3717 111.767 28.6536 110.973 28.6536C109.78 28.6536 108.929 28.0698 108.417 26.9098C107.271 28.3128 105.704 29.0136 103.718 29.0136C101.176 29.0136 99.0915 27.9452 97.4782 25.8218C96.0101 23.8819 95.2709 21.6143 95.2709 19.019C95.2709 16.4237 96.0101 14.1561 97.4782 12.2093C99.1177 10.1048 101.195 9.05674 103.718 9.05674C105.704 9.05674 107.271 9.75824 108.417 11.1609C108.929 9.99982 109.78 9.41784 110.973 9.41784C111.747 9.41784 112.396 9.69902 112.921 10.2563C113.444 10.8194 113.706 11.4816 113.706 12.2558V25.7753ZM108.227 19.019C108.227 17.7606 107.926 16.6984 107.323 15.8396C106.622 14.8634 105.678 14.3784 104.492 14.3784C103.279 14.3784 102.336 14.8634 101.66 15.8396C101.051 16.6984 100.75 17.7606 100.75 19.019C100.75 20.2705 101.044 21.3455 101.627 22.23C102.323 23.2062 103.279 23.6919 104.492 23.6919C105.704 23.6919 106.647 23.2062 107.323 22.23C107.926 21.3455 108.227 20.2705 108.227 19.019ZM127.686 11.8943C127.686 13.0674 127.116 13.8735 125.976 14.3123C124.921 14.6669 123.871 15.028 122.824 15.4004C121.676 16.0564 121.106 17.2753 121.106 19.0452V25.7753C121.106 26.5756 120.843 27.2502 120.333 27.814C119.815 28.3717 119.159 28.6536 118.366 28.6536C117.568 28.6536 116.911 28.3717 116.401 27.814C115.882 27.2502 115.627 26.5756 115.627 25.7753V12.2558C115.627 11.4613 115.882 10.7874 116.393 10.2432C116.911 9.69248 117.568 9.41784 118.361 9.41784C119.671 9.41784 120.581 9.99982 121.093 11.1609C122.267 9.75824 123.525 9.05674 124.882 9.05674C125.654 9.05674 126.317 9.33792 126.867 9.89519C127.411 10.459 127.686 11.1274 127.686 11.8943ZM141.981 12.1435C141.981 13.3623 141.502 14.1292 140.553 14.4576C140.086 14.6211 139.109 14.7061 137.622 14.7061V25.7753C137.622 26.5756 137.36 27.2502 136.85 27.814C136.331 28.3717 135.676 28.6536 134.883 28.6536C134.11 28.6536 133.454 28.3717 132.929 27.814C132.406 27.2502 132.143 26.5756 132.143 25.7753V14.7061C131.016 14.7061 130.197 14.5619 129.679 14.2807C128.972 13.8873 128.623 13.1727 128.623 12.1435C128.623 11.1151 128.984 10.4136 129.711 10.0394C130.203 9.76405 131.016 9.62055 132.143 9.62055V7.27412C132.143 4.515 133.054 3.13889 134.883 3.13889C136.705 3.13889 137.622 4.515 137.622 7.27412V9.62055C139.109 9.62055 140.086 9.70556 140.553 9.86904C141.502 10.1967 141.981 10.9578 141.981 12.1435ZM186 8.81537C185.985 7.13307 182.876 6.36955 174.829 6.36955C155.948 6.36955 151.157 5.56306 146.031 0.168701C148.187 3.40772 149.367 9.48287 169.325 9.18062C190.147 8.85984 177.444 14.5496 173.748 20.9778C180.413 15.0288 185.98 11.1076 186 8.83984V8.81537V8.81537ZM159.467 26.0906C159.467 27.664 158.19 28.9413 156.616 28.9413C155.036 28.9413 153.759 27.664 153.759 26.0906C153.759 24.5107 155.036 23.2331 156.616 23.2331C158.19 23.2331 159.467 24.5107 159.467 26.0906ZM172.47 26.0906C172.47 27.664 171.193 28.9413 169.619 28.9413C168.04 28.9413 166.762 27.664 166.762 26.0906C166.762 24.5107 168.04 23.2331 169.619 23.2331C171.193 23.2331 172.47 24.5107 172.47 26.0906Z" fill="#DADADA"/>
</g>
<defs>
<clipPath id="clip0_1105_351">
<rect width="186" height="36.3281" fill="white"/>
</clipPath>
</defs>
</svg>
