<svg width="121" height="116" viewBox="0 0 121 116" fill="none" xmlns="http://www.w3.org/2000/svg">
<path d="M0.471751 111.283C0.328796 111.283 0.214432 111.24 0.128659 111.154C0.0428864 111.068 0 110.954 0 110.811V96.7655C0 96.6082 0.0428864 96.4867 0.128659 96.401C0.214432 96.3152 0.328796 96.2723 0.471751 96.2723H5.68246C6.68314 96.2723 7.54802 96.4438 8.27709 96.7869C9.02045 97.1157 9.59227 97.6089 9.99255 98.2665C10.4071 98.9241 10.6144 99.739 10.6144 100.711C10.6144 101.683 10.4071 102.498 9.99255 103.156C9.59227 103.813 9.02045 104.314 8.27709 104.657C7.54802 104.985 6.68314 105.15 5.68246 105.15H1.35092V110.811C1.35092 110.954 1.30804 111.068 1.22226 111.154C1.13649 111.24 1.01498 111.283 0.857729 111.283H0.471751ZM1.35092 103.863H5.57524C6.81895 103.863 7.74101 103.592 8.34142 103.048C8.95612 102.505 9.26348 101.726 9.26348 100.711C9.26348 99.6961 8.95612 98.917 8.34142 98.3737C7.74101 97.8305 6.81895 97.5589 5.57524 97.5589H1.35092V103.863Z" fill="#DADADA"/>
<path d="M17.2853 111.497C16.256 111.497 15.3911 111.283 14.6906 110.854C14.0044 110.425 13.4755 109.839 13.1038 109.095C12.7464 108.352 12.5534 107.523 12.5249 106.608C12.5106 106.394 12.5034 106.093 12.5034 105.707C12.5034 105.321 12.5106 105.021 12.5249 104.807C12.5534 103.878 12.7464 103.048 13.1038 102.319C13.4755 101.576 14.0044 100.99 14.6906 100.561C15.3911 100.132 16.256 99.9177 17.2853 99.9177C18.3145 99.9177 19.1723 100.132 19.8584 100.561C20.5589 100.99 21.0879 101.576 21.4452 102.319C21.8169 103.048 22.0171 103.878 22.0457 104.807C22.0599 105.021 22.0671 105.321 22.0671 105.707C22.0671 106.093 22.0599 106.394 22.0457 106.608C22.0171 107.523 21.8169 108.352 21.4452 109.095C21.0879 109.839 20.5589 110.425 19.8584 110.854C19.1723 111.283 18.3145 111.497 17.2853 111.497ZM17.2853 110.253C18.2859 110.253 19.1008 109.932 19.7298 109.288C20.3588 108.645 20.6947 107.716 20.7376 106.501C20.7519 106.286 20.7591 106.022 20.7591 105.707C20.7591 105.393 20.7519 105.128 20.7376 104.914C20.6947 103.685 20.3588 102.755 19.7298 102.126C19.1008 101.483 18.2859 101.161 17.2853 101.161C16.2846 101.161 15.4697 101.483 14.8407 102.126C14.2117 102.755 13.8758 103.685 13.8329 104.914C13.8186 105.128 13.8115 105.393 13.8115 105.707C13.8115 106.022 13.8186 106.286 13.8329 106.501C13.8758 107.716 14.2117 108.645 14.8407 109.288C15.4697 109.932 16.2846 110.253 17.2853 110.253Z" fill="#DADADA"/>
<path d="M28.5347 111.497C27.7914 111.497 27.1481 111.397 26.6049 111.197C26.0759 110.997 25.6399 110.761 25.2968 110.489C24.9537 110.203 24.6964 109.924 24.5249 109.653C24.3676 109.381 24.2818 109.174 24.2675 109.031C24.2532 108.874 24.3033 108.759 24.4176 108.688C24.532 108.602 24.6392 108.559 24.7393 108.559H25.0609C25.1467 108.559 25.2182 108.574 25.2754 108.602C25.3468 108.631 25.4326 108.709 25.5327 108.838C25.7185 109.081 25.933 109.317 26.176 109.546C26.419 109.76 26.7264 109.932 27.098 110.06C27.484 110.189 27.9629 110.253 28.5347 110.253C29.3925 110.253 30.1001 110.089 30.6576 109.76C31.2151 109.431 31.4939 108.945 31.4939 108.302C31.4939 107.902 31.3795 107.58 31.1508 107.337C30.9364 107.094 30.5647 106.88 30.0358 106.694C29.5068 106.508 28.7921 106.315 27.8914 106.115C26.9908 105.9 26.2975 105.643 25.8115 105.343C25.3397 105.043 25.0181 104.699 24.8465 104.314C24.675 103.913 24.5892 103.484 24.5892 103.027C24.5892 102.527 24.7321 102.041 25.0181 101.569C25.304 101.083 25.7257 100.69 26.2832 100.389C26.855 100.075 27.5698 99.9177 28.4275 99.9177C29.128 99.9177 29.7213 100.011 30.2073 100.196C30.7077 100.382 31.1151 100.611 31.4296 100.883C31.7441 101.14 31.9728 101.397 32.1158 101.655C32.273 101.912 32.3588 102.119 32.3731 102.276C32.3874 102.419 32.3445 102.534 32.2444 102.62C32.1444 102.705 32.03 102.748 31.9013 102.748H31.5797C31.4653 102.748 31.3724 102.727 31.3009 102.684C31.2294 102.627 31.1651 102.555 31.1079 102.469C30.965 102.241 30.7934 102.026 30.5933 101.826C30.3932 101.626 30.1215 101.469 29.7785 101.354C29.4497 101.226 28.9993 101.161 28.4275 101.161C27.5698 101.161 26.9336 101.34 26.5191 101.697C26.1045 102.041 25.8972 102.484 25.8972 103.027C25.8972 103.341 25.983 103.62 26.1545 103.863C26.3261 104.092 26.6477 104.306 27.1195 104.507C27.5912 104.692 28.2774 104.892 29.178 105.107C30.093 105.307 30.8149 105.557 31.3438 105.857C31.8727 106.143 32.2444 106.486 32.4589 106.887C32.6876 107.287 32.8019 107.759 32.8019 108.302C32.8019 108.874 32.6376 109.403 32.3088 109.889C31.9943 110.375 31.5154 110.768 30.8721 111.068C30.2431 111.354 29.4639 111.497 28.5347 111.497Z" fill="#DADADA"/>
<path d="M39.3033 111.283C38.5599 111.283 37.9738 111.125 37.5449 110.811C37.1161 110.496 36.8158 110.067 36.6443 109.524C36.4728 108.981 36.387 108.373 36.387 107.702V101.376H34.7144C34.5715 101.376 34.4571 101.333 34.3713 101.247C34.2855 101.161 34.2427 101.047 34.2427 100.904V100.604C34.2427 100.461 34.2855 100.347 34.3713 100.261C34.4571 100.175 34.5715 100.132 34.7144 100.132H36.387V96.5296C36.387 96.3867 36.4299 96.2723 36.5156 96.1865C36.6014 96.1008 36.7158 96.0579 36.8587 96.0579H37.2233C37.3662 96.0579 37.4806 96.1008 37.5664 96.1865C37.6521 96.2723 37.695 96.3867 37.695 96.5296V100.132H40.354C40.4969 100.132 40.6113 100.175 40.6971 100.261C40.7828 100.347 40.8257 100.461 40.8257 100.604V100.904C40.8257 101.047 40.7828 101.161 40.6971 101.247C40.6113 101.333 40.4969 101.376 40.354 101.376H37.695V107.616C37.695 108.373 37.8165 108.967 38.0596 109.396C38.3169 109.824 38.7672 110.039 39.4105 110.039H40.5684C40.7114 110.039 40.8257 110.082 40.9115 110.168C40.9973 110.253 41.0402 110.368 41.0402 110.511V110.811C41.0402 110.954 40.9973 111.068 40.9115 111.154C40.8257 111.24 40.7114 111.283 40.5684 111.283H39.3033Z" fill="#DADADA"/>
<path d="M47.4168 116C46.5019 116 45.7514 115.879 45.1653 115.636C44.5935 115.393 44.1432 115.092 43.8144 114.735C43.4999 114.392 43.2783 114.042 43.1496 113.684C43.021 113.341 42.9495 113.062 42.9352 112.848C42.9209 112.705 42.9638 112.583 43.0639 112.483C43.1639 112.398 43.2783 112.355 43.407 112.355H43.7072C43.8215 112.355 43.9216 112.376 44.0074 112.419C44.0931 112.476 44.1646 112.605 44.2218 112.805C44.3076 113.034 44.4434 113.298 44.6292 113.598C44.8294 113.913 45.1367 114.185 45.5513 114.413C45.9802 114.642 46.5663 114.756 47.3096 114.756C48.0959 114.756 48.7535 114.656 49.2824 114.456C49.8113 114.256 50.2116 113.899 50.4832 113.384C50.7691 112.884 50.9121 112.183 50.9121 111.283V109.803C50.5547 110.289 50.083 110.696 49.4968 111.025C48.925 111.34 48.196 111.497 47.3096 111.497C46.4805 111.497 45.7729 111.347 45.1867 111.047C44.6149 110.746 44.1503 110.346 43.7929 109.846C43.4356 109.346 43.1711 108.788 42.9995 108.173C42.828 107.559 42.7351 106.937 42.7208 106.308C42.7065 105.907 42.7065 105.507 42.7208 105.107C42.7351 104.478 42.828 103.856 42.9995 103.241C43.1711 102.627 43.4356 102.069 43.7929 101.569C44.1503 101.068 44.6149 100.668 45.1867 100.368C45.7729 100.068 46.4805 99.9177 47.3096 99.9177C48.196 99.9177 48.925 100.082 49.4968 100.411C50.083 100.74 50.5547 101.14 50.9121 101.612V100.625C50.9121 100.482 50.955 100.368 51.0408 100.282C51.1265 100.182 51.2409 100.132 51.3838 100.132H51.7269C51.8699 100.132 51.9843 100.182 52.07 100.282C52.1701 100.368 52.2201 100.482 52.2201 100.625V111.068C52.2201 111.983 52.0843 112.812 51.8127 113.556C51.5411 114.299 51.055 114.892 50.3546 115.335C49.6684 115.778 48.6891 116 47.4168 116ZM47.4383 110.253C48.2531 110.253 48.9107 110.06 49.4111 109.674C49.9114 109.288 50.2759 108.809 50.5047 108.238C50.7477 107.652 50.8835 107.065 50.9121 106.479C50.9264 106.265 50.9335 106.008 50.9335 105.707C50.9335 105.407 50.9264 105.15 50.9121 104.935C50.8835 104.349 50.7477 103.77 50.5047 103.198C50.2759 102.612 49.9114 102.126 49.4111 101.74C48.9107 101.354 48.2531 101.161 47.4383 101.161C46.6091 101.161 45.9444 101.347 45.4441 101.719C44.958 102.091 44.6078 102.577 44.3934 103.177C44.1789 103.777 44.0574 104.421 44.0288 105.107C44.0145 105.507 44.0145 105.907 44.0288 106.308C44.0574 106.994 44.1789 107.637 44.3934 108.238C44.6078 108.838 44.958 109.324 45.4441 109.696C45.9444 110.067 46.6091 110.253 47.4383 110.253Z" fill="#DADADA"/>
<path d="M56.1883 111.283C56.0453 111.283 55.931 111.24 55.8452 111.154C55.7594 111.068 55.7166 110.954 55.7166 110.811V100.625C55.7166 100.482 55.7594 100.368 55.8452 100.282C55.931 100.182 56.0453 100.132 56.1883 100.132H56.5314C56.6744 100.132 56.7887 100.182 56.8745 100.282C56.9746 100.368 57.0246 100.482 57.0246 100.625V101.612C57.2819 101.111 57.6536 100.74 58.1396 100.497C58.6257 100.254 59.2261 100.132 59.9409 100.132H60.7343C60.8772 100.132 60.9916 100.175 61.0774 100.261C61.1631 100.347 61.206 100.461 61.206 100.604V100.904C61.206 101.047 61.1631 101.161 61.0774 101.247C60.9916 101.333 60.8772 101.376 60.7343 101.376H59.8122C58.9545 101.376 58.2754 101.626 57.7751 102.126C57.2748 102.627 57.0246 103.306 57.0246 104.163V110.811C57.0246 110.954 56.9746 111.068 56.8745 111.154C56.7887 111.24 56.6744 111.283 56.5314 111.283H56.1883Z" fill="#DADADA"/>
<path d="M67.0587 111.497C65.672 111.497 64.5713 111.047 63.7564 110.146C62.9416 109.231 62.477 108.037 62.3626 106.565C62.3483 106.351 62.3412 106.065 62.3412 105.707C62.3412 105.35 62.3483 105.064 62.3626 104.85C62.4341 103.878 62.6628 103.02 63.0488 102.276C63.4348 101.533 63.9637 100.954 64.6356 100.54C65.3218 100.125 66.1295 99.9177 67.0587 99.9177C68.0594 99.9177 68.91 100.139 69.6104 100.582C70.3109 101.026 70.847 101.662 71.2187 102.491C71.6046 103.32 71.7976 104.306 71.7976 105.45V105.772C71.7976 105.915 71.7476 106.029 71.6475 106.115C71.5618 106.201 71.4474 106.243 71.3044 106.243H63.6707C63.6707 106.243 63.6707 106.272 63.6707 106.329C63.6707 106.386 63.6707 106.429 63.6707 106.458C63.6992 107.101 63.8493 107.716 64.121 108.302C64.3926 108.874 64.7786 109.346 65.2789 109.717C65.7792 110.075 66.3725 110.253 67.0587 110.253C67.6734 110.253 68.1809 110.16 68.5811 109.975C68.9957 109.789 69.3245 109.589 69.5675 109.374C69.8106 109.145 69.9678 108.974 70.0393 108.859C70.168 108.674 70.268 108.566 70.3395 108.538C70.411 108.495 70.5253 108.474 70.6826 108.474H71.0257C71.1543 108.474 71.2616 108.516 71.3473 108.602C71.4474 108.674 71.4903 108.774 71.476 108.902C71.4617 109.103 71.3473 109.353 71.1329 109.653C70.9328 109.939 70.6397 110.225 70.2537 110.511C69.882 110.797 69.4246 111.032 68.8814 111.218C68.3381 111.404 67.7306 111.497 67.0587 111.497ZM63.6707 105.043H70.4896V104.957C70.4896 104.242 70.3538 103.599 70.0822 103.027C69.8106 102.455 69.4174 102.005 68.9028 101.676C68.3882 101.333 67.7735 101.161 67.0587 101.161C66.3439 101.161 65.7292 101.333 65.2146 101.676C64.7142 102.005 64.3282 102.455 64.0566 103.027C63.7993 103.599 63.6707 104.242 63.6707 104.957V105.043Z" fill="#DADADA"/>
<path d="M84.3689 111.524C83.0662 111.524 81.9565 111.315 81.0398 110.897C80.1392 110.478 79.4477 109.94 78.9652 109.28C78.4827 108.621 78.2254 107.921 78.1932 107.182C78.1932 107.053 78.2415 106.94 78.338 106.844C78.4345 106.747 78.5551 106.699 78.6998 106.699H79.1823C79.3431 106.699 79.4638 106.747 79.5442 106.844C79.6407 106.94 79.697 107.053 79.713 107.182C79.7774 107.632 79.9784 108.082 80.3161 108.532C80.6539 108.967 81.1524 109.337 81.8118 109.642C82.4712 109.932 83.3235 110.076 84.3689 110.076C85.945 110.076 87.0949 109.795 87.8186 109.232C88.5423 108.653 88.9041 107.881 88.9041 106.916C88.9041 106.273 88.7112 105.758 88.3252 105.372C87.9553 104.97 87.3843 104.616 86.6124 104.311C85.8404 103.989 84.8514 103.635 83.6452 103.249C82.5033 102.88 81.5625 102.502 80.8227 102.116C80.0829 101.714 79.5361 101.231 79.1823 100.668C78.8446 100.105 78.6757 99.3816 78.6757 98.497C78.6757 97.6768 78.8928 96.9451 79.3271 96.3018C79.7613 95.6424 80.3885 95.1197 81.2087 94.7338C82.045 94.3478 83.0582 94.1548 84.2483 94.1548C85.1971 94.1548 86.0254 94.2834 86.733 94.5408C87.4406 94.7981 88.0276 95.1439 88.494 95.5781C88.9604 95.9962 89.3142 96.4546 89.5555 96.9531C89.7967 97.4356 89.9254 97.91 89.9415 98.3764C89.9415 98.489 89.9013 98.6016 89.8208 98.7142C89.7404 98.8106 89.6118 98.8589 89.4349 98.8589H88.9524C88.872 98.8589 88.7674 98.8267 88.6388 98.7624C88.5262 98.6981 88.4538 98.5694 88.4217 98.3764C88.3252 97.5723 87.899 96.9129 87.1431 96.3983C86.4033 95.8676 85.4384 95.6022 84.2483 95.6022C83.0582 95.6022 82.0852 95.8354 81.3293 96.3018C80.5734 96.7682 80.1955 97.4999 80.1955 98.497C80.1955 99.1403 80.3644 99.6711 80.7021 100.089C81.0398 100.491 81.5706 100.853 82.2943 101.175C83.018 101.48 83.9508 101.818 85.0926 102.188C86.2988 102.574 87.2959 102.96 88.0839 103.346C88.872 103.732 89.459 104.206 89.845 104.769C90.2309 105.316 90.4239 106.032 90.4239 106.916C90.4239 107.897 90.1747 108.734 89.6761 109.425C89.1936 110.101 88.5021 110.623 87.6015 110.993C86.7008 111.347 85.6233 111.524 84.3689 111.524Z" fill="#DADADA"/>
<path d="M104.837 112.851C104.66 112.851 104.507 112.778 104.379 112.633C104.25 112.505 104.146 112.392 104.065 112.296L103.004 110.824C102.039 111.291 100.913 111.524 99.6263 111.524C98.2915 111.524 97.1577 111.291 96.2249 110.824C95.2921 110.342 94.5765 109.61 94.0779 108.629C93.5794 107.632 93.306 106.377 93.2577 104.866C93.2416 104.142 93.2336 103.467 93.2336 102.839C93.2336 102.212 93.2416 101.537 93.2577 100.813C93.306 99.3172 93.5954 98.0789 94.1262 97.0979C94.6569 96.1008 95.3886 95.361 96.3214 94.8785C97.2703 94.396 98.3719 94.1548 99.6263 94.1548C100.881 94.1548 101.974 94.396 102.907 94.8785C103.856 95.361 104.596 96.1008 105.127 97.0979C105.673 98.0789 105.963 99.3172 105.995 100.813C106.027 101.537 106.043 102.212 106.043 102.839C106.043 103.467 106.027 104.142 105.995 104.866C105.915 107.165 105.328 108.854 104.234 109.932L105.778 112.103C105.794 112.119 105.81 112.143 105.826 112.175C105.842 112.223 105.85 112.288 105.85 112.368C105.85 112.497 105.802 112.609 105.705 112.706C105.609 112.802 105.496 112.851 105.368 112.851H104.837ZM99.6263 110.076C101.009 110.076 102.143 109.658 103.028 108.822C103.928 107.986 104.411 106.627 104.475 104.745C104.507 104.021 104.523 103.386 104.523 102.839C104.523 102.292 104.507 101.657 104.475 100.934C104.443 99.6791 104.21 98.6579 103.776 97.8698C103.357 97.0818 102.787 96.5109 102.063 96.157C101.355 95.7872 100.543 95.6022 99.6263 95.6022C98.7257 95.6022 97.9136 95.7872 97.1899 96.157C96.4822 96.5109 95.9113 97.0818 95.4771 97.8698C95.0589 98.6579 94.8257 99.6791 94.7775 100.934C94.7614 101.657 94.7534 102.292 94.7534 102.839C94.7534 103.386 94.7614 104.021 94.7775 104.745C94.8418 106.627 95.3243 107.986 96.2249 108.822C97.1255 109.658 98.2593 110.076 99.6263 110.076Z" fill="#DADADA"/>
<path d="M110.412 111.283C110.251 111.283 110.123 111.234 110.026 111.138C109.93 111.041 109.882 110.913 109.882 110.752V94.9267C109.882 94.7659 109.93 94.6373 110.026 94.5408C110.123 94.4443 110.251 94.396 110.412 94.396H110.871C111.031 94.396 111.16 94.4443 111.257 94.5408C111.353 94.6373 111.401 94.7659 111.401 94.9267V109.835H119.724C119.901 109.835 120.038 109.883 120.134 109.98C120.231 110.076 120.279 110.213 120.279 110.39V110.752C120.279 110.913 120.231 111.041 120.134 111.138C120.038 111.234 119.901 111.283 119.724 111.283H110.412Z" fill="#DADADA"/>
<path d="M75.8936 26.4293C76.7162 27.3547 78.6698 28.5885 79.9036 25.8124C77.4359 24.2701 76.2021 25.9152 75.8936 26.4293Z" fill="#9F9F9F"/>
<path d="M46.59 5.76255C42.6417 9.9576 40.4208 15.3248 39.8039 17.484C39.5373 18.4617 39.0401 21.4834 38.9102 26.4293C40.9561 24.7842 47.4506 21.2312 52.1423 23.6532C58.1077 26.7329 55.5353 38.048 54.9184 40.6185C54.0959 42.3324 52.0189 47.0659 50.2915 52.2889C51.943 52.1472 53.947 53.0071 54.9184 53.5737C56.4572 54.3431 56.6504 55.572 56.1523 56.8897L56.4607 77.942C56.4607 79.5871 57.3861 83.2475 61.0876 84.7281C64.7891 86.2087 69.2104 84.9338 70.9583 84.1112C72.3978 83.5971 75.4618 81.7669 76.2021 78.5589C77.1275 74.549 78.9782 59.4345 78.6698 58.8176C78.7726 57.1724 79.7802 53.5737 82.9882 52.3399C82.3713 52.1343 81.2608 50.921 81.7544 47.713C81.1375 47.9187 79.1016 46.6026 75.8936 39.6931C72.6857 32.7836 72.5006 27.9716 72.8091 26.4293C73.1175 24.4757 75.7086 21.1238 83.6051 23.3447C83.6051 21.1855 82.9882 20.2601 79.9036 14.3994C77.4359 9.71083 69.8273 5.24846 66.3314 3.60334C62.7327 1.95822 53.7463 0.0869038 46.59 5.76255Z" fill="#9F9F9F"/>
<path d="M33.6347 61.9022L42.8885 51.4146C42.6828 51.2089 41.778 50.1807 39.8039 47.713C37.8298 45.2453 38.1588 41.3382 38.5701 39.6931C38.6729 38.7677 38.8785 35.313 38.8785 28.897C38.8785 28.0275 38.8899 27.2047 38.9102 26.4293C39.0401 21.4834 39.5373 18.4617 39.8039 17.484C40.4208 15.3248 42.6417 9.9576 46.59 5.76255C43.382 4.03518 37.6447 2.98645 35.177 2.67801C31.8868 2.57519 24.566 2.92477 21.6048 5.14568C18.6436 7.36659 16.8751 11.4177 16.361 13.1656C16.1554 13.9882 15.6824 17.2373 15.4356 23.6532C15.1888 30.0692 18.623 40.5157 20.3709 44.9369C22.633 50.0779 27.6506 60.6684 29.6247 61.9022C31.5989 63.136 33.1206 62.4163 33.6347 61.9022Z" fill="#9F9F9F"/>
<path fill-rule="evenodd" clip-rule="evenodd" d="M38.8785 28.897C38.8785 35.313 38.6729 38.7677 38.5701 39.6931C38.1588 41.3382 37.8298 45.2453 39.8039 47.713C41.778 50.1807 42.6828 51.2089 42.8885 51.4146C44.2251 52.2371 47.3303 53.6354 49.0577 52.6484C49.425 52.4385 49.8454 52.3271 50.2915 52.2889C52.0189 47.0659 54.0959 42.3324 54.9184 40.6185C55.5353 38.048 58.1077 26.7329 52.1423 23.6532C47.4506 21.2312 40.9561 24.7842 38.9102 26.4293C38.8899 27.2047 38.8785 28.0275 38.8785 28.897ZM49.3661 28.897C48.1323 29.1438 47.2069 27.766 46.8985 27.0462C48.4408 25.8124 50.1887 26.4293 50.9084 27.0462C50.9084 27.5603 50.6 28.6502 49.3661 28.897Z" fill="#9F9F9F"/>
<path d="M82.9882 52.3399C85.2502 49.7694 90.3295 42.6543 92.5504 34.7577C96.9923 25.3806 99.4774 19.8946 95.3266 11.9317C91.8824 5.32449 86.9756 2.15923 79.5952 1.13567C74.3764 0.411897 65.9201 2.78078 66.3314 3.60334C69.8273 5.24846 77.4359 9.71083 79.9036 14.3994C82.9882 20.2601 83.6051 21.1855 83.6051 23.3447C83.6051 25.5039 82.3713 29.8224 82.9882 33.2154C83.6051 36.6085 84.222 45.2453 81.7544 47.713C81.2608 50.921 82.3713 52.1343 82.9882 52.3399Z" fill="#9F9F9F"/>
<path fill-rule="evenodd" clip-rule="evenodd" d="M82.9882 33.2154C82.3713 29.8224 83.6051 25.5039 83.6051 23.3447C75.7086 21.1238 73.1175 24.4757 72.8091 26.4293C72.5006 27.9716 72.6857 32.7836 75.8936 39.6931C79.1016 46.6026 81.1375 47.9187 81.7544 47.713C84.222 45.2453 83.6051 36.6085 82.9882 33.2154ZM75.8936 26.4293C76.7162 27.3547 78.6698 28.5885 79.9036 25.8124C77.4359 24.2701 76.2021 25.9152 75.8936 26.4293Z" fill="#9F9F9F"/>
<path d="M78.6698 58.8176C83.3584 62.0255 92.7561 56.864 96.8689 53.8822C97.2802 53.5737 97.7943 52.9568 96.5604 52.9568C95.3266 52.9568 91.5222 53.5737 89.7743 53.8822C88.4377 54.2935 85.2091 54.5608 82.9882 52.3399C79.7802 53.5737 78.7726 57.1724 78.6698 58.8176Z" fill="#9F9F9F"/>
<path d="M44.7393 63.4444C47.7005 63.6912 48.2698 63.6474 50.2915 62.8275C51.7309 62.2438 55.2013 59.405 56.1523 56.8897C56.6504 55.572 56.4572 54.3431 54.9184 53.5737C53.947 53.0071 51.943 52.1472 50.2915 52.2889C50.2915 52.3329 50.2895 54.278 50.2856 54.3207C50.1211 56.1194 47.8238 57.5837 45.3562 58.8176C43.4833 59.754 40.8321 59.9486 39.8039 59.7429C38.7757 59.5373 39.4954 60.6683 39.4954 60.6683C39.9067 61.5937 41.778 63.1977 44.7393 63.4444Z" fill="#9F9F9F"/>
<path d="M46.8985 27.0462C47.2069 27.766 48.1323 29.1438 49.3661 28.897C50.6 28.6502 50.9084 27.5603 50.9084 27.0462C50.1887 26.4293 48.4408 25.8124 46.8985 27.0462Z" fill="#9F9F9F"/>
<path d="M42.8885 51.4146L33.6347 61.9022C33.1206 62.4163 31.5989 63.136 29.6247 61.9022C27.6506 60.6684 22.633 50.0779 20.3709 44.9369C18.623 40.5157 15.1888 30.0692 15.4356 23.6532C15.6824 17.2373 16.1554 13.9882 16.361 13.1656C16.8751 11.4177 18.6436 7.36659 21.6048 5.14568C24.566 2.92477 31.8868 2.57519 35.177 2.67801C37.6447 2.98645 43.382 4.03518 46.59 5.76255M42.8885 51.4146C42.6828 51.2089 41.778 50.1807 39.8039 47.713C37.8298 45.2453 38.1588 41.3382 38.5701 39.6931C38.6729 38.7677 38.8785 35.313 38.8785 28.897C38.8785 28.0275 38.8899 27.2047 38.9102 26.4293M42.8885 51.4146C44.2251 52.2371 47.3303 53.6354 49.0577 52.6484C49.425 52.4385 49.8454 52.3271 50.2915 52.2889M46.59 5.76255C42.6417 9.9576 40.4208 15.3248 39.8039 17.484C39.5373 18.4617 39.0401 21.4834 38.9102 26.4293M46.59 5.76255C53.7463 0.0869037 62.7327 1.95822 66.3314 3.60334M50.2915 52.2889C50.2915 52.3329 50.2895 54.278 50.2856 54.3207M50.2915 52.2889C50.2915 50.7674 50.2876 53.6434 50.2856 54.3207M50.2915 52.2889C51.943 52.1472 53.947 53.0071 54.9184 53.5737C56.4572 54.3431 56.6504 55.572 56.1523 56.8897M50.2915 52.2889C52.0189 47.0659 54.0959 42.3324 54.9184 40.6185C55.5353 38.048 58.1077 26.7329 52.1423 23.6532C47.4507 21.2312 40.9561 24.7842 38.9102 26.4293M50.2856 54.3207C50.1211 56.1194 47.8238 57.5837 45.3562 58.8176C43.4833 59.754 40.8321 59.9486 39.8039 59.7429C38.7757 59.5373 39.4954 60.6683 39.4954 60.6683C39.9067 61.5937 41.778 63.1977 44.7393 63.4444C47.7005 63.6912 48.2698 63.6474 50.2915 62.8275C51.7309 62.2438 55.2013 59.405 56.1523 56.8897M56.1523 56.8897L56.4607 77.942C56.4607 79.5871 57.3861 83.2475 61.0876 84.7281C64.7891 86.2087 69.2104 84.9338 70.9583 84.1112C72.3978 83.5971 75.4618 81.7669 76.2021 78.5589C77.1275 74.549 78.9782 59.4345 78.6698 58.8176M78.6698 58.8176C83.3584 62.0255 92.7561 56.864 96.8689 53.8822C97.2802 53.5737 97.7943 52.9568 96.5604 52.9568C95.3266 52.9568 91.5222 53.5737 89.7743 53.8822C88.4377 54.2935 85.2091 54.5608 82.9882 52.3399M78.6698 58.8176C78.7726 57.1724 79.7802 53.5737 82.9882 52.3399M82.9882 52.3399C85.2502 49.7694 90.3295 42.6543 92.5504 34.7577C96.9923 25.3806 99.4774 19.8946 95.3266 11.9317C91.8824 5.32449 86.9756 2.15923 79.5952 1.13567C74.3764 0.411897 65.9201 2.78078 66.3314 3.60334M82.9882 52.3399C82.3713 52.1343 81.2608 50.921 81.7544 47.713M66.3314 3.60334C69.8273 5.24846 77.4359 9.71083 79.9036 14.3994C82.9882 20.2601 83.6051 21.1855 83.6051 23.3447M83.6051 23.3447C83.6051 25.5039 82.3713 29.8224 82.9882 33.2154C83.6051 36.6085 84.222 45.2453 81.7544 47.713M83.6051 23.3447C75.7086 21.1238 73.1175 24.4757 72.8091 26.4293C72.5006 27.9716 72.6857 32.7836 75.8936 39.6931C79.1016 46.6026 81.1375 47.9187 81.7544 47.713M46.8985 27.0462C47.2069 27.766 48.1323 29.1438 49.3661 28.897C50.6 28.6502 50.9084 27.5603 50.9084 27.0462C50.1887 26.4293 48.4408 25.8124 46.8985 27.0462ZM75.8936 26.4293C76.7162 27.3547 78.6698 28.5885 79.9036 25.8124C77.4359 24.2701 76.2021 25.9152 75.8936 26.4293Z" stroke="#DADADA" stroke-width="1.41504"/>
</svg>
