<svg width="191" height="65" viewBox="0 0 191 65" fill="none" xmlns="http://www.w3.org/2000/svg">
<path d="M36.1748 38.8711C39.7259 38.8711 42.6046 35.9924 42.6046 32.4413C42.6046 28.8902 39.7259 26.0115 36.1748 26.0115C32.6237 26.0115 29.745 28.8902 29.745 32.4413C29.745 35.9924 32.6237 38.8711 36.1748 38.8711Z" fill="#DADADA"/>
<path fill-rule="evenodd" clip-rule="evenodd" d="M36.175 19.3682C44.8079 19.3682 52.8276 20.6069 58.8745 22.6886C66.16 25.1969 70.6395 28.9987 70.6395 32.4413C70.6395 36.0287 65.8922 40.0677 58.0684 42.6599C52.1534 44.6196 44.3698 45.6426 36.175 45.6426C27.7731 45.6426 19.8169 44.6824 13.8353 42.6383C6.26752 40.0517 1.70935 35.9604 1.70935 32.4413C1.70935 29.0266 5.98632 25.2541 13.1695 22.7497C19.2389 20.6337 27.4566 19.3682 36.1739 19.3682H36.175Z" stroke="#DADADA" stroke-width="3.07603"/>
<path fill-rule="evenodd" clip-rule="evenodd" d="M24.7941 25.9423C29.107 18.4639 34.1863 12.1355 39.0105 7.93725C44.823 2.87897 50.3543 0.898002 53.3364 2.61763C56.4442 4.40981 57.5713 10.5402 55.9083 18.6125C54.6523 24.7156 51.6488 31.9691 47.5549 39.0681C43.3574 46.3465 38.5511 52.759 33.7926 56.9183C27.7712 62.1819 21.9498 64.0867 18.9014 62.3287C15.9433 60.624 14.812 55.0333 16.2311 47.5595C17.4301 41.2446 20.4391 33.4937 24.7927 25.9422L24.7941 25.9423Z" stroke="#DADADA" stroke-width="3.07603"/>
<path fill-rule="evenodd" clip-rule="evenodd" d="M24.8051 39.0872C20.4801 31.6173 17.5354 24.0548 16.3063 17.7787C14.8267 10.2168 15.8728 4.43509 18.8522 2.71046C21.9569 0.913037 27.831 2.99807 33.994 8.47033C38.6536 12.6076 43.4384 18.8311 47.5443 25.9234C51.7538 33.1947 54.9088 40.5614 56.1361 46.7612C57.6892 54.6067 56.4322 60.6013 53.3866 62.3643C50.4314 64.0751 45.0236 62.2639 39.2573 57.3017C34.3853 53.1093 29.1728 46.6313 24.8051 39.0871V39.0872Z" stroke="#DADADA" stroke-width="3.07603"/>
<path fill-rule="evenodd" clip-rule="evenodd" d="M107.547 48.8688L99.666 36.9622C103.649 36.6107 107.238 33.7247 107.238 28.4522C107.238 23.0872 103.431 19.6536 98.0898 19.6536H86.3608V48.8466H89.9942V37.2471H95.8162L103.257 48.8466L107.547 48.8688ZM97.6551 34.0743H89.9961V22.9133H97.6551C101.115 22.9133 103.477 25.1888 103.477 28.4725C103.477 31.7563 101.113 34.078 97.6551 34.078V34.0743ZM121.072 49.3923C124.532 49.3923 127.375 48.2546 129.477 46.1548L127.901 44.0088C126.236 45.7164 123.786 46.6784 121.379 46.6784C116.828 46.6784 114.026 43.3521 113.763 39.3709H130.876V38.5384C130.876 32.1929 127.111 27.2016 120.719 27.2016C114.679 27.2016 110.304 32.1485 110.304 38.2757C110.304 44.8857 114.812 49.3757 121.071 49.3757L121.072 49.3923ZM127.64 36.9603H113.765C113.941 33.7228 116.17 29.9118 120.68 29.9118C125.496 29.9118 127.595 33.8079 127.64 36.9603ZM152.678 48.8669V34.3352C152.678 29.2144 148.959 27.1997 144.493 27.1997C141.034 27.1997 138.322 28.3375 136.046 30.7018L137.578 32.9773C139.46 30.9645 141.519 30.045 144.057 30.045C147.12 30.045 149.398 31.6638 149.398 34.5091V38.3164C147.69 36.3461 145.283 35.4267 142.394 35.4267C138.805 35.4267 134.994 37.6596 134.994 42.3864C134.994 46.9818 138.801 49.3905 142.394 49.3905C145.239 49.3905 147.648 48.3841 149.398 46.4582V48.8632L152.678 48.8669ZM143.576 47.028C140.512 47.028 138.366 45.104 138.366 42.4326C138.366 39.7187 140.512 37.7928 143.576 37.7928C145.896 37.7928 148.127 38.6679 149.398 40.4198V44.4029C148.129 46.153 145.896 47.0299 143.576 47.0299V47.028ZM168.551 49.3923C172.402 49.3923 174.678 47.8161 176.299 45.7164L174.11 43.7036C172.71 45.585 170.915 46.4601 168.745 46.4601C164.237 46.4601 161.438 42.958 161.438 38.2757C161.438 33.5933 164.238 30.1357 168.745 30.1357C170.934 30.1357 172.728 30.9682 174.11 32.8922L176.299 30.8794C174.68 28.7778 172.402 27.2034 168.551 27.2034C162.248 27.2034 158.002 32.019 158.002 38.2775C158.002 44.5805 162.248 49.3775 168.551 49.3775V49.3923ZM186.237 49.3923C188.161 49.3923 189.345 48.8225 190.177 48.0363L189.215 45.585C188.777 46.066 187.92 46.4601 186.982 46.4601C185.539 46.4601 184.836 45.3223 184.836 43.7461V30.6148H189.128V27.727H184.836V21.9494H181.553V27.727H178.051V30.6167H181.553V44.4491C181.553 47.6015 183.129 49.396 186.237 49.396V49.3923Z" fill="#DADADA"/>
</svg>
