<svg width="103" height="113" viewBox="0 0 103 113" fill="none" xmlns="http://www.w3.org/2000/svg">
<path d="M51.4466 54.6707C56.5935 54.6707 60.7658 50.4983 60.7658 45.3514C60.7658 40.2046 56.5935 36.0322 51.4466 36.0322C46.2997 36.0322 42.1274 40.2046 42.1274 45.3514C42.1274 50.4983 46.2997 54.6707 51.4466 54.6707Z" fill="#DADADA"/>
<path d="M51.4467 26.4043C63.9579 26.4043 75.5848 28.2001 84.3453 31.2174C94.9048 34.8527 101.396 40.3628 101.396 45.3517C101.396 50.5539 94.5156 56.4054 83.1769 60.1624C74.6037 63.0028 63.3233 64.4854 51.4435 64.4854C39.2704 64.4854 27.7351 63.0933 19.0672 60.1312C8.09885 56.3856 1.4931 50.4551 1.4931 45.3569C1.4931 40.4076 7.691 34.9411 18.1027 31.311C26.9017 28.2386 38.8126 26.4043 51.4467 26.4043Z" stroke="#DADADA" stroke-width="2.49705" stroke-miterlimit="10"/>
<path d="M34.9526 35.9377C41.2025 25.0995 48.5646 15.928 55.5533 9.84249C63.9808 2.51156 71.9922 -0.353811 76.3163 2.13284C80.8203 4.73394 82.4548 13.6151 80.0442 25.3149C78.2213 34.1586 73.8702 44.667 67.9366 54.9622C61.8562 65.5049 54.8905 74.7992 47.9934 80.8275C39.2673 88.456 30.8262 91.2163 26.4116 88.6693C22.125 86.1962 20.4811 78.0953 22.5412 67.2633C24.2797 58.1105 28.6402 46.878 34.9526 35.9377Z" stroke="#DADADA" stroke-width="2.49705" stroke-miterlimit="10"/>
<path d="M34.9681 54.9841C28.7036 44.1573 24.4295 33.1973 22.6504 24.1007C20.506 13.1418 22.0261 4.76211 26.3398 2.26193C30.8397 -0.339166 39.3536 2.67811 48.2858 10.6104C55.0392 16.6065 61.9738 25.626 67.9282 35.9056C74.0252 46.4463 78.5979 57.1201 80.3771 66.1106C82.6275 77.4815 80.8057 86.1692 76.3911 88.7245C72.1087 91.2039 64.2711 88.5788 55.9143 81.3873C48.8528 75.307 41.2982 65.9181 34.9681 54.9841Z" stroke="#DADADA" stroke-width="2.49705" stroke-miterlimit="10"/>
<path d="M7.28356 108.619V97.8738H10.9142C11.7536 97.8738 12.4427 98.0172 12.9813 98.304C13.5199 98.5873 13.9187 98.9773 14.1775 99.4739C14.4363 99.9706 14.5658 100.535 14.5658 101.169C14.5658 101.802 14.4363 102.363 14.1775 102.853C13.9187 103.342 13.5217 103.727 12.9865 104.007C12.4514 104.283 11.7676 104.421 10.9351 104.421H7.99709V103.246H10.8932C11.4668 103.246 11.9285 103.162 12.2783 102.994C12.6315 102.826 12.8869 102.589 13.0443 102.281C13.2051 101.97 13.2856 101.599 13.2856 101.169C13.2856 100.738 13.2051 100.362 13.0443 100.041C12.8834 99.7188 12.6263 99.4704 12.273 99.2956C11.9197 99.1172 11.4528 99.028 10.8722 99.028H8.5847V108.619H7.28356ZM12.3412 103.792L14.9855 108.619H13.4745L10.8722 103.792H12.3412ZM19.8582 108.787C19.0817 108.787 18.4119 108.615 17.8488 108.272C17.2891 107.926 16.8572 107.443 16.5529 106.824C16.2521 106.202 16.1017 105.478 16.1017 104.652C16.1017 103.827 16.2521 103.099 16.5529 102.47C16.8572 101.837 17.2804 101.343 17.8225 100.99C18.3682 100.633 19.0048 100.455 19.7323 100.455C20.152 100.455 20.5665 100.525 20.9757 100.665C21.3849 100.805 21.7574 101.032 22.0932 101.347C22.429 101.658 22.6966 102.071 22.8959 102.585C23.0953 103.099 23.195 103.732 23.195 104.484V105.009H16.9831V103.939H21.9358C21.9358 103.484 21.8449 103.078 21.663 102.722C21.4846 102.365 21.2293 102.083 20.897 101.877C20.5682 101.67 20.18 101.567 19.7323 101.567C19.2391 101.567 18.8124 101.69 18.4521 101.935C18.0954 102.176 17.8208 102.491 17.6284 102.879C17.436 103.267 17.3399 103.683 17.3399 104.128V104.841C17.3399 105.45 17.4448 105.966 17.6546 106.389C17.868 106.809 18.1636 107.129 18.5413 107.349C18.9191 107.566 19.358 107.674 19.8582 107.674C20.1835 107.674 20.4773 107.629 20.7396 107.538C21.0054 107.443 21.2345 107.304 21.4269 107.118C21.6193 106.929 21.7679 106.695 21.8729 106.415L23.0691 106.751C22.9432 107.157 22.7315 107.513 22.4342 107.821C22.1369 108.125 21.7697 108.363 21.3325 108.535C20.8953 108.703 20.4038 108.787 19.8582 108.787ZM27.4499 108.808C26.9393 108.808 26.4758 108.711 26.0596 108.519C25.6434 108.323 25.3128 108.042 25.068 107.674C24.8232 107.304 24.7007 106.856 24.7007 106.331C24.7007 105.869 24.7917 105.495 24.9736 105.208C25.1554 104.918 25.3985 104.691 25.7028 104.526C26.0071 104.362 26.3429 104.24 26.7102 104.159C27.0809 104.075 27.4534 104.009 27.8277 103.96C28.3174 103.897 28.7143 103.85 29.0186 103.818C29.3264 103.783 29.5503 103.725 29.6902 103.645C29.8336 103.564 29.9053 103.425 29.9053 103.225V103.183C29.9053 102.666 29.7636 102.263 29.4803 101.977C29.2005 101.69 28.7755 101.546 28.2054 101.546C27.6143 101.546 27.1509 101.676 26.8151 101.935C26.4793 102.193 26.2432 102.47 26.1068 102.764L24.9316 102.344C25.1414 101.854 25.4213 101.473 25.771 101.2C26.1243 100.924 26.509 100.731 26.9253 100.623C27.345 100.511 27.7577 100.455 28.1635 100.455C28.4223 100.455 28.7196 100.487 29.0554 100.549C29.3946 100.609 29.7217 100.733 30.0365 100.922C30.3548 101.111 30.6188 101.396 30.8287 101.777C31.0386 102.158 31.1435 102.669 31.1435 103.309V108.619H29.9053V107.527H29.8423C29.7584 107.702 29.6185 107.889 29.4226 108.089C29.2267 108.288 28.9662 108.458 28.6409 108.598C28.3156 108.738 27.9186 108.808 27.4499 108.808ZM27.6388 107.695C28.1285 107.695 28.5412 107.599 28.877 107.407C29.2163 107.214 29.4716 106.966 29.643 106.662C29.8179 106.357 29.9053 106.037 29.9053 105.702V104.568C29.8528 104.631 29.7374 104.689 29.559 104.741C29.3841 104.79 29.1813 104.834 28.9504 104.873C28.7231 104.908 28.501 104.939 28.2841 104.967C28.0708 104.992 27.8976 105.013 27.7647 105.03C27.4429 105.072 27.1421 105.14 26.8623 105.235C26.586 105.326 26.3621 105.464 26.1908 105.649C26.0229 105.831 25.9389 106.079 25.9389 106.394C25.9389 106.824 26.0981 107.15 26.4164 107.37C26.7381 107.587 27.1456 107.695 27.6388 107.695ZM36.6773 108.787C35.9218 108.787 35.2712 108.608 34.7256 108.251C34.1799 107.895 33.7602 107.403 33.4664 106.777C33.1726 106.151 33.0257 105.436 33.0257 104.631C33.0257 103.813 33.1761 103.091 33.4769 102.464C33.7812 101.835 34.2044 101.343 34.7465 100.99C35.2922 100.633 35.9288 100.455 36.6563 100.455C37.2229 100.455 37.7336 100.56 38.1883 100.77C38.643 100.98 39.0155 101.274 39.3058 101.651C39.5961 102.029 39.7762 102.47 39.8462 102.973H38.608C38.5136 102.606 38.3037 102.281 37.9784 101.998C37.6566 101.711 37.2229 101.567 36.6773 101.567C36.1946 101.567 35.7714 101.693 35.4076 101.945C35.0473 102.193 34.7658 102.545 34.5629 103C34.3635 103.451 34.2639 103.981 34.2639 104.589C34.2639 105.212 34.3618 105.754 34.5577 106.216C34.757 106.677 35.0368 107.036 35.3971 107.291C35.7609 107.547 36.1876 107.674 36.6773 107.674C36.9991 107.674 37.2911 107.618 37.5534 107.506C37.8158 107.394 38.0379 107.234 38.2197 107.024C38.4016 106.814 38.531 106.562 38.608 106.268H39.8462C39.7762 106.744 39.6031 107.172 39.3268 107.554C39.0539 107.931 38.6919 108.232 38.2407 108.456C37.793 108.676 37.2719 108.787 36.6773 108.787ZM45.1609 100.56V101.609H40.9847V100.56H45.1609ZM42.2019 98.6293H43.44V106.31C43.44 106.66 43.4908 106.922 43.5922 107.097C43.6971 107.269 43.83 107.384 43.9909 107.443C44.1553 107.499 44.3285 107.527 44.5103 107.527C44.6467 107.527 44.7587 107.52 44.8461 107.506C44.9336 107.489 45.0035 107.475 45.056 107.464L45.3078 108.577C45.2239 108.608 45.1067 108.64 44.9563 108.671C44.8059 108.706 44.6153 108.724 44.3844 108.724C44.0347 108.724 43.6919 108.648 43.3561 108.498C43.0238 108.348 42.7475 108.118 42.5271 107.811C42.3103 107.503 42.2019 107.115 42.2019 106.646V98.6293ZM59.8669 97.8738V108.619H58.6078L52.7526 100.182H52.6477V108.619H51.3466V97.8738H52.6057L58.4819 106.331H58.5868V97.8738H59.8669ZM64.6741 108.808C64.1634 108.808 63.7 108.711 63.2837 108.519C62.8675 108.323 62.537 108.042 62.2921 107.674C62.0473 107.304 61.9249 106.856 61.9249 106.331C61.9249 105.869 62.0158 105.495 62.1977 105.208C62.3796 104.918 62.6227 104.691 62.927 104.526C63.2313 104.362 63.5671 104.24 63.9343 104.159C64.3051 104.075 64.6776 104.009 65.0518 103.96C65.5415 103.897 65.9385 103.85 66.2428 103.818C66.5506 103.783 66.7744 103.725 66.9143 103.645C67.0577 103.564 67.1294 103.425 67.1294 103.225V103.183C67.1294 102.666 66.9878 102.263 66.7045 101.977C66.4247 101.69 65.9997 101.546 65.4296 101.546C64.8385 101.546 64.375 101.676 64.0392 101.935C63.7035 102.193 63.4674 102.47 63.331 102.764L62.1557 102.344C62.3656 101.854 62.6454 101.473 62.9952 101.2C63.3484 100.924 63.7332 100.731 64.1494 100.623C64.5691 100.511 64.9819 100.455 65.3876 100.455C65.6464 100.455 65.9437 100.487 66.2795 100.549C66.6188 100.609 66.9458 100.733 67.2606 100.922C67.5789 101.111 67.843 101.396 68.0528 101.777C68.2627 102.158 68.3676 102.669 68.3676 103.309V108.619H67.1294V107.527H67.0665C66.9825 107.702 66.8426 107.889 66.6468 108.089C66.4509 108.288 66.1903 108.458 65.865 108.598C65.5397 108.738 65.1428 108.808 64.6741 108.808ZM64.8629 107.695C65.3526 107.695 65.7654 107.599 66.1011 107.407C66.4404 107.214 66.6957 106.966 66.8671 106.662C67.042 106.357 67.1294 106.037 67.1294 105.702V104.568C67.077 104.631 66.9616 104.689 66.7832 104.741C66.6083 104.79 66.4054 104.834 66.1746 104.873C65.9472 104.908 65.7251 104.939 65.5083 104.967C65.2949 104.992 65.1218 105.013 64.9889 105.03C64.6671 105.072 64.3663 105.14 64.0865 105.235C63.8101 105.326 63.5863 105.464 63.4149 105.649C63.247 105.831 63.1631 106.079 63.1631 106.394C63.1631 106.824 63.3222 107.15 63.6405 107.37C63.9623 107.587 64.3698 107.695 64.8629 107.695ZM74.1323 100.56V101.609H69.956V100.56H74.1323ZM71.1732 98.6293H72.4114V106.31C72.4114 106.66 72.4621 106.922 72.5635 107.097C72.6685 107.269 72.8014 107.384 72.9623 107.443C73.1267 107.499 73.2998 107.527 73.4817 107.527C73.6181 107.527 73.73 107.52 73.8175 107.506C73.9049 107.489 73.9749 107.475 74.0273 107.464L74.2792 108.577C74.1952 108.608 74.078 108.64 73.9276 108.671C73.7772 108.706 73.5866 108.724 73.3558 108.724C73.006 108.724 72.6632 108.648 72.3275 108.498C71.9952 108.348 71.7189 108.118 71.4985 107.811C71.2816 107.503 71.1732 107.115 71.1732 106.646V98.6293ZM75.9948 108.619V100.56H77.233V108.619H75.9948ZM76.6244 99.2169C76.383 99.2169 76.1749 99.1347 76 98.9703C75.8286 98.8059 75.7429 98.6083 75.7429 98.3774C75.7429 98.1466 75.8286 97.949 76 97.7846C76.1749 97.6202 76.383 97.538 76.6244 97.538C76.8657 97.538 77.0721 97.6202 77.2435 97.7846C77.4183 97.949 77.5058 98.1466 77.5058 98.3774C77.5058 98.6083 77.4183 98.8059 77.2435 98.9703C77.0721 99.1347 76.8657 99.2169 76.6244 99.2169ZM86.0904 100.56L83.1104 108.619H81.8512L78.8712 100.56H80.2143L82.4388 106.982H82.5228L84.7473 100.56H86.0904ZM90.8149 108.787C90.0384 108.787 89.3686 108.615 88.8055 108.272C88.2459 107.926 87.8139 107.443 87.5096 106.824C87.2088 106.202 87.0584 105.478 87.0584 104.652C87.0584 103.827 87.2088 103.099 87.5096 102.47C87.8139 101.837 88.2371 101.343 88.7793 100.99C89.3249 100.633 89.9615 100.455 90.689 100.455C91.1087 100.455 91.5232 100.525 91.9324 100.665C92.3417 100.805 92.7142 101.032 93.0499 101.347C93.3857 101.658 93.6533 102.071 93.8527 102.585C94.052 103.099 94.1517 103.732 94.1517 104.484V105.009H87.9398V103.939H92.8925C92.8925 103.484 92.8016 103.078 92.6197 102.722C92.4413 102.365 92.186 102.083 91.8537 101.877C91.525 101.67 91.1367 101.567 90.689 101.567C90.1958 101.567 89.7691 101.69 89.4088 101.935C89.0521 102.176 88.7775 102.491 88.5851 102.879C88.3928 103.267 88.2966 103.683 88.2966 104.128V104.841C88.2966 105.45 88.4015 105.966 88.6114 106.389C88.8247 106.809 89.1203 107.129 89.498 107.349C89.8758 107.566 90.3148 107.674 90.8149 107.674C91.1402 107.674 91.434 107.629 91.6963 107.538C91.9622 107.443 92.1913 107.304 92.3836 107.118C92.576 106.929 92.7247 106.695 92.8296 106.415L94.0258 106.751C93.8999 107.157 93.6883 107.513 93.391 107.821C93.0937 108.125 92.7264 108.363 92.2892 108.535C91.852 108.703 91.3606 108.787 90.8149 108.787Z" fill="#DADADA"/>
</svg>
