<svg width="196" height="51" viewBox="0 0 196 51" fill="none" xmlns="http://www.w3.org/2000/svg">
<g clip-path="url(#clip0_1101_337)">
<path fill-rule="evenodd" clip-rule="evenodd" d="M28.1739 18.1697C29.1705 18.1837 30.0581 18.2231 30.6379 18.2735C33.1337 18.4903 35.4686 18.9846 37.4279 19.6619C40.4216 20.6968 43.2088 22.229 45.7895 24.2587C47.9703 26.1952 49.4479 27.7792 50.2223 29.0108C50.6822 29.7422 51.492 30.9032 52.1077 32.4224C52.2791 32.8454 52.5376 33.4578 52.7733 34.2676C52.8734 34.6119 53.0184 35.2082 53.2082 36.0567C53.3216 37.1364 53.3819 37.9014 53.389 38.3517C53.4039 39.2895 53.2994 40.0643 53.2082 40.6221C53.1084 41.2327 52.953 41.9857 52.6132 42.8312C52.4838 43.1531 52.2291 43.6661 51.8491 44.37C50.7646 45.9358 49.5768 47.1724 48.2857 48.08C46.9946 48.9877 45.3446 49.7525 43.3358 50.3746C41.6201 50.9225 39.5236 51.079 37.0461 50.8442C35.9246 50.7379 34.633 50.4375 33.5143 50.1051C32.7743 49.8852 31.722 49.4713 30.3572 48.8633L33.3994 46.4315C34.1627 46.7459 34.7225 46.9587 35.0788 47.0698C36.0014 47.3575 36.8489 47.5076 37.4279 47.6098C37.9463 47.7014 38.5682 47.7763 39.3029 47.8061C39.6771 47.8212 40.3031 47.8212 41.1809 47.8061C42.0599 47.6709 42.6792 47.5557 43.0388 47.4605C43.9799 47.2114 44.6781 46.8793 45.2105 46.5951C45.7134 46.3267 46.3364 45.956 46.9459 45.4047C47.2161 45.1602 47.6228 44.7179 48.1659 44.0778C48.8648 43.0594 49.3211 42.3187 49.5348 41.8554C49.8989 41.0659 50.0339 40.2558 50.1286 39.7055C50.2401 39.0576 50.359 38.1929 50.2223 37.1491C50.1679 36.7337 49.9983 36.0464 49.7134 35.0872C49.2574 33.7098 48.7415 32.5903 48.1659 31.7286C47.3025 30.4361 46.6807 29.6454 46.1313 29.0108C45.519 28.3035 44.5591 27.402 43.3358 26.4888C42.84 26.1187 41.9976 25.556 40.8085 24.8006C39.6611 24.1633 38.7789 23.7118 38.1619 23.4459C36.6841 22.8092 35.0313 22.2949 34.0667 22.0649C33.0862 21.8311 31.4715 21.5417 29.7981 21.4365C29.3627 21.4091 28.6193 21.3238 27.8764 21.332C27.6129 21.3349 27.2258 21.3592 26.7152 21.4048C26.1367 22.7629 24.7909 23.7149 23.2229 23.7149C21.1272 23.7149 19.4282 22.0141 19.4282 19.9159C19.4282 17.8178 21.1272 16.1169 23.2229 16.1169C24.6898 16.1169 25.9622 16.9501 26.5938 18.1695C27.3092 18.1649 27.8359 18.1649 28.1739 18.1697Z" fill="#DADADA"/>
<path fill-rule="evenodd" clip-rule="evenodd" d="M35.9925 37.2425C35.4819 38.0995 35.0038 38.8493 34.6702 39.3269C33.2342 41.3823 31.6385 43.1595 30.0723 44.5196C27.6793 46.5977 24.9591 48.248 21.9118 49.4707C19.1452 50.3932 17.0352 50.8822 15.582 50.9379C14.719 50.9709 13.3093 51.0925 11.6866 50.8667C11.2348 50.8038 10.5756 50.7217 9.75681 50.5211C9.4088 50.4358 8.8202 50.2634 7.991 50.0037C6.99988 49.5622 6.3077 49.2319 5.91447 49.013C5.09545 48.5569 4.47725 48.079 4.04016 47.721C3.56161 47.3291 2.98774 46.818 2.42598 46.1006C2.2121 45.8274 1.8956 45.3501 1.4765 44.6687C0.664 42.9455 0.187922 41.2974 0.0482649 39.7242C-0.091392 38.151 0.0720291 36.3381 0.538528 34.2853C0.922533 32.5239 1.83577 30.628 3.27824 28.5974C3.93119 27.6782 4.83721 26.7086 5.68441 25.9049C6.24484 25.3733 7.12944 24.6678 8.33823 23.7886L8.92102 27.642C8.26712 28.1467 7.803 28.5256 7.52866 28.779C6.81814 29.435 6.26439 30.0947 5.88623 30.5456C5.5477 30.9493 5.17184 31.451 4.77858 32.0731C4.57826 32.39 4.26514 32.9327 3.8392 33.7013C3.51648 34.531 3.30638 35.1256 3.20889 35.4849C2.95372 36.4254 2.89192 37.1968 2.87154 37.8004C2.85228 38.3707 2.86146 39.0962 3.03369 39.9003C3.11006 40.2568 3.28941 40.8306 3.57175 41.6215C4.10341 42.7366 4.51625 43.5026 4.81026 43.9194C5.31139 44.6299 5.94491 45.152 6.37375 45.5093C6.87863 45.9299 7.56748 46.4653 8.53918 46.8687C8.92585 47.0293 9.6055 47.2258 10.5781 47.4585C11.9982 47.7518 13.2251 47.8643 14.2587 47.7961C15.8091 47.6938 16.8044 47.55 17.6283 47.391C18.5467 47.2138 19.8071 46.8323 21.2093 46.2282C21.7775 45.9835 22.6859 45.5345 23.9343 44.8812C25.0598 44.205 25.8918 43.6659 26.4305 43.2639C27.7207 42.3011 28.9925 41.1252 29.674 40.4039C30.3669 39.6707 31.425 38.4155 32.3531 37.0172C32.5945 36.6535 33.0402 36.0516 33.4047 35.4034C33.5339 35.1735 33.7066 34.8257 33.9226 34.3602C33.0366 33.1796 32.8859 31.5368 33.6702 30.1774C34.7185 28.3603 37.0402 27.7378 38.8559 28.7868C40.6716 29.8359 41.2937 32.1593 40.2454 33.9764C39.5117 35.2481 38.1542 35.9347 36.783 35.8726C36.4292 36.4951 36.1657 36.9518 35.9925 37.2425Z" fill="#DADADA"/>
<path fill-rule="evenodd" clip-rule="evenodd" d="M14.4668 33.4196C13.9958 32.5406 13.5998 31.7446 13.3627 31.2126C12.3419 28.9231 11.6415 26.6399 11.2832 24.5967C10.7358 21.4749 10.7232 18.2927 11.2454 15.0503C11.8801 12.203 12.5477 10.1421 13.2485 8.86733C13.6646 8.11034 14.2864 6.83893 15.3154 5.56379C15.602 5.20875 16.0117 4.68572 16.6052 4.08698C16.8574 3.83247 17.3083 3.41657 17.9577 2.83925C18.8462 2.21671 19.4855 1.79321 19.8755 1.56876C20.6879 1.10127 21.4155 0.817263 21.9472 0.626765C22.5293 0.418195 23.2626 0.189273 24.1662 0.0769328C24.5103 0.034159 25.0821 0.00851472 25.8815 0C27.7757 0.190444 29.4324 0.630762 30.8516 1.32095C32.2709 2.01114 33.7394 3.08466 35.2572 4.54151C36.5679 5.77762 37.7214 7.53682 38.7176 9.81912C39.1686 10.8522 39.5325 12.1283 39.7845 13.2685C39.9512 14.0228 40.0998 15.1445 40.2303 16.6337L36.63 15.1495C36.5345 14.329 36.449 13.7359 36.3733 13.3702C36.1773 12.4232 35.8975 11.6087 35.7061 11.0523C35.5347 10.5543 35.2985 9.97364 34.9683 9.31615C34.8001 8.98126 34.4965 8.43334 34.0576 7.6724C33.5132 6.96849 33.1122 6.48225 32.8547 6.21368C32.1806 5.51064 31.5518 5.06052 31.0453 4.73226C30.5668 4.42216 29.9408 4.05649 29.1634 3.79021C28.8187 3.67213 28.235 3.53053 27.4122 3.36541C26.1834 3.24718 25.3148 3.20681 24.8064 3.24431C23.9398 3.30822 23.1665 3.58265 22.6396 3.76643C22.0194 3.98279 21.2061 4.2978 20.3602 4.92331C20.0236 5.17222 19.5053 5.65378 18.8052 6.368C17.8227 7.43471 17.0945 8.42876 16.6206 9.35015C15.9099 10.7322 15.5205 11.6597 15.2323 12.4481C14.9112 13.3268 14.5889 14.6039 14.3841 16.1172C14.3011 16.7305 14.2179 17.7405 14.1344 19.1474C14.134 20.4606 14.1672 21.4515 14.234 22.1204C14.3942 23.7224 14.7463 25.4183 15.0131 26.3741C15.2843 27.3457 15.8144 28.8992 16.534 30.4149C16.7212 30.8092 17.0071 31.5012 17.3745 32.1474C17.5049 32.3767 17.7138 32.7037 18.0013 33.1286C19.4686 32.9767 20.9532 33.6933 21.7136 35.0657C22.7299 36.9001 22.0674 39.2114 20.234 40.2282C18.4005 41.245 16.0902 40.5823 15.0739 38.7479C14.3626 37.464 14.4736 35.9465 15.233 34.8027C14.882 34.1788 14.6266 33.7178 14.4668 33.4196Z" fill="#DADADA"/>
<path fill-rule="evenodd" clip-rule="evenodd" d="M81.2828 11.2192H92.7304C93.7007 11.2637 94.4133 11.3206 94.8682 11.39C95.3232 11.4593 95.9738 11.6103 96.8202 11.8428C98.0592 12.2734 98.965 12.6601 99.5377 13.0027C100.11 13.3453 100.844 13.9398 101.74 14.7862C102.455 15.8163 102.92 16.6684 103.136 17.3426C103.351 18.0167 103.493 19.062 103.56 20.4784C103.449 21.9075 103.259 22.9693 102.99 23.6639C102.721 24.3584 102.125 25.3225 101.204 26.5561C100.59 27.1765 100.089 27.6141 99.7002 27.8689C99.3118 28.1238 98.5871 28.5056 97.5259 29.0145C97.9258 29.2817 98.2117 29.4838 98.3837 29.6209C98.5557 29.758 98.7831 29.965 99.0661 30.242L99.8982 31.2612L106.312 41.7961H99.5377C98.984 41.765 98.5994 41.6973 98.3837 41.5928C98.168 41.4883 97.8821 41.2311 97.5259 40.8213L92.2287 31.647C91.9045 31.1727 91.6598 30.8774 91.4948 30.7611C91.3297 30.6447 91.0417 30.5645 90.6308 30.5205H88.3332V41.7961H81.2828V11.2192ZM88.3507 16.5102V25.6056H91.6693C94.9214 25.3391 96.5528 23.7918 96.5634 20.9635C96.574 18.1353 94.9426 16.6508 91.6693 16.5102H88.3507Z" fill="#DADADA"/>
<path fill-rule="evenodd" clip-rule="evenodd" d="M115.433 19.6873C118.779 19.6873 121.367 20.8352 123.197 23.1312C125.028 25.4272 125.664 28.1893 125.108 31.4176C124.977 31.7433 124.815 31.9419 124.622 32.0132C124.429 32.0846 123.954 32.121 123.197 32.1225H111.307C111.501 34.7251 112.54 36.3669 114.424 37.0482C116.094 37.6516 118.085 37.3192 120.482 36.1147C120.689 36.0112 121.018 35.8514 121.47 35.6355C121.856 35.5447 122.148 35.5115 122.346 35.5359C122.544 35.5603 122.795 35.6606 123.1 35.8368L125.108 38.4342C124.057 39.8467 122.516 40.8748 120.482 41.5185C118.449 42.1623 116.378 42.3604 114.27 42.113C111.254 41.7167 108.909 40.4904 107.236 38.4342C105.563 36.3779 104.709 33.7782 104.674 30.6349C104.625 27.8008 105.518 25.2996 107.354 23.1312C109.19 20.9628 111.883 19.8148 115.433 19.6873ZM111.358 28.2959H119.423C119.423 27.0134 119.07 25.9942 118.364 25.2384C117.657 24.4825 116.666 24.1367 115.391 24.201C114.081 24.276 113.122 24.6863 112.514 25.4318C111.906 26.1773 111.521 27.132 111.358 28.2959Z" fill="#DADADA"/>
<path fill-rule="evenodd" clip-rule="evenodd" d="M141.023 10.3665H147.531V41.7946H143.106C142.605 41.7132 142.268 41.5427 142.096 41.283C141.924 41.0234 141.677 40.3155 141.358 39.1595C139.472 41.1554 137.298 42.1683 134.836 42.1982C132.373 42.2281 130.368 41.2152 128.82 39.1595C127.342 37.0329 126.622 34.2362 126.661 30.7695C126.7 27.3028 127.648 24.5674 129.507 22.5633C130.725 21.0507 132.502 20.093 134.836 19.6901C137.169 19.2872 139.232 19.8672 141.023 21.4302V10.3665ZM140.948 25.8744C140.399 25.2598 139.882 24.8616 139.398 24.6796C138.914 24.4976 138.154 24.4157 137.118 24.434C135.136 24.6991 133.974 26.0448 133.632 28.471C133.472 29.6081 133.37 30.6995 133.446 32.1699C133.48 32.8363 133.657 33.8074 133.978 35.0834C134.391 36.4955 135.437 37.1956 137.118 37.1836C138.799 37.1716 140.075 36.4715 140.948 35.0834V25.8744Z" fill="#DADADA"/>
<path fill-rule="evenodd" clip-rule="evenodd" d="M170.709 20.0415V41.8546H166.275C165.789 41.7056 165.463 41.5082 165.295 41.2624C165.127 41.0165 164.924 40.4385 164.686 39.5284C162.872 41.2964 160.762 42.1852 158.355 42.1946C155.948 42.204 154.002 41.3153 152.517 39.5284C151.783 38.3034 151.33 37.3139 151.158 36.5598C150.987 35.8058 150.9 34.4168 150.896 32.3929V20.0415H157.467V34.1949C157.548 35.8602 158.242 36.8694 159.55 37.2224C160.859 37.5754 162.392 37.0308 164.149 35.5886V20.0415H170.709Z" fill="#DADADA"/>
<path fill-rule="evenodd" clip-rule="evenodd" d="M172.247 20.0229H179.028C179.388 20.1563 179.628 20.2771 179.747 20.3854C179.866 20.4937 180.017 20.7088 180.2 21.0307L183.966 27.2641L187.616 20.6976C187.838 20.4391 188.024 20.2686 188.173 20.1861C188.323 20.1035 188.544 20.0491 188.837 20.0229H194.955L187.904 30.2549L195.213 41.8234H188.557C188.155 41.7391 187.86 41.616 187.67 41.4541C187.48 41.2923 187.224 40.9454 186.901 40.4134L183.23 34.1117L179.456 40.6607C179.153 41.1064 178.917 41.3967 178.747 41.5317C178.577 41.6668 178.325 41.764 177.993 41.8234H171.903L179.196 30.6124L172.17 20.0229H172.247Z" fill="#DADADA"/>
</g>
<defs>
<clipPath id="clip0_1101_337">
<rect width="195.234" height="51" fill="white"/>
</clipPath>
</defs>
</svg>
